<?xml version="1.0" encoding="us-ascii" standalone="no"?><svg xmlns="http://www.w3.org/2000/svg" xmlns:xlink="http://www.w3.org/1999/xlink" contentStyleType="text/css" height="458px" preserveAspectRatio="none" style="width:4627px;height:458px;background:#FFFFFF;" version="1.1" viewBox="0 0 4627 458" width="4627px" zoomAndPan="magnify"><defs/><g><!--cluster Healthcare Management System--><g id="cluster_Healthcare Management System"><path d="M28.9757,6 L292.9757,6 A3.75,3.75 0 0 1 295.4757,8.5 L302.4757,28.2969 L4617.9757,28.2969 A2.5,2.5 0 0 1 4620.4757,30.7969 L4620.4757,448.5 A2.5,2.5 0 0 1 4617.9757,451 L28.9757,451 A2.5,2.5 0 0 1 26.4757,448.5 L26.4757,8.5 A2.5,2.5 0 0 1 28.9757,6 " fill="none" style="stroke:#000000;stroke-width:1.5;"/><line style="stroke:#000000;stroke-width:1.5;" x1="26.4757" x2="302.4757" y1="28.2969" y2="28.2969"/><text fill="#000000" font-family="sans-serif" font-size="14" font-weight="bold" lengthAdjust="spacing" textLength="263" x="30.4757" y="20.9951">Healthcare Management System</text></g><!--entity terminateEmployee--><g id="elem_terminateEmployee"><rect fill="#F1F1F1" height="46.2969" rx="2.5" ry="2.5" style="stroke:#181818;stroke-width:0.5;" width="191" x="4412.9757" y="177"/><rect fill="#F1F1F1" height="10" style="stroke:#181818;stroke-width:0.5;" width="15" x="4583.9757" y="182"/><rect fill="#F1F1F1" height="2" style="stroke:#181818;stroke-width:0.5;" width="4" x="4581.9757" y="184"/><rect fill="#F1F1F1" height="2" style="stroke:#181818;stroke-width:0.5;" width="4" x="4581.9757" y="188"/><text fill="#000000" font-family="sans-serif" font-size="14" lengthAdjust="spacing" textLength="151" x="4427.9757" y="209.9951">Terminate Employee</text></g><!--entity messaging--><g id="elem_messaging"><rect fill="#F1F1F1" height="46.2969" rx="2.5" ry="2.5" style="stroke:#181818;stroke-width:0.5;" width="330" x="79.4757" y="177"/><rect fill="#F1F1F1" height="10" style="stroke:#181818;stroke-width:0.5;" width="15" x="389.4757" y="182"/><rect fill="#F1F1F1" height="2" style="stroke:#181818;stroke-width:0.5;" width="4" x="387.4757" y="184"/><rect fill="#F1F1F1" height="2" style="stroke:#181818;stroke-width:0.5;" width="4" x="387.4757" y="188"/><text fill="#000000" font-family="sans-serif" font-size="14" lengthAdjust="spacing" textLength="290" x="94.4757" y="209.9951">Messaging between Doctor and Patients</text></g><!--entity patientInfo--><g id="elem_patientInfo"><rect fill="#F1F1F1" height="46.2969" rx="2.5" ry="2.5" style="stroke:#181818;stroke-width:0.5;" width="226" x="1053.4757" y="177"/><rect fill="#F1F1F1" height="10" style="stroke:#181818;stroke-width:0.5;" width="15" x="1259.4757" y="182"/><rect fill="#F1F1F1" height="2" style="stroke:#181818;stroke-width:0.5;" width="4" x="1257.4757" y="184"/><rect fill="#F1F1F1" height="2" style="stroke:#181818;stroke-width:0.5;" width="4" x="1257.4757" y="188"/><text fill="#000000" font-family="sans-serif" font-size="14" lengthAdjust="spacing" textLength="186" x="1068.4757" y="209.9951">CRUD Patient Information</text></g><!--entity invoice--><g id="elem_invoice"><rect fill="#F1F1F1" height="46.2969" rx="2.5" ry="2.5" style="stroke:#181818;stroke-width:0.5;" width="163" x="3892.9757" y="177"/><rect fill="#F1F1F1" height="10" style="stroke:#181818;stroke-width:0.5;" width="15" x="4035.9757" y="182"/><rect fill="#F1F1F1" height="2" style="stroke:#181818;stroke-width:0.5;" width="4" x="4033.9757" y="184"/><rect fill="#F1F1F1" height="2" style="stroke:#181818;stroke-width:0.5;" width="4" x="4033.9757" y="188"/><text fill="#000000" font-family="sans-serif" font-size="14" lengthAdjust="spacing" textLength="123" x="3907.9757" y="209.9951">Generate Invoice</text></g><!--entity appointment--><g id="elem_appointment"><rect fill="#F1F1F1" height="46.2969" rx="2.5" ry="2.5" style="stroke:#181818;stroke-width:0.5;" width="189" x="551.9757" y="283"/><rect fill="#F1F1F1" height="10" style="stroke:#181818;stroke-width:0.5;" width="15" x="720.9757" y="288"/><rect fill="#F1F1F1" height="2" style="stroke:#181818;stroke-width:0.5;" width="4" x="718.9757" y="290"/><rect fill="#F1F1F1" height="2" style="stroke:#181818;stroke-width:0.5;" width="4" x="718.9757" y="294"/><text fill="#000000" font-family="sans-serif" font-size="14" lengthAdjust="spacing" textLength="149" x="566.9757" y="315.9951">CRUD Appointments</text></g><!--entity medicalHistory--><g id="elem_medicalHistory"><rect fill="#F1F1F1" height="46.2969" rx="2.5" ry="2.5" style="stroke:#181818;stroke-width:0.5;" width="187" x="813.9757" y="283"/><rect fill="#F1F1F1" height="10" style="stroke:#181818;stroke-width:0.5;" width="15" x="980.9757" y="288"/><rect fill="#F1F1F1" height="2" style="stroke:#181818;stroke-width:0.5;" width="4" x="978.9757" y="290"/><rect fill="#F1F1F1" height="2" style="stroke:#181818;stroke-width:0.5;" width="4" x="978.9757" y="294"/><text fill="#000000" font-family="sans-serif" font-size="14" lengthAdjust="spacing" textLength="147" x="828.9757" y="315.9951">View Medical History</text></g><!--entity employeeInfo--><g id="elem_employeeInfo"><rect fill="#F1F1F1" height="46.2969" rx="2.5" ry="2.5" style="stroke:#181818;stroke-width:0.5;" width="245" x="1980.9757" y="177"/><rect fill="#F1F1F1" height="10" style="stroke:#181818;stroke-width:0.5;" width="15" x="2205.9757" y="182"/><rect fill="#F1F1F1" height="2" style="stroke:#181818;stroke-width:0.5;" width="4" x="2203.9757" y="184"/><rect fill="#F1F1F1" height="2" style="stroke:#181818;stroke-width:0.5;" width="4" x="2203.9757" y="188"/><text fill="#000000" font-family="sans-serif" font-size="14" lengthAdjust="spacing" textLength="205" x="1995.9757" y="209.9951">CRUD Employee Information</text></g><!--entity employeeSchedule--><g id="elem_employeeSchedule"><rect fill="#F1F1F1" height="46.2969" rx="2.5" ry="2.5" style="stroke:#181818;stroke-width:0.5;" width="247" x="2260.9757" y="177"/><rect fill="#F1F1F1" height="10" style="stroke:#181818;stroke-width:0.5;" width="15" x="2487.9757" y="182"/><rect fill="#F1F1F1" height="2" style="stroke:#181818;stroke-width:0.5;" width="4" x="2485.9757" y="184"/><rect fill="#F1F1F1" height="2" style="stroke:#181818;stroke-width:0.5;" width="4" x="2485.9757" y="188"/><text fill="#000000" font-family="sans-serif" font-size="14" lengthAdjust="spacing" textLength="207" x="2275.9757" y="209.9951">Manage Employee Schedules</text></g><!--entity financialTracking--><g id="elem_financialTracking"><rect fill="#F1F1F1" height="46.2969" rx="2.5" ry="2.5" style="stroke:#181818;stroke-width:0.5;" width="248" x="2543.4757" y="177"/><rect fill="#F1F1F1" height="10" style="stroke:#181818;stroke-width:0.5;" width="15" x="2771.4757" y="182"/><rect fill="#F1F1F1" height="2" style="stroke:#181818;stroke-width:0.5;" width="4" x="2769.4757" y="184"/><rect fill="#F1F1F1" height="2" style="stroke:#181818;stroke-width:0.5;" width="4" x="2769.4757" y="188"/><text fill="#000000" font-family="sans-serif" font-size="14" lengthAdjust="spacing" textLength="208" x="2558.4757" y="209.9951">Track Revenue and Expenses</text></g><!--entity financialReports--><g id="elem_financialReports"><rect fill="#F1F1F1" height="46.2969" rx="2.5" ry="2.5" style="stroke:#181818;stroke-width:0.5;" width="217" x="3369.9757" y="283"/><rect fill="#F1F1F1" height="10" style="stroke:#181818;stroke-width:0.5;" width="15" x="3566.9757" y="288"/><rect fill="#F1F1F1" height="2" style="stroke:#181818;stroke-width:0.5;" width="4" x="3564.9757" y="290"/><rect fill="#F1F1F1" height="2" style="stroke:#181818;stroke-width:0.5;" width="4" x="3564.9757" y="294"/><text fill="#000000" font-family="sans-serif" font-size="14" lengthAdjust="spacing" textLength="177" x="3384.9757" y="315.9951">Create Financial Reports</text></g><!--entity inventoryTracking--><g id="elem_inventoryTracking"><rect fill="#F1F1F1" height="46.2969" rx="2.5" ry="2.5" style="stroke:#181818;stroke-width:0.5;" width="258" x="1687.4757" y="177"/><rect fill="#F1F1F1" height="10" style="stroke:#181818;stroke-width:0.5;" width="15" x="1925.4757" y="182"/><rect fill="#F1F1F1" height="2" style="stroke:#181818;stroke-width:0.5;" width="4" x="1923.4757" y="184"/><rect fill="#F1F1F1" height="2" style="stroke:#181818;stroke-width:0.5;" width="4" x="1923.4757" y="188"/><text fill="#000000" font-family="sans-serif" font-size="14" lengthAdjust="spacing" textLength="218" x="1702.4757" y="209.9951">Inventory and Supply Tracking</text></g><!--entity inventoryManagement--><g id="elem_inventoryManagement"><rect fill="#F1F1F1" height="46.2969" rx="2.5" ry="2.5" style="stroke:#181818;stroke-width:0.5;" width="263" x="1388.9757" y="177"/><rect fill="#F1F1F1" height="10" style="stroke:#181818;stroke-width:0.5;" width="15" x="1631.9757" y="182"/><rect fill="#F1F1F1" height="2" style="stroke:#181818;stroke-width:0.5;" width="4" x="1629.9757" y="184"/><rect fill="#F1F1F1" height="2" style="stroke:#181818;stroke-width:0.5;" width="4" x="1629.9757" y="188"/><text fill="#000000" font-family="sans-serif" font-size="14" lengthAdjust="spacing" textLength="223" x="1403.9757" y="209.9951">Manage Inventory Transactions</text></g><!--entity appointmentReminder--><g id="elem_appointmentReminder"><rect fill="#F1F1F1" height="46.2969" rx="2.5" ry="2.5" style="stroke:#181818;stroke-width:0.5;" width="259" x="444.9757" y="177"/><rect fill="#F1F1F1" height="10" style="stroke:#181818;stroke-width:0.5;" width="15" x="683.9757" y="182"/><rect fill="#F1F1F1" height="2" style="stroke:#181818;stroke-width:0.5;" width="4" x="681.9757" y="184"/><rect fill="#F1F1F1" height="2" style="stroke:#181818;stroke-width:0.5;" width="4" x="681.9757" y="188"/><text fill="#000000" font-family="sans-serif" font-size="14" lengthAdjust="spacing" textLength="219" x="459.9757" y="209.9951">Send Appointment Reminders</text></g><!--entity prescription--><g id="elem_prescription"><rect fill="#F1F1F1" height="46.2969" rx="2.5" ry="2.5" style="stroke:#181818;stroke-width:0.5;" width="179" x="1370.9757" y="283"/><rect fill="#F1F1F1" height="10" style="stroke:#181818;stroke-width:0.5;" width="15" x="1529.9757" y="288"/><rect fill="#F1F1F1" height="2" style="stroke:#181818;stroke-width:0.5;" width="4" x="1527.9757" y="290"/><rect fill="#F1F1F1" height="2" style="stroke:#181818;stroke-width:0.5;" width="4" x="1527.9757" y="294"/><text fill="#000000" font-family="sans-serif" font-size="14" lengthAdjust="spacing" textLength="139" x="1385.9757" y="315.9951">CRUD Prescriptions</text></g><!--entity medicalRecords--><g id="elem_medicalRecords"><rect fill="#F1F1F1" height="46.2969" rx="2.5" ry="2.5" style="stroke:#181818;stroke-width:0.5;" width="289" x="3073.9757" y="177"/><rect fill="#F1F1F1" height="10" style="stroke:#181818;stroke-width:0.5;" width="15" x="3342.9757" y="182"/><rect fill="#F1F1F1" height="2" style="stroke:#181818;stroke-width:0.5;" width="4" x="3340.9757" y="184"/><rect fill="#F1F1F1" height="2" style="stroke:#181818;stroke-width:0.5;" width="4" x="3340.9757" y="188"/><text fill="#000000" font-family="sans-serif" font-size="14" lengthAdjust="spacing" textLength="249" x="3088.9757" y="209.9951">Store and Manage Medical Records</text></g><!--entity printMedicalRecords--><g id="elem_printMedicalRecords"><rect fill="#F1F1F1" height="46.2969" rx="2.5" ry="2.5" style="stroke:#181818;stroke-width:0.5;" width="195" x="3120.9757" y="283"/><rect fill="#F1F1F1" height="10" style="stroke:#181818;stroke-width:0.5;" width="15" x="3295.9757" y="288"/><rect fill="#F1F1F1" height="2" style="stroke:#181818;stroke-width:0.5;" width="4" x="3293.9757" y="290"/><rect fill="#F1F1F1" height="2" style="stroke:#181818;stroke-width:0.5;" width="4" x="3293.9757" y="294"/><text fill="#000000" font-family="sans-serif" font-size="14" lengthAdjust="spacing" textLength="155" x="3135.9757" y="315.9951">Print Medical Records</text></g><!--entity equipmentStatus--><g id="elem_equipmentStatus"><rect fill="#F1F1F1" height="46.2969" rx="2.5" ry="2.5" style="stroke:#181818;stroke-width:0.5;" width="229" x="3716.9757" y="283"/><rect fill="#F1F1F1" height="10" style="stroke:#181818;stroke-width:0.5;" width="15" x="3925.9757" y="288"/><rect fill="#F1F1F1" height="2" style="stroke:#181818;stroke-width:0.5;" width="4" x="3923.9757" y="290"/><rect fill="#F1F1F1" height="2" style="stroke:#181818;stroke-width:0.5;" width="4" x="3923.9757" y="294"/><text fill="#000000" font-family="sans-serif" font-size="14" lengthAdjust="spacing" textLength="189" x="3731.9757" y="315.9951">Monitor Equipment Status</text></g><!--entity maintenancePlan--><g id="elem_maintenancePlan"><rect fill="#F1F1F1" height="46.2969" rx="2.5" ry="2.5" style="stroke:#181818;stroke-width:0.5;" width="309" x="3827.9757" y="389"/><rect fill="#F1F1F1" height="10" style="stroke:#181818;stroke-width:0.5;" width="15" x="4116.9757" y="394"/><rect fill="#F1F1F1" height="2" style="stroke:#181818;stroke-width:0.5;" width="4" x="4114.9757" y="396"/><rect fill="#F1F1F1" height="2" style="stroke:#181818;stroke-width:0.5;" width="4" x="4114.9757" y="400"/><text fill="#000000" font-family="sans-serif" font-size="14" lengthAdjust="spacing" textLength="269" x="3842.9757" y="421.9951">Create Equipment Maintenance Plans</text></g><!--entity advertising--><g id="elem_advertising"><rect fill="#F1F1F1" height="46.2969" rx="2.5" ry="2.5" style="stroke:#181818;stroke-width:0.5;" width="199" x="3472.9757" y="177"/><rect fill="#F1F1F1" height="10" style="stroke:#181818;stroke-width:0.5;" width="15" x="3651.9757" y="182"/><rect fill="#F1F1F1" height="2" style="stroke:#181818;stroke-width:0.5;" width="4" x="3649.9757" y="184"/><rect fill="#F1F1F1" height="2" style="stroke:#181818;stroke-width:0.5;" width="4" x="3649.9757" y="188"/><text fill="#000000" font-family="sans-serif" font-size="14" lengthAdjust="spacing" textLength="159" x="3487.9757" y="209.9951">CRUD Advertisements</text></g><!--entity voucher--><g id="elem_voucher"><rect fill="#F1F1F1" height="46.2969" rx="2.5" ry="2.5" style="stroke:#181818;stroke-width:0.5;" width="150" x="3707.4757" y="177"/><rect fill="#F1F1F1" height="10" style="stroke:#181818;stroke-width:0.5;" width="15" x="3837.4757" y="182"/><rect fill="#F1F1F1" height="2" style="stroke:#181818;stroke-width:0.5;" width="4" x="3835.4757" y="184"/><rect fill="#F1F1F1" height="2" style="stroke:#181818;stroke-width:0.5;" width="4" x="3835.4757" y="188"/><text fill="#000000" font-family="sans-serif" font-size="14" lengthAdjust="spacing" textLength="110" x="3722.4757" y="209.9951">CRUD Vouchers</text></g><!--entity feedback--><g id="elem_feedback"><rect fill="#F1F1F1" height="46.2969" rx="2.5" ry="2.5" style="stroke:#181818;stroke-width:0.5;" width="167" x="850.9757" y="177"/><rect fill="#F1F1F1" height="10" style="stroke:#181818;stroke-width:0.5;" width="15" x="997.9757" y="182"/><rect fill="#F1F1F1" height="2" style="stroke:#181818;stroke-width:0.5;" width="4" x="995.9757" y="184"/><rect fill="#F1F1F1" height="2" style="stroke:#181818;stroke-width:0.5;" width="4" x="995.9757" y="188"/><text fill="#000000" font-family="sans-serif" font-size="14" lengthAdjust="spacing" textLength="127" x="865.9757" y="209.9951">Service Feedback</text></g><!--entity treatmentPlan--><g id="elem_treatmentPlan"><rect fill="#F1F1F1" height="46.2969" rx="2.5" ry="2.5" style="stroke:#181818;stroke-width:0.5;" width="269" x="1032.9757" y="389"/><rect fill="#F1F1F1" height="10" style="stroke:#181818;stroke-width:0.5;" width="15" x="1281.9757" y="394"/><rect fill="#F1F1F1" height="2" style="stroke:#181818;stroke-width:0.5;" width="4" x="1279.9757" y="396"/><rect fill="#F1F1F1" height="2" style="stroke:#181818;stroke-width:0.5;" width="4" x="1279.9757" y="400"/><text fill="#000000" font-family="sans-serif" font-size="14" lengthAdjust="spacing" textLength="229" x="1047.9757" y="421.9951">Create Patient Treatment Plans</text></g><!--entity treatmentProgress--><g id="elem_treatmentProgress"><rect fill="#F1F1F1" height="46.2969" rx="2.5" ry="2.5" style="stroke:#181818;stroke-width:0.5;" width="262" x="1036.4757" y="283"/><rect fill="#F1F1F1" height="10" style="stroke:#181818;stroke-width:0.5;" width="15" x="1278.4757" y="288"/><rect fill="#F1F1F1" height="2" style="stroke:#181818;stroke-width:0.5;" width="4" x="1276.4757" y="290"/><rect fill="#F1F1F1" height="2" style="stroke:#181818;stroke-width:0.5;" width="4" x="1276.4757" y="294"/><text fill="#000000" font-family="sans-serif" font-size="14" lengthAdjust="spacing" textLength="222" x="1051.4757" y="315.9951">Track Treatment Plan Progress</text></g><!--entity serviceContract--><g id="elem_serviceContract"><rect fill="#F1F1F1" height="46.2969" rx="2.5" ry="2.5" style="stroke:#181818;stroke-width:0.5;" width="212" x="2826.4757" y="177"/><rect fill="#F1F1F1" height="10" style="stroke:#181818;stroke-width:0.5;" width="15" x="3018.4757" y="182"/><rect fill="#F1F1F1" height="2" style="stroke:#181818;stroke-width:0.5;" width="4" x="3016.4757" y="184"/><rect fill="#F1F1F1" height="2" style="stroke:#181818;stroke-width:0.5;" width="4" x="3016.4757" y="188"/><text fill="#000000" font-family="sans-serif" font-size="14" lengthAdjust="spacing" textLength="172" x="2841.4757" y="209.9951">CRUD Service Contracts</text></g><!--entity supplyContract--><g id="elem_supplyContract"><rect fill="#F1F1F1" height="46.2969" rx="2.5" ry="2.5" style="stroke:#181818;stroke-width:0.5;" width="208" x="2207.4757" y="283"/><rect fill="#F1F1F1" height="10" style="stroke:#181818;stroke-width:0.5;" width="15" x="2395.4757" y="288"/><rect fill="#F1F1F1" height="2" style="stroke:#181818;stroke-width:0.5;" width="4" x="2393.4757" y="290"/><rect fill="#F1F1F1" height="2" style="stroke:#181818;stroke-width:0.5;" width="4" x="2393.4757" y="294"/><text fill="#000000" font-family="sans-serif" font-size="14" lengthAdjust="spacing" textLength="168" x="2222.4757" y="315.9951">CRUD Supply Contracts</text></g><!--entity potentialCustomer--><g id="elem_potentialCustomer"><rect fill="#F1F1F1" height="46.2969" rx="2.5" ry="2.5" style="stroke:#181818;stroke-width:0.5;" width="322" x="4018.4757" y="283"/><rect fill="#F1F1F1" height="10" style="stroke:#181818;stroke-width:0.5;" width="15" x="4320.4757" y="288"/><rect fill="#F1F1F1" height="2" style="stroke:#181818;stroke-width:0.5;" width="4" x="4318.4757" y="290"/><rect fill="#F1F1F1" height="2" style="stroke:#181818;stroke-width:0.5;" width="4" x="4318.4757" y="294"/><text fill="#000000" font-family="sans-serif" font-size="14" lengthAdjust="spacing" textLength="282" x="4033.4757" y="315.9951">CRUD Potential Customers (Businesses)</text></g><!--entity clinicInfo--><g id="elem_clinicInfo"><rect fill="#F1F1F1" height="46.2969" rx="2.5" ry="2.5" style="stroke:#181818;stroke-width:0.5;" width="212" x="4091.4757" y="177"/><rect fill="#F1F1F1" height="10" style="stroke:#181818;stroke-width:0.5;" width="15" x="4283.4757" y="182"/><rect fill="#F1F1F1" height="2" style="stroke:#181818;stroke-width:0.5;" width="4" x="4281.4757" y="184"/><rect fill="#F1F1F1" height="2" style="stroke:#181818;stroke-width:0.5;" width="4" x="4281.4757" y="188"/><text fill="#000000" font-family="sans-serif" font-size="14" lengthAdjust="spacing" textLength="172" x="4106.4757" y="209.9951">CRUD Clinic Information</text></g><!--entity manager--><g id="elem_manager"><ellipse cx="3308.4757" cy="49.5" fill="#F1F1F1" rx="8" ry="8" style="stroke:#181818;stroke-width:0.5;"/><path d="M3308.4757,57.5 L3308.4757,84.5 M3295.4757,65.5 L3321.4757,65.5 M3308.4757,84.5 L3295.4757,99.5 M3308.4757,84.5 L3321.4757,99.5 " fill="none" style="stroke:#181818;stroke-width:0.5;"/><text fill="#000000" font-family="sans-serif" font-size="14" lengthAdjust="spacing" textLength="61" x="3277.9757" y="113.9951">Manager</text></g><!--entity doctor--><g id="elem_doctor"><ellipse cx="990.4757" cy="49.5" fill="#F1F1F1" rx="8" ry="8" style="stroke:#181818;stroke-width:0.5;"/><path d="M990.4757,57.5 L990.4757,84.5 M977.4757,65.5 L1003.4757,65.5 M990.4757,84.5 L977.4757,99.5 M990.4757,84.5 L1003.4757,99.5 " fill="none" style="stroke:#181818;stroke-width:0.5;"/><text fill="#000000" font-family="sans-serif" font-size="14" lengthAdjust="spacing" textLength="50" x="965.4757" y="113.9951">Doctor</text></g><!--entity patient--><g id="elem_patient"><ellipse cx="244.4757" cy="49.5" fill="#F1F1F1" rx="8" ry="8" style="stroke:#181818;stroke-width:0.5;"/><path d="M244.4757,57.5 L244.4757,84.5 M231.4757,65.5 L257.4757,65.5 M244.4757,84.5 L231.4757,99.5 M244.4757,84.5 L257.4757,99.5 " fill="none" style="stroke:#181818;stroke-width:0.5;"/><text fill="#000000" font-family="sans-serif" font-size="14" lengthAdjust="spacing" textLength="53" x="217.9757" y="113.9951">Patient</text></g><!--link patient to messaging--><g id="link_patient_messaging"><path d="M244.4757,117 C244.4757,136.65 244.4757,142.139 244.4757,158.931 " fill="none" id="patient-to-messaging" style="stroke:#181818;stroke-width:1.0;"/><polygon fill="none" points="244.4757,176.931,250.4757,158.931,238.4757,158.931,244.4757,176.931" style="stroke:#181818;stroke-width:1.0;"/></g><!--link patient to medicalHistory--><g id="link_patient_medicalHistory"><path d="M217.5437,87.948 C154.3597,107.842 6,162.544 61.4757,223 C114.0297,280.273 681.2697,273.986 758.4757,283 C776.3967,285.092 777.6631,285.0991 795.9831,287.7271 " fill="none" id="patient-to-medicalHistory" style="stroke:#181818;stroke-width:1.0;"/><polygon fill="none" points="813.8007,290.283,796.8351,281.7879,795.1311,293.6663,813.8007,290.283" style="stroke:#181818;stroke-width:1.0;"/></g><!--link patient to feedback--><g id="link_patient_feedback"><path d="M271.1017,84.592 C366.6397,101.069 677.0366,154.6008 833.0516,181.5078 " fill="none" id="patient-to-feedback" style="stroke:#181818;stroke-width:1.0;"/><polygon fill="none" points="850.7897,184.567,834.0713,175.5951,832.0319,187.4205,850.7897,184.567" style="stroke:#181818;stroke-width:1.0;"/></g><!--link doctor to patientInfo--><g id="link_doctor_patientInfo"><path d="M1015.6957,97.05 C1046.7757,118.065 1084.7444,143.7398 1118.9044,166.8368 " fill="none" id="doctor-to-patientInfo" style="stroke:#181818;stroke-width:1.0;"/><polygon fill="none" points="1133.8157,176.919,1122.2651,161.8663,1115.5436,171.8073,1133.8157,176.919" style="stroke:#181818;stroke-width:1.0;"/></g><!--link doctor to messaging--><g id="link_doctor_messaging"><path d="M965.2277,84.028 C875.1927,98.39 583.283,144.9546 400.448,174.1196 " fill="none" id="doctor-to-messaging" style="stroke:#181818;stroke-width:1.0;"/><polygon fill="none" points="382.6727,176.955,401.3931,180.0447,399.5029,168.1945,382.6727,176.955" style="stroke:#181818;stroke-width:1.0;"/></g><!--link doctor to appointment--><g id="link_doctor_appointment"><path d="M965.1757,87.405 C922.1417,100.765 833.0857,131.779 768.4757,177 C756.8437,185.142 710.474,235.0934 678.902,269.5344 " fill="none" id="doctor-to-appointment" style="stroke:#181818;stroke-width:1.0;"/><polygon fill="none" points="666.7387,282.803,683.3249,273.5889,674.4791,265.48,666.7387,282.803" style="stroke:#181818;stroke-width:1.0;"/></g><!--link doctor to inventoryTracking--><g id="link_doctor_inventoryTracking"><path d="M1015.7657,83.551 C1105.1257,96.111 1414.3857,139.691 1669.4757,177 C1675.3457,177.859 1663.5485,176.114 1669.6085,177.008 " fill="none" id="doctor-to-inventoryTracking" style="stroke:#181818;stroke-width:1.0;"/><polygon fill="none" points="1687.4157,179.635,1670.4841,171.0722,1668.7328,182.9437,1687.4157,179.635" style="stroke:#181818;stroke-width:1.0;"/></g><!--link doctor to inventoryManagement--><g id="link_doctor_inventoryManagement"><path d="M1015.6857,85.66 C1087.6857,101.826 1279.5729,144.9108 1404.9129,173.0518 " fill="none" id="doctor-to-inventoryManagement" style="stroke:#181818;stroke-width:1.0;"/><polygon fill="none" points="1422.4757,176.995,1406.2273,167.1976,1403.5986,178.9061,1422.4757,176.995" style="stroke:#181818;stroke-width:1.0;"/></g><!--link doctor to appointmentReminder--><g id="link_doctor_appointmentReminder"><path d="M965.3897,87.176 C904.5227,104.588 764.3066,144.6976 668.8316,172.0086 " fill="none" id="doctor-to-appointmentReminder" style="stroke:#181818;stroke-width:1.0;"/><polygon fill="none" points="651.5257,176.959,670.4817,177.7772,667.1815,166.24,651.5257,176.959" style="stroke:#181818;stroke-width:1.0;"/></g><!--link doctor to prescription--><g id="link_doctor_prescription"><path d="M1015.4957,83.863 C1069.8957,93.096 1201.6357,120.047 1296.4757,177 C1321.5357,192.048 1320.9857,204.328 1343.4757,223 C1369.9057,244.946 1386.9617,257.2335 1410.8417,272.9905 " fill="none" id="doctor-to-prescription" style="stroke:#181818;stroke-width:1.0;"/><polygon fill="none" points="1425.8657,282.904,1414.1462,267.9825,1407.5372,277.9985,1425.8657,282.904" style="stroke:#181818;stroke-width:1.0;"/></g><!--link doctor to treatmentPlan--><g id="link_doctor_treatmentPlan"><path d="M965.4407,86.544 C926.8897,97.997 853.5757,125.509 816.4757,177 C776.6437,232.283 753.8097,275.874 796.4757,329 C826.1117,365.902 921.2333,384.9861 1014.8123,396.5776 " fill="none" id="doctor-to-treatmentPlan" style="stroke:#181818;stroke-width:1.0;"/><polygon fill="none" points="1032.6757,398.7903,1015.5498,390.6231,1014.0747,402.5321,1032.6757,398.7903" style="stroke:#181818;stroke-width:1.0;"/></g><!--link doctor to treatmentProgress--><g id="link_doctor_treatmentProgress"><path d="M965.1057,89.047 C910.0017,110.061 787.8607,164.831 833.4757,223 C847.1547,240.443 939.691,261.7639 1029.825,279.5149 " fill="none" id="doctor-to-treatmentProgress" style="stroke:#181818;stroke-width:1.0;"/><polygon fill="none" points="1047.4857,282.993,1030.9843,273.628,1028.6656,285.4018,1047.4857,282.993" style="stroke:#181818;stroke-width:1.0;"/></g><!--link doctor to supplyContract--><g id="link_doctor_supplyContract"><path d="M1015.7657,82.483 C1074.8057,89.24 1224.6257,112.027 1329.4757,177 C1353.0057,191.582 1346.6557,210.736 1371.4757,223 C1516.0457,294.432 1976.1959,304.4224 2189.3459,305.2584 " fill="none" id="doctor-to-supplyContract" style="stroke:#181818;stroke-width:1.0;"/><polygon fill="none" points="2207.3457,305.329,2189.3694,299.2584,2189.3223,311.2584,2207.3457,305.329" style="stroke:#181818;stroke-width:1.0;"/></g><!--link manager to patientInfo--><g id="link_manager_patientInfo"><path d="M3277.9757,80.876 C3096.9757,86.209 2145.6157,116.127 1371.4757,177 C1341.6757,179.343 1327.4037,180.5846 1297.5837,183.7726 " fill="none" id="manager-to-patientInfo" style="stroke:#181818;stroke-width:1.0;"/><polygon fill="none" points="1279.6857,185.686,1298.2216,189.7386,1296.9459,177.8066,1279.6857,185.686" style="stroke:#181818;stroke-width:1.0;"/></g><!--link manager to invoice--><g id="link_manager_invoice"><path d="M3338.9957,84.679 C3424.1357,97.85 3671.4057,136.895 3875.4757,177 C3881.1757,178.12 3869.4363,175.6361 3875.3463,176.8711 " fill="none" id="manager-to-invoice" style="stroke:#181818;stroke-width:1.0;"/><polygon fill="none" points="3892.9657,180.553,3876.5736,170.998,3874.119,182.7442,3892.9657,180.553" style="stroke:#181818;stroke-width:1.0;"/></g><!--link manager to medicalRecords--><g id="link_manager_medicalRecords"><path d="M3280.4957,117 C3265.6357,136.65 3258.7236,145.7826 3246.0236,162.5746 " fill="none" id="manager-to-medicalRecords" style="stroke:#181818;stroke-width:1.0;"/><polygon fill="none" points="3235.1657,176.931,3250.8091,166.1939,3241.2382,158.9553,3235.1657,176.931" style="stroke:#181818;stroke-width:1.0;"/></g><!--link manager to terminateEmployee--><g id="link_manager_terminateEmployee"><path d="M3338.9957,81.771 C3466.9757,89.402 3972.8657,121.627 4385.4757,177 C4394.3957,178.197 4385.8825,176.7367 4395.1425,178.2207 " fill="none" id="manager-to-terminateEmployee" style="stroke:#181818;stroke-width:1.0;"/><polygon fill="none" points="4412.9157,181.069,4396.092,172.2963,4394.1931,184.1451,4412.9157,181.069" style="stroke:#181818;stroke-width:1.0;"/></g><!--link manager to financialTracking--><g id="link_manager_financialTracking"><path d="M3277.5557,85.74 C3190.0957,101.978 2955.1333,145.5964 2803.7933,173.6934 " fill="none" id="manager-to-financialTracking" style="stroke:#181818;stroke-width:1.0;"/><polygon fill="none" points="2786.0957,176.979,2804.8885,179.5926,2802.6981,167.7942,2786.0957,176.979" style="stroke:#181818;stroke-width:1.0;"/></g><!--link manager to financialReports--><g id="link_manager_financialReports"><path d="M3336.5457,117.154 C3372.1957,164.335 3421.7145,229.8755 3450.8745,268.4685 " fill="none" id="manager-to-financialReports" style="stroke:#181818;stroke-width:1.0;"/><polygon fill="none" points="3461.7257,282.83,3455.6617,264.8515,3446.0874,272.0856,3461.7257,282.83" style="stroke:#181818;stroke-width:1.0;"/></g><!--link manager to inventoryTracking--><g id="link_manager_inventoryTracking"><path d="M3277.6057,81.35 C3130.6857,87.961 2487.6157,118.965 1963.4757,177 C1957.7057,177.639 1969.6785,176.1174 1963.7285,176.8564 " fill="none" id="manager-to-inventoryTracking" style="stroke:#181818;stroke-width:1.0;"/><polygon fill="none" points="1945.8657,179.075,1964.468,182.8107,1962.989,170.9022,1945.8657,179.075" style="stroke:#181818;stroke-width:1.0;"/></g><!--link manager to inventoryManagement--><g id="link_manager_inventoryManagement"><path d="M3277.9557,80.81 C3113.5857,85.38 2317.0057,110.163 1669.4757,177 C1663.7557,177.591 1675.7911,176.1273 1669.8911,176.8253 " fill="none" id="manager-to-inventoryManagement" style="stroke:#181818;stroke-width:1.0;"/><polygon fill="none" points="1652.0157,178.94,1670.596,182.7837,1669.1862,170.8668,1652.0157,178.94" style="stroke:#181818;stroke-width:1.0;"/></g><!--link manager to equipmentStatus--><g id="link_manager_equipmentStatus"><path d="M3339.1857,110.076 C3381.7557,151.74 3453.7157,222.052 3455.4757,223 C3536.5457,266.57 3621.3712,284.7886 3698.9412,294.3606 " fill="none" id="manager-to-equipmentStatus" style="stroke:#181818;stroke-width:1.0;"/><polygon fill="none" points="3716.8057,296.565,3699.676,288.4057,3698.2064,300.3154,3716.8057,296.565" style="stroke:#181818;stroke-width:1.0;"/></g><!--link manager to maintenancePlan--><g id="link_manager_maintenancePlan"><path d="M3339.0957,80.774 C3501.6557,85.16 4258.9857,109.144 4335.4757,177 C4386.5857,222.342 4401.3357,275.788 4358.4757,329 C4330.2957,363.993 4245.7827,382.5085 4154.9727,394.4251 " fill="none" id="manager-to-maintenancePlan" style="stroke:#181818;stroke-width:1.0;"/><polygon fill="none" points="4137.1257,396.7671,4155.7534,400.3741,4154.1921,388.4761,4137.1257,396.7671" style="stroke:#181818;stroke-width:1.0;"/></g><!--link manager to advertising--><g id="link_manager_advertising"><path d="M3339.0157,93.767 C3384.2157,114.14 3452.9658,145.1301 3506.9858,169.4801 " fill="none" id="manager-to-advertising" style="stroke:#181818;stroke-width:1.0;"/><polygon fill="none" points="3523.3957,176.877,3509.4514,164.0101,3504.5202,174.9501,3523.3957,176.877" style="stroke:#181818;stroke-width:1.0;"/></g><!--link manager to voucher--><g id="link_manager_voucher"><path d="M3339.2157,87.716 C3412.8557,106.206 3583.6975,149.0961 3689.6575,175.6971 " fill="none" id="manager-to-voucher" style="stroke:#181818;stroke-width:1.0;"/><polygon fill="none" points="3707.1157,180.08,3691.1184,169.8777,3688.1965,181.5166,3707.1157,180.08" style="stroke:#181818;stroke-width:1.0;"/></g><!--link manager to feedback--><g id="link_manager_feedback"><path d="M3277.8657,80.582 C3041.0457,85.194 1497.9457,117.215 1035.4757,177 C1029.7757,177.736 1041.6789,175.6024 1035.7989,176.6064 " fill="none" id="manager-to-feedback" style="stroke:#181818;stroke-width:1.0;"/><polygon fill="none" points="1018.0557,179.636,1036.8088,182.5208,1034.7891,170.692,1018.0557,179.636" style="stroke:#181818;stroke-width:1.0;"/></g><!--link manager to serviceContract--><g id="link_manager_serviceContract"><path d="M3277.7057,89.738 C3217.8957,108.667 3101.7767,145.4165 3019.4267,171.4805 " fill="none" id="manager-to-serviceContract" style="stroke:#181818;stroke-width:1.0;"/><polygon fill="none" points="3002.2657,176.912,3021.2372,177.2008,3017.6162,165.7602,3002.2657,176.912" style="stroke:#181818;stroke-width:1.0;"/></g><!--link manager to potentialCustomer--><g id="link_manager_potentialCustomer"><path d="M3339.2157,80.542 C3501.4857,83.715 4253.6757,102.394 4321.4757,177 C4358.0857,217.282 4305.9187,251.0717 4251.8987,275.4827 " fill="none" id="manager-to-potentialCustomer" style="stroke:#181818;stroke-width:1.0;"/><polygon fill="none" points="4235.4957,282.895,4254.3695,280.9503,4249.4279,270.015,4235.4957,282.895" style="stroke:#181818;stroke-width:1.0;"/></g><!--link manager to clinicInfo--><g id="link_manager_clinicInfo"><path d="M3339.1557,83.339 C3442.7457,94.726 3788.9157,133.743 4073.4757,177 C4079.3157,177.887 4067.5281,175.9492 4073.5681,176.9292 " fill="none" id="manager-to-clinicInfo" style="stroke:#181818;stroke-width:1.0;"/><polygon fill="none" points="4091.3357,179.812,4074.529,171.0066,4072.6071,182.8517,4091.3357,179.812" style="stroke:#181818;stroke-width:1.0;"/></g><!--link manager to employeeInfo--><g id="link_manager_employeeInfo"><path d="M3277.8957,82.053 C3150.7657,90.745 2651.5857,126.403 2243.4757,177 C2237.8557,177.696 2249.9621,176.0237 2244.1721,176.8097 " fill="none" id="manager-to-employeeInfo" style="stroke:#181818;stroke-width:1.0;"/><polygon fill="none" points="2226.3357,179.231,2244.9792,182.7552,2243.365,170.8642,2226.3357,179.231" style="stroke:#181818;stroke-width:1.0;"/></g><!--link manager to employeeSchedule--><g id="link_manager_employeeSchedule"><path d="M3277.8757,83.458 C3173.0057,95.38 2818.4657,136.282 2526.4757,177 C2520.5457,177.827 2532.2888,176.1045 2526.1688,176.9935 " fill="none" id="manager-to-employeeSchedule" style="stroke:#181818;stroke-width:1.0;"/><polygon fill="none" points="2508.3557,179.581,2527.0313,182.9311,2525.3063,171.0558,2508.3557,179.581" style="stroke:#181818;stroke-width:1.0;"/></g><!--link clinicInfo to maintenancePlan--><g id="link_clinicInfo_maintenancePlan"><path d="M4092.2857,223.077 C4058.4557,235.284 4023.9457,254.101 4001.4757,283 C3977.7557,313.503 3975.8684,342.8589 3978.1384,370.6126 " fill="none" id="clinicInfo-to-maintenancePlan" style="stroke:#181818;stroke-width:1.0;"/><polygon fill="none" points="3979.6057,388.5527,3984.1184,370.1235,3972.1584,371.1017,3979.6057,388.5527" style="stroke:#181818;stroke-width:1.0;"/></g><!--link clinicInfo to equipmentStatus--><g id="link_clinicInfo_equipmentStatus"><path d="M4119.8557,223.056 C4057.7457,240.705 3988.3802,260.4148 3926.3002,278.0558 " fill="none" id="clinicInfo-to-equipmentStatus" style="stroke:#181818;stroke-width:1.0;"/><polygon fill="none" points="3908.9857,282.976,3927.9403,283.8273,3924.6602,272.2843,3908.9857,282.976" style="stroke:#181818;stroke-width:1.0;"/></g><!--link invoice to financialReports--><g id="link_invoice_financialReports"><path d="M3892.9157,219.225 C3887.0157,220.513 3881.1557,221.782 3875.4757,223 C3778.1057,243.874 3684.7234,263.1314 3604.8934,279.3964 " fill="none" id="invoice-to-financialReports" style="stroke:#181818;stroke-width:1.0;"/><polygon fill="none" points="3587.2557,282.99,3606.0912,285.2756,3603.6955,273.5172,3587.2557,282.99" style="stroke:#181818;stroke-width:1.0;"/></g><!--link appointmentReminder to appointment--><g id="link_appointmentReminder_appointment"><path d="M589.7447,223.056 C601.9637,240.705 608.77,250.5355 620.983,268.1765 " fill="none" id="appointmentReminder-to-appointment" style="stroke:#181818;stroke-width:1.0;"/><polygon fill="none" points="631.2287,282.976,625.9161,264.7613,616.0498,271.5918,631.2287,282.976" style="stroke:#181818;stroke-width:1.0;"/></g><!--link medicalRecords to printMedicalRecords--><g id="link_medicalRecords_printMedicalRecords"><path d="M3218.4757,223.056 C3218.4757,240.705 3218.4757,247.335 3218.4757,264.976 " fill="none" id="medicalRecords-to-printMedicalRecords" style="stroke:#181818;stroke-width:1.0;"/><polygon fill="none" points="3218.4757,282.976,3224.4757,264.976,3212.4757,264.976,3218.4757,282.976" style="stroke:#181818;stroke-width:1.0;"/></g><!--link appointment to treatmentPlan--><g id="link_appointment_treatmentPlan"><path d="M741.1267,325.894 C830.1657,343.667 945.803,366.7506 1039.594,385.4731 " fill="none" id="appointment-to-treatmentPlan" style="stroke:#181818;stroke-width:1.0;"/><polygon fill="none" points="1057.2457,388.9967,1040.7685,379.5892,1038.4194,391.357,1057.2457,388.9967" style="stroke:#181818;stroke-width:1.0;"/></g><!--link treatmentProgress to treatmentPlan--><g id="link_treatmentProgress_treatmentPlan"><path d="M1167.4757,329.056 C1167.4757,346.705 1167.4757,353.3353 1167.4757,370.9761 " fill="none" id="treatmentProgress-to-treatmentPlan" style="stroke:#181818;stroke-width:1.0;"/><polygon fill="none" points="1167.4757,388.9761,1173.4757,370.9761,1161.4757,370.9761,1167.4757,388.9761" style="stroke:#181818;stroke-width:1.0;"/></g><!--link clinicInfo to treatmentPlan--><g id="link_clinicInfo_treatmentPlan"><path d="M4091.2957,219.957 C4085.2657,220.996 4079.2957,222.017 4073.4757,223 C3907.4757,251.039 3860.0557,232.446 3699.4757,283 C3654.7257,297.087 3650.0157,317.745 3604.4757,329 C3381.2057,384.179 1798.9048,404.5796 1320.3248,409.5418 " fill="none" id="clinicInfo-to-treatmentPlan" style="stroke:#181818;stroke-width:1.0;"/><polygon fill="none" points="1302.3257,409.7284,1320.387,415.5415,1320.2626,403.5421,1302.3257,409.7284" style="stroke:#181818;stroke-width:1.0;"/></g><!--link patientInfo to medicalHistory--><g id="link_patientInfo_medicalHistory"><path d="M1111.5457,223.056 C1067.5957,240.705 1022.9594,258.6276 979.0274,276.2686 " fill="none" id="patientInfo-to-medicalHistory" style="stroke:#181818;stroke-width:1.0;"/><polygon fill="none" points="962.3237,282.976,981.2631,281.8365,976.7916,270.7007,962.3237,282.976" style="stroke:#181818;stroke-width:1.0;"/></g><!--link patientInfo to prescription--><g id="link_patientInfo_prescription"><path d="M1228.8257,223.056 C1278.7157,240.705 1331.3762,259.3322 1381.2462,276.9732 " fill="none" id="patientInfo-to-prescription" style="stroke:#181818;stroke-width:1.0;"/><polygon fill="none" points="1398.2157,282.976,1383.2471,271.3167,1379.2452,282.6297,1398.2157,282.976" style="stroke:#181818;stroke-width:1.0;"/></g><!--link patientInfo to treatmentPlan--><g id="link_patientInfo_treatmentPlan"><path d="M1240.0657,223.137 C1268.8457,235.795 1298.8757,254.913 1315.4757,283 C1325.8757,300.6 1325.8557,311.385 1315.4757,329 C1298.9257,357.093 1285.3709,368.9667 1256.6709,381.6445 " fill="none" id="patientInfo-to-treatmentPlan" style="stroke:#181818;stroke-width:1.0;"/><polygon fill="none" points="1240.2057,388.9177,1259.0953,387.1329,1254.2464,376.1561,1240.2057,388.9177" style="stroke:#181818;stroke-width:1.0;"/></g><!--link patientInfo to treatmentProgress--><g id="link_patientInfo_treatmentProgress"><path d="M1166.6857,223.056 C1166.8557,240.705 1166.9223,247.3358 1167.0923,264.9768 " fill="none" id="patientInfo-to-treatmentProgress" style="stroke:#181818;stroke-width:1.0;"/><polygon fill="none" points="1167.2657,282.976,1173.092,264.919,1161.0926,265.0347,1167.2657,282.976" style="stroke:#181818;stroke-width:1.0;"/></g><!--link clinicInfo to potentialCustomer--><g id="link_clinicInfo_potentialCustomer"><path d="M4193.6557,223.056 C4190.6057,240.705 4189.4221,247.5998 4186.3621,265.2408 " fill="none" id="clinicInfo-to-potentialCustomer" style="stroke:#181818;stroke-width:1.0;"/><polygon fill="none" points="4183.2857,282.976,4192.2738,266.2663,4180.4503,264.2154,4183.2857,282.976" style="stroke:#181818;stroke-width:1.0;"/></g><!--link serviceContract to supplyContract--><g id="link_serviceContract_supplyContract"><path d="M2826.1557,220.111 C2820.5157,221.096 2814.9257,222.064 2809.4757,223 C2673.4657,246.361 2534.0753,269.1443 2433.2853,285.4273 " fill="none" id="serviceContract-to-supplyContract" style="stroke:#181818;stroke-width:1.0;"/><polygon fill="none" points="2415.5157,288.298,2434.2422,291.3505,2432.3284,279.5041,2415.5157,288.298" style="stroke:#181818;stroke-width:1.0;"/></g><!--link equipmentStatus to maintenancePlan--><g id="link_equipmentStatus_maintenancePlan"><path d="M3863.4957,329.056 C3889.1257,346.705 3910.0621,361.1245 3935.6721,378.7653 " fill="none" id="equipmentStatus-to-maintenancePlan" style="stroke:#181818;stroke-width:1.0;"/><polygon fill="none" points="3950.4957,388.9761,3939.0758,373.8241,3932.2685,383.7064,3950.4957,388.9761" style="stroke:#181818;stroke-width:1.0;"/></g><!--SRC=[VLNBRXCn5DtdAzoiOD5VG2ffIYiH52Mb6yJ2zToc5ZFsO7jI8k3VkNx5Zt6GHidCEUVQr_VbgmvUk02oMwyURxvy-hmchATQBnPNWPWqCAhF_ucWp4ZbVnF8XG7rGbdsbiYHiX_qSFvF18XfS3-BHTGixu7svfLH1MH31K8324Fs9srWM9BV2qA-FO8QkA06o7eOUta2-4we9YR24RNQ3MXD3rmSo3EODm11RgK_WEZ8bXgEgsjdFaIbDLljljv6cZo85wa6_932AKUFMzXgFu40PRrv44V9cNU6-_VpMZVZA34qmtaxcW0hUkBmHZRGSKPxSiyrkdWARZaiGEVruXbdpa4WedS-Y4c_Pw_GJJteGXrH5rw5kI0xE69cmCLf_Mi4eOC9PeuAncdlT35U2cm4xYA7vgDKfh88e3N0ME79yKHkW_qqZls9n1LZ1BqYtoUS9baZAJGM8nvVbsQfUgpX7d2RB0de81PB1sgMZKYaCb2WcU9ZscFC4BSuxkSZ5VoBYTm1awhJUI83PCss2hTiQaVBR6O66ocuhTtrpucFlYyCDLD8PGGzbcKboJVKjgVD1f1jJyDnXeHQCDLiTmHbk8QiQWEKjycJdB1wGY2F_iE7N1sn1SWTGFUCAVIr43uozsARFTfFvsPopKGiEkQBivHYXkG1KrAR1FJiQ7He9ON1PSAHj4SZcDI-9Ykn0sVQhSJu6LltgmdxTC1ea7SV9mmJxW_wlKzg54NDsNpLSy7Ph9MPWrqZBr3h1-_IbvXQ-iovzqJwuUQuphqcAeHvcKqmjsnu9zVNVpuKGx0YgZ5Ki5bM_ROUBWTbpkJxv7Wv5NEcDGwQVD7t5zREUhpmj-nhJpcchiCcbUejNtHMCY5ff1MZaakNICJpNAJ1KB2jQx0Gj0PuMv3cTS6tKj4M5Bae9FDfLHvnDf8AkXn31PK6K7ccLA45Fk_-WcxrR278UhG-ONaHDxdisiKdhNKf2BLY7iLGCXSJsMY2LkUL9HQxetKfPNQasIgp_cZBwgFLV1evMO0k3AMag3fwnjUx_4UGkhjsjLKaLLrT60NuL2cyb7dx_Fq7]--></g></svg>