<?xml version="1.0" encoding="us-ascii" standalone="no"?><svg xmlns="http://www.w3.org/2000/svg" xmlns:xlink="http://www.w3.org/1999/xlink" contentStyleType="text/css" height="458px" preserveAspectRatio="none" style="width:5623px;height:458px;background:#FFFFFF;" version="1.1" viewBox="0 0 5623 458" width="5623px" zoomAndPan="magnify"><defs/><g><!--cluster Healthcare Management System--><g id="cluster_Healthcare Management System"><path d="M8.5,6 L272.5,6 A3.75,3.75 0 0 1 275,8.5 L282,28.2969 L5613.5,28.2969 A2.5,2.5 0 0 1 5616,30.7969 L5616,448.5 A2.5,2.5 0 0 1 5613.5,451 L8.5,451 A2.5,2.5 0 0 1 6,448.5 L6,8.5 A2.5,2.5 0 0 1 8.5,6 " fill="none" style="stroke:#000000;stroke-width:1.5;"/><line style="stroke:#000000;stroke-width:1.5;" x1="6" x2="282" y1="28.2969" y2="28.2969"/><text fill="#000000" font-family="sans-serif" font-size="14" font-weight="bold" lengthAdjust="spacing" textLength="263" x="10" y="20.9951">Healthcare Management System</text></g><!--entity login--><g id="elem_login"><rect fill="#F1F1F1" height="46.2969" rx="2.5" ry="2.5" style="stroke:#181818;stroke-width:0.5;" width="79" x="5290.5" y="177"/><rect fill="#F1F1F1" height="10" style="stroke:#181818;stroke-width:0.5;" width="15" x="5349.5" y="182"/><rect fill="#F1F1F1" height="2" style="stroke:#181818;stroke-width:0.5;" width="4" x="5347.5" y="184"/><rect fill="#F1F1F1" height="2" style="stroke:#181818;stroke-width:0.5;" width="4" x="5347.5" y="188"/><text fill="#000000" font-family="sans-serif" font-size="14" lengthAdjust="spacing" textLength="39" x="5305.5" y="209.9951">Login</text></g><!--entity register--><g id="elem_register"><rect fill="#F1F1F1" height="46.2969" rx="2.5" ry="2.5" style="stroke:#181818;stroke-width:0.5;" width="101" x="4960.5" y="177"/><rect fill="#F1F1F1" height="10" style="stroke:#181818;stroke-width:0.5;" width="15" x="5041.5" y="182"/><rect fill="#F1F1F1" height="2" style="stroke:#181818;stroke-width:0.5;" width="4" x="5039.5" y="184"/><rect fill="#F1F1F1" height="2" style="stroke:#181818;stroke-width:0.5;" width="4" x="5039.5" y="188"/><text fill="#000000" font-family="sans-serif" font-size="14" lengthAdjust="spacing" textLength="61" x="4975.5" y="209.9951">Register</text></g><!--entity encrypt--><g id="elem_encrypt"><rect fill="#F1F1F1" height="46.2969" rx="2.5" ry="2.5" style="stroke:#181818;stroke-width:0.5;" width="157" x="5442.5" y="56"/><rect fill="#F1F1F1" height="10" style="stroke:#181818;stroke-width:0.5;" width="15" x="5579.5" y="61"/><rect fill="#F1F1F1" height="2" style="stroke:#181818;stroke-width:0.5;" width="4" x="5577.5" y="63"/><rect fill="#F1F1F1" height="2" style="stroke:#181818;stroke-width:0.5;" width="4" x="5577.5" y="67"/><text fill="#000000" font-family="sans-serif" font-size="14" lengthAdjust="spacing" textLength="117" x="5457.5" y="88.9951">Data Encryption</text></g><!--entity forgotPassword--><g id="elem_forgotPassword"><rect fill="#F1F1F1" height="46.2969" rx="2.5" ry="2.5" style="stroke:#181818;stroke-width:0.5;" width="158" x="5097" y="177"/><rect fill="#F1F1F1" height="10" style="stroke:#181818;stroke-width:0.5;" width="15" x="5235" y="182"/><rect fill="#F1F1F1" height="2" style="stroke:#181818;stroke-width:0.5;" width="4" x="5233" y="184"/><rect fill="#F1F1F1" height="2" style="stroke:#181818;stroke-width:0.5;" width="4" x="5233" y="188"/><text fill="#000000" font-family="sans-serif" font-size="14" lengthAdjust="spacing" textLength="118" x="5112" y="209.9951">Forgot Password</text></g><!--entity calculateSalary--><g id="elem_calculateSalary"><rect fill="#F1F1F1" height="46.2969" rx="2.5" ry="2.5" style="stroke:#181818;stroke-width:0.5;" width="153" x="4734.5" y="177"/><rect fill="#F1F1F1" height="10" style="stroke:#181818;stroke-width:0.5;" width="15" x="4867.5" y="182"/><rect fill="#F1F1F1" height="2" style="stroke:#181818;stroke-width:0.5;" width="4" x="4865.5" y="184"/><rect fill="#F1F1F1" height="2" style="stroke:#181818;stroke-width:0.5;" width="4" x="4865.5" y="188"/><text fill="#000000" font-family="sans-serif" font-size="14" lengthAdjust="spacing" textLength="113" x="4749.5" y="209.9951">Calculate Salary</text></g><!--entity terminateEmployee--><g id="elem_terminateEmployee"><rect fill="#F1F1F1" height="46.2969" rx="2.5" ry="2.5" style="stroke:#181818;stroke-width:0.5;" width="191" x="3015.5" y="177"/><rect fill="#F1F1F1" height="10" style="stroke:#181818;stroke-width:0.5;" width="15" x="3186.5" y="182"/><rect fill="#F1F1F1" height="2" style="stroke:#181818;stroke-width:0.5;" width="4" x="3184.5" y="184"/><rect fill="#F1F1F1" height="2" style="stroke:#181818;stroke-width:0.5;" width="4" x="3184.5" y="188"/><text fill="#000000" font-family="sans-serif" font-size="14" lengthAdjust="spacing" textLength="151" x="3030.5" y="209.9951">Terminate Employee</text></g><!--entity messaging--><g id="elem_messaging"><rect fill="#F1F1F1" height="46.2969" rx="2.5" ry="2.5" style="stroke:#181818;stroke-width:0.5;" width="316" x="4383" y="177"/><rect fill="#F1F1F1" height="10" style="stroke:#181818;stroke-width:0.5;" width="15" x="4679" y="182"/><rect fill="#F1F1F1" height="2" style="stroke:#181818;stroke-width:0.5;" width="4" x="4677" y="184"/><rect fill="#F1F1F1" height="2" style="stroke:#181818;stroke-width:0.5;" width="4" x="4677" y="188"/><text fill="#000000" font-family="sans-serif" font-size="14" lengthAdjust="spacing" textLength="276" x="4398" y="209.9951">Messaging between Staff and Patients</text></g><!--entity patientInfo--><g id="elem_patientInfo"><rect fill="#F1F1F1" height="46.2969" rx="2.5" ry="2.5" style="stroke:#181818;stroke-width:0.5;" width="226" x="3927" y="56"/><rect fill="#F1F1F1" height="10" style="stroke:#181818;stroke-width:0.5;" width="15" x="4133" y="61"/><rect fill="#F1F1F1" height="2" style="stroke:#181818;stroke-width:0.5;" width="4" x="4131" y="63"/><rect fill="#F1F1F1" height="2" style="stroke:#181818;stroke-width:0.5;" width="4" x="4131" y="67"/><text fill="#000000" font-family="sans-serif" font-size="14" lengthAdjust="spacing" textLength="186" x="3942" y="88.9951">CRUD Patient Information</text></g><!--entity payment--><g id="elem_payment"><rect fill="#F1F1F1" height="46.2969" rx="2.5" ry="2.5" style="stroke:#181818;stroke-width:0.5;" width="104" x="4979" y="56"/><rect fill="#F1F1F1" height="10" style="stroke:#181818;stroke-width:0.5;" width="15" x="5063" y="61"/><rect fill="#F1F1F1" height="2" style="stroke:#181818;stroke-width:0.5;" width="4" x="5061" y="63"/><rect fill="#F1F1F1" height="2" style="stroke:#181818;stroke-width:0.5;" width="4" x="5061" y="67"/><text fill="#000000" font-family="sans-serif" font-size="14" lengthAdjust="spacing" textLength="64" x="4994" y="88.9951">Payment</text></g><!--entity invoice--><g id="elem_invoice"><rect fill="#F1F1F1" height="46.2969" rx="2.5" ry="2.5" style="stroke:#181818;stroke-width:0.5;" width="163" x="2142.5" y="56"/><rect fill="#F1F1F1" height="10" style="stroke:#181818;stroke-width:0.5;" width="15" x="2285.5" y="61"/><rect fill="#F1F1F1" height="2" style="stroke:#181818;stroke-width:0.5;" width="4" x="2283.5" y="63"/><rect fill="#F1F1F1" height="2" style="stroke:#181818;stroke-width:0.5;" width="4" x="2283.5" y="67"/><text fill="#000000" font-family="sans-serif" font-size="14" lengthAdjust="spacing" textLength="123" x="2157.5" y="88.9951">Generate Invoice</text></g><!--entity appointment--><g id="elem_appointment"><rect fill="#F1F1F1" height="46.2969" rx="2.5" ry="2.5" style="stroke:#181818;stroke-width:0.5;" width="189" x="3332.5" y="283"/><rect fill="#F1F1F1" height="10" style="stroke:#181818;stroke-width:0.5;" width="15" x="3501.5" y="288"/><rect fill="#F1F1F1" height="2" style="stroke:#181818;stroke-width:0.5;" width="4" x="3499.5" y="290"/><rect fill="#F1F1F1" height="2" style="stroke:#181818;stroke-width:0.5;" width="4" x="3499.5" y="294"/><text fill="#000000" font-family="sans-serif" font-size="14" lengthAdjust="spacing" textLength="149" x="3347.5" y="315.9951">CRUD Appointments</text></g><!--entity medicalHistory--><g id="elem_medicalHistory"><rect fill="#F1F1F1" height="46.2969" rx="2.5" ry="2.5" style="stroke:#181818;stroke-width:0.5;" width="187" x="4160.5" y="177"/><rect fill="#F1F1F1" height="10" style="stroke:#181818;stroke-width:0.5;" width="15" x="4327.5" y="182"/><rect fill="#F1F1F1" height="2" style="stroke:#181818;stroke-width:0.5;" width="4" x="4325.5" y="184"/><rect fill="#F1F1F1" height="2" style="stroke:#181818;stroke-width:0.5;" width="4" x="4325.5" y="188"/><text fill="#000000" font-family="sans-serif" font-size="14" lengthAdjust="spacing" textLength="147" x="4175.5" y="209.9951">View Medical History</text></g><!--entity employeeInfo--><g id="elem_employeeInfo"><rect fill="#F1F1F1" height="46.2969" rx="2.5" ry="2.5" style="stroke:#181818;stroke-width:0.5;" width="245" x="22.5" y="177"/><rect fill="#F1F1F1" height="10" style="stroke:#181818;stroke-width:0.5;" width="15" x="247.5" y="182"/><rect fill="#F1F1F1" height="2" style="stroke:#181818;stroke-width:0.5;" width="4" x="245.5" y="184"/><rect fill="#F1F1F1" height="2" style="stroke:#181818;stroke-width:0.5;" width="4" x="245.5" y="188"/><text fill="#000000" font-family="sans-serif" font-size="14" lengthAdjust="spacing" textLength="205" x="37.5" y="209.9951">CRUD Employee Information</text></g><!--entity employeeSchedule--><g id="elem_employeeSchedule"><rect fill="#F1F1F1" height="46.2969" rx="2.5" ry="2.5" style="stroke:#181818;stroke-width:0.5;" width="247" x="1549.5" y="177"/><rect fill="#F1F1F1" height="10" style="stroke:#181818;stroke-width:0.5;" width="15" x="1776.5" y="182"/><rect fill="#F1F1F1" height="2" style="stroke:#181818;stroke-width:0.5;" width="4" x="1774.5" y="184"/><rect fill="#F1F1F1" height="2" style="stroke:#181818;stroke-width:0.5;" width="4" x="1774.5" y="188"/><text fill="#000000" font-family="sans-serif" font-size="14" lengthAdjust="spacing" textLength="207" x="1564.5" y="209.9951">Manage Employee Schedules</text></g><!--entity financialTracking--><g id="elem_financialTracking"><rect fill="#F1F1F1" height="46.2969" rx="2.5" ry="2.5" style="stroke:#181818;stroke-width:0.5;" width="248" x="1832" y="177"/><rect fill="#F1F1F1" height="10" style="stroke:#181818;stroke-width:0.5;" width="15" x="2060" y="182"/><rect fill="#F1F1F1" height="2" style="stroke:#181818;stroke-width:0.5;" width="4" x="2058" y="184"/><rect fill="#F1F1F1" height="2" style="stroke:#181818;stroke-width:0.5;" width="4" x="2058" y="188"/><text fill="#000000" font-family="sans-serif" font-size="14" lengthAdjust="spacing" textLength="208" x="1847" y="209.9951">Track Revenue and Expenses</text></g><!--entity financialReports--><g id="elem_financialReports"><rect fill="#F1F1F1" height="46.2969" rx="2.5" ry="2.5" style="stroke:#181818;stroke-width:0.5;" width="217" x="2115.5" y="177"/><rect fill="#F1F1F1" height="10" style="stroke:#181818;stroke-width:0.5;" width="15" x="2312.5" y="182"/><rect fill="#F1F1F1" height="2" style="stroke:#181818;stroke-width:0.5;" width="4" x="2310.5" y="184"/><rect fill="#F1F1F1" height="2" style="stroke:#181818;stroke-width:0.5;" width="4" x="2310.5" y="188"/><text fill="#000000" font-family="sans-serif" font-size="14" lengthAdjust="spacing" textLength="177" x="2130.5" y="209.9951">Create Financial Reports</text></g><!--entity inventoryTracking--><g id="elem_inventoryTracking"><rect fill="#F1F1F1" height="46.2969" rx="2.5" ry="2.5" style="stroke:#181818;stroke-width:0.5;" width="258" x="2386" y="177"/><rect fill="#F1F1F1" height="10" style="stroke:#181818;stroke-width:0.5;" width="15" x="2624" y="182"/><rect fill="#F1F1F1" height="2" style="stroke:#181818;stroke-width:0.5;" width="4" x="2622" y="184"/><rect fill="#F1F1F1" height="2" style="stroke:#181818;stroke-width:0.5;" width="4" x="2622" y="188"/><text fill="#000000" font-family="sans-serif" font-size="14" lengthAdjust="spacing" textLength="218" x="2401" y="209.9951">Inventory and Supply Tracking</text></g><!--entity inventoryManagement--><g id="elem_inventoryManagement"><rect fill="#F1F1F1" height="46.2969" rx="2.5" ry="2.5" style="stroke:#181818;stroke-width:0.5;" width="263" x="2679.5" y="177"/><rect fill="#F1F1F1" height="10" style="stroke:#181818;stroke-width:0.5;" width="15" x="2922.5" y="182"/><rect fill="#F1F1F1" height="2" style="stroke:#181818;stroke-width:0.5;" width="4" x="2920.5" y="184"/><rect fill="#F1F1F1" height="2" style="stroke:#181818;stroke-width:0.5;" width="4" x="2920.5" y="188"/><text fill="#000000" font-family="sans-serif" font-size="14" lengthAdjust="spacing" textLength="223" x="2694.5" y="209.9951">Manage Inventory Transactions</text></g><!--entity appointmentReminder--><g id="elem_appointmentReminder"><rect fill="#F1F1F1" height="46.2969" rx="2.5" ry="2.5" style="stroke:#181818;stroke-width:0.5;" width="259" x="3279.5" y="177"/><rect fill="#F1F1F1" height="10" style="stroke:#181818;stroke-width:0.5;" width="15" x="3518.5" y="182"/><rect fill="#F1F1F1" height="2" style="stroke:#181818;stroke-width:0.5;" width="4" x="3516.5" y="184"/><rect fill="#F1F1F1" height="2" style="stroke:#181818;stroke-width:0.5;" width="4" x="3516.5" y="188"/><text fill="#000000" font-family="sans-serif" font-size="14" lengthAdjust="spacing" textLength="219" x="3294.5" y="209.9951">Send Appointment Reminders</text></g><!--entity prescription--><g id="elem_prescription"><rect fill="#F1F1F1" height="46.2969" rx="2.5" ry="2.5" style="stroke:#181818;stroke-width:0.5;" width="179" x="3611.5" y="177"/><rect fill="#F1F1F1" height="10" style="stroke:#181818;stroke-width:0.5;" width="15" x="3770.5" y="182"/><rect fill="#F1F1F1" height="2" style="stroke:#181818;stroke-width:0.5;" width="4" x="3768.5" y="184"/><rect fill="#F1F1F1" height="2" style="stroke:#181818;stroke-width:0.5;" width="4" x="3768.5" y="188"/><text fill="#000000" font-family="sans-serif" font-size="14" lengthAdjust="spacing" textLength="139" x="3626.5" y="209.9951">CRUD Prescriptions</text></g><!--entity medicalRecords--><g id="elem_medicalRecords"><rect fill="#F1F1F1" height="46.2969" rx="2.5" ry="2.5" style="stroke:#181818;stroke-width:0.5;" width="289" x="5118.5" y="56"/><rect fill="#F1F1F1" height="10" style="stroke:#181818;stroke-width:0.5;" width="15" x="5387.5" y="61"/><rect fill="#F1F1F1" height="2" style="stroke:#181818;stroke-width:0.5;" width="4" x="5385.5" y="63"/><rect fill="#F1F1F1" height="2" style="stroke:#181818;stroke-width:0.5;" width="4" x="5385.5" y="67"/><text fill="#000000" font-family="sans-serif" font-size="14" lengthAdjust="spacing" textLength="249" x="5133.5" y="88.9951">Store and Manage Medical Records</text></g><!--entity printMedicalRecords--><g id="elem_printMedicalRecords"><rect fill="#F1F1F1" height="46.2969" rx="2.5" ry="2.5" style="stroke:#181818;stroke-width:0.5;" width="195" x="5404.5" y="177"/><rect fill="#F1F1F1" height="10" style="stroke:#181818;stroke-width:0.5;" width="15" x="5579.5" y="182"/><rect fill="#F1F1F1" height="2" style="stroke:#181818;stroke-width:0.5;" width="4" x="5577.5" y="184"/><rect fill="#F1F1F1" height="2" style="stroke:#181818;stroke-width:0.5;" width="4" x="5577.5" y="188"/><text fill="#000000" font-family="sans-serif" font-size="14" lengthAdjust="spacing" textLength="155" x="5419.5" y="209.9951">Print Medical Records</text></g><!--entity equipmentStatus--><g id="elem_equipmentStatus"><rect fill="#F1F1F1" height="46.2969" rx="2.5" ry="2.5" style="stroke:#181818;stroke-width:0.5;" width="229" x="145.5" y="283"/><rect fill="#F1F1F1" height="10" style="stroke:#181818;stroke-width:0.5;" width="15" x="354.5" y="288"/><rect fill="#F1F1F1" height="2" style="stroke:#181818;stroke-width:0.5;" width="4" x="352.5" y="290"/><rect fill="#F1F1F1" height="2" style="stroke:#181818;stroke-width:0.5;" width="4" x="352.5" y="294"/><text fill="#000000" font-family="sans-serif" font-size="14" lengthAdjust="spacing" textLength="189" x="160.5" y="315.9951">Monitor Equipment Status</text></g><!--entity maintenancePlan--><g id="elem_maintenancePlan"><rect fill="#F1F1F1" height="46.2969" rx="2.5" ry="2.5" style="stroke:#181818;stroke-width:0.5;" width="309" x="686.5" y="389"/><rect fill="#F1F1F1" height="10" style="stroke:#181818;stroke-width:0.5;" width="15" x="975.5" y="394"/><rect fill="#F1F1F1" height="2" style="stroke:#181818;stroke-width:0.5;" width="4" x="973.5" y="396"/><rect fill="#F1F1F1" height="2" style="stroke:#181818;stroke-width:0.5;" width="4" x="973.5" y="400"/><text fill="#000000" font-family="sans-serif" font-size="14" lengthAdjust="spacing" textLength="269" x="701.5" y="421.9951">Create Equipment Maintenance Plans</text></g><!--entity advertising--><g id="elem_advertising"><rect fill="#F1F1F1" height="46.2969" rx="2.5" ry="2.5" style="stroke:#181818;stroke-width:0.5;" width="199" x="642.5" y="177"/><rect fill="#F1F1F1" height="10" style="stroke:#181818;stroke-width:0.5;" width="15" x="821.5" y="182"/><rect fill="#F1F1F1" height="2" style="stroke:#181818;stroke-width:0.5;" width="4" x="819.5" y="184"/><rect fill="#F1F1F1" height="2" style="stroke:#181818;stroke-width:0.5;" width="4" x="819.5" y="188"/><text fill="#000000" font-family="sans-serif" font-size="14" lengthAdjust="spacing" textLength="159" x="657.5" y="209.9951">CRUD Advertisements</text></g><!--entity voucher--><g id="elem_voucher"><rect fill="#F1F1F1" height="46.2969" rx="2.5" ry="2.5" style="stroke:#181818;stroke-width:0.5;" width="150" x="914" y="177"/><rect fill="#F1F1F1" height="10" style="stroke:#181818;stroke-width:0.5;" width="15" x="1044" y="182"/><rect fill="#F1F1F1" height="2" style="stroke:#181818;stroke-width:0.5;" width="4" x="1042" y="184"/><rect fill="#F1F1F1" height="2" style="stroke:#181818;stroke-width:0.5;" width="4" x="1042" y="188"/><text fill="#000000" font-family="sans-serif" font-size="14" lengthAdjust="spacing" textLength="110" x="929" y="209.9951">CRUD Vouchers</text></g><!--entity feedback--><g id="elem_feedback"><rect fill="#F1F1F1" height="46.2969" rx="2.5" ry="2.5" style="stroke:#181818;stroke-width:0.5;" width="167" x="1099.5" y="177"/><rect fill="#F1F1F1" height="10" style="stroke:#181818;stroke-width:0.5;" width="15" x="1246.5" y="182"/><rect fill="#F1F1F1" height="2" style="stroke:#181818;stroke-width:0.5;" width="4" x="1244.5" y="184"/><rect fill="#F1F1F1" height="2" style="stroke:#181818;stroke-width:0.5;" width="4" x="1244.5" y="188"/><text fill="#000000" font-family="sans-serif" font-size="14" lengthAdjust="spacing" textLength="127" x="1114.5" y="209.9951">Service Feedback</text></g><!--entity treatmentPlan--><g id="elem_treatmentPlan"><rect fill="#F1F1F1" height="46.2969" rx="2.5" ry="2.5" style="stroke:#181818;stroke-width:0.5;" width="269" x="3440.5" y="389"/><rect fill="#F1F1F1" height="10" style="stroke:#181818;stroke-width:0.5;" width="15" x="3689.5" y="394"/><rect fill="#F1F1F1" height="2" style="stroke:#181818;stroke-width:0.5;" width="4" x="3687.5" y="396"/><rect fill="#F1F1F1" height="2" style="stroke:#181818;stroke-width:0.5;" width="4" x="3687.5" y="400"/><text fill="#000000" font-family="sans-serif" font-size="14" lengthAdjust="spacing" textLength="229" x="3455.5" y="421.9951">Create Patient Treatment Plans</text></g><!--entity treatmentProgress--><g id="elem_treatmentProgress"><rect fill="#F1F1F1" height="46.2969" rx="2.5" ry="2.5" style="stroke:#181818;stroke-width:0.5;" width="262" x="3826" y="177"/><rect fill="#F1F1F1" height="10" style="stroke:#181818;stroke-width:0.5;" width="15" x="4068" y="182"/><rect fill="#F1F1F1" height="2" style="stroke:#181818;stroke-width:0.5;" width="4" x="4066" y="184"/><rect fill="#F1F1F1" height="2" style="stroke:#181818;stroke-width:0.5;" width="4" x="4066" y="188"/><text fill="#000000" font-family="sans-serif" font-size="14" lengthAdjust="spacing" textLength="222" x="3841" y="209.9951">Track Treatment Plan Progress</text></g><!--entity serviceContract--><g id="elem_serviceContract"><rect fill="#F1F1F1" height="46.2969" rx="2.5" ry="2.5" style="stroke:#181818;stroke-width:0.5;" width="212" x="1302" y="177"/><rect fill="#F1F1F1" height="10" style="stroke:#181818;stroke-width:0.5;" width="15" x="1494" y="182"/><rect fill="#F1F1F1" height="2" style="stroke:#181818;stroke-width:0.5;" width="4" x="1492" y="184"/><rect fill="#F1F1F1" height="2" style="stroke:#181818;stroke-width:0.5;" width="4" x="1492" y="188"/><text fill="#000000" font-family="sans-serif" font-size="14" lengthAdjust="spacing" textLength="172" x="1317" y="209.9951">CRUD Service Contracts</text></g><!--entity supplyContract--><g id="elem_supplyContract"><rect fill="#F1F1F1" height="46.2969" rx="2.5" ry="2.5" style="stroke:#181818;stroke-width:0.5;" width="208" x="2089" y="283"/><rect fill="#F1F1F1" height="10" style="stroke:#181818;stroke-width:0.5;" width="15" x="2277" y="288"/><rect fill="#F1F1F1" height="2" style="stroke:#181818;stroke-width:0.5;" width="4" x="2275" y="290"/><rect fill="#F1F1F1" height="2" style="stroke:#181818;stroke-width:0.5;" width="4" x="2275" y="294"/><text fill="#000000" font-family="sans-serif" font-size="14" lengthAdjust="spacing" textLength="168" x="2104" y="315.9951">CRUD Supply Contracts</text></g><!--entity potentialCustomer--><g id="elem_potentialCustomer"><rect fill="#F1F1F1" height="46.2969" rx="2.5" ry="2.5" style="stroke:#181818;stroke-width:0.5;" width="322" x="428" y="283"/><rect fill="#F1F1F1" height="10" style="stroke:#181818;stroke-width:0.5;" width="15" x="730" y="288"/><rect fill="#F1F1F1" height="2" style="stroke:#181818;stroke-width:0.5;" width="4" x="728" y="290"/><rect fill="#F1F1F1" height="2" style="stroke:#181818;stroke-width:0.5;" width="4" x="728" y="294"/><text fill="#000000" font-family="sans-serif" font-size="14" lengthAdjust="spacing" textLength="282" x="443" y="315.9951">CRUD Potential Customers (Businesses)</text></g><!--entity clinicInfo--><g id="elem_clinicInfo"><rect fill="#F1F1F1" height="46.2969" rx="2.5" ry="2.5" style="stroke:#181818;stroke-width:0.5;" width="212" x="377" y="177"/><rect fill="#F1F1F1" height="10" style="stroke:#181818;stroke-width:0.5;" width="15" x="569" y="182"/><rect fill="#F1F1F1" height="2" style="stroke:#181818;stroke-width:0.5;" width="4" x="567" y="184"/><rect fill="#F1F1F1" height="2" style="stroke:#181818;stroke-width:0.5;" width="4" x="567" y="188"/><text fill="#000000" font-family="sans-serif" font-size="14" lengthAdjust="spacing" textLength="172" x="392" y="209.9951">CRUD Clinic Information</text></g><!--entity user--><g id="elem_user"><ellipse cx="4928" cy="49.5" fill="#F1F1F1" rx="8" ry="8" style="stroke:#181818;stroke-width:0.5;"/><path d="M4928,57.5 L4928,84.5 M4915,65.5 L4941,65.5 M4928,84.5 L4915,99.5 M4928,84.5 L4941,99.5 " fill="none" style="stroke:#181818;stroke-width:0.5;"/><text fill="#000000" font-family="sans-serif" font-size="14" lengthAdjust="spacing" textLength="31" x="4912.5" y="113.9951">User</text></g><!--entity doctor--><g id="elem_doctor"><ellipse cx="4811" cy="49.5" fill="#F1F1F1" rx="8" ry="8" style="stroke:#181818;stroke-width:0.5;"/><path d="M4811,57.5 L4811,84.5 M4798,65.5 L4824,65.5 M4811,84.5 L4798,99.5 M4811,84.5 L4824,99.5 " fill="none" style="stroke:#181818;stroke-width:0.5;"/><text fill="#000000" font-family="sans-serif" font-size="14" lengthAdjust="spacing" textLength="50" x="4786" y="113.9951">Doctor</text></g><!--entity manager--><g id="elem_manager"><ellipse cx="989" cy="49.5" fill="#F1F1F1" rx="8" ry="8" style="stroke:#181818;stroke-width:0.5;"/><path d="M989,57.5 L989,84.5 M976,65.5 L1002,65.5 M989,84.5 L976,99.5 M989,84.5 L1002,99.5 " fill="none" style="stroke:#181818;stroke-width:0.5;"/><text fill="#000000" font-family="sans-serif" font-size="14" lengthAdjust="spacing" textLength="61" x="958.5" y="113.9951">Manager</text></g><!--entity staff--><g id="elem_staff"><ellipse cx="3326" cy="49.5" fill="#F1F1F1" rx="8" ry="8" style="stroke:#181818;stroke-width:0.5;"/><path d="M3326,57.5 L3326,84.5 M3313,65.5 L3339,65.5 M3326,84.5 L3313,99.5 M3326,84.5 L3339,99.5 " fill="none" style="stroke:#181818;stroke-width:0.5;"/><text fill="#000000" font-family="sans-serif" font-size="14" lengthAdjust="spacing" textLength="36" x="3308" y="113.9951">Staff</text></g><!--entity patient--><g id="elem_patient"><ellipse cx="4397" cy="49.5" fill="#F1F1F1" rx="8" ry="8" style="stroke:#181818;stroke-width:0.5;"/><path d="M4397,57.5 L4397,84.5 M4384,65.5 L4410,65.5 M4397,84.5 L4384,99.5 M4397,84.5 L4410,99.5 " fill="none" style="stroke:#181818;stroke-width:0.5;"/><text fill="#000000" font-family="sans-serif" font-size="14" lengthAdjust="spacing" textLength="53" x="4370.5" y="113.9951">Patient</text></g><!--link user to login--><g id="link_user_login"><path d="M4943.7,101.669 C4948.91,107.464 4955.14,113.173 4962,117 C5084.92,185.611 5137.69,138.169 5273,177 C5278.71,178.639 5267.7146,174.5145 5273.5046,176.5995 " fill="none" id="user-to-login" style="stroke:#181818;stroke-width:1.0;"/><polygon fill="none" points="5290.44,182.698,5275.5374,170.9544,5271.4718,182.2446,5290.44,182.698" style="stroke:#181818;stroke-width:1.0;"/></g><!--link user to register--><g id="link_user_register"><path d="M4943.61,102.383 C4958.45,123.658 4970.3407,140.7127 4985.1607,161.9547 " fill="none" id="user-to-register" style="stroke:#181818;stroke-width:1.0;"/><polygon fill="none" points="4995.46,176.717,4990.0815,158.5216,4980.24,165.3878,4995.46,176.717" style="stroke:#181818;stroke-width:1.0;"/></g><!--link user to forgotPassword--><g id="link_user_forgotPassword"><path d="M4943.81,100.546 C4949.1,106.442 4955.36,112.49 4962,117 C5002.89,144.781 5037.3364,159.489 5079.6264,172.851 " fill="none" id="user-to-forgotPassword" style="stroke:#181818;stroke-width:1.0;"/><polygon fill="none" points="5096.79,178.274,5081.434,167.1297,5077.8187,178.5722,5096.79,178.274" style="stroke:#181818;stroke-width:1.0;"/></g><!--link user to messaging--><g id="link_user_messaging"><path d="M4912.26,89.072 C4897.57,97.249 4874.84,109.158 4854,117 C4786.7,142.325 4725.9893,158.7788 4664.5693,172.9478 " fill="none" id="user-to-messaging" style="stroke:#181818;stroke-width:1.0;"/><polygon fill="none" points="4647.03,176.994,4665.9181,178.7943,4663.2206,167.1014,4647.03,176.994" style="stroke:#181818;stroke-width:1.0;"/></g><!--link user to appointment--><g id="link_user_appointment"><path d="M4933.61,117.03 C4936.28,149.991 4933.96,196.911 4905,223 C4853.52,269.38 3857.6154,295.409 3539.5754,302.585 " fill="none" id="user-to-appointment" style="stroke:#181818;stroke-width:1.0;"/><polygon fill="none" points="3521.58,302.991,3539.7108,308.5834,3539.4401,296.5865,3521.58,302.991" style="stroke:#181818;stroke-width:1.0;"/></g><!--link patient to messaging--><g id="link_patient_messaging"><path d="M4423.75,102.104 C4449.45,123.344 4474.2141,143.8094 4500.0341,165.1444 " fill="none" id="patient-to-messaging" style="stroke:#181818;stroke-width:1.0;"/><polygon fill="none" points="4513.91,176.61,4503.856,160.5191,4496.2123,169.7697,4513.91,176.61" style="stroke:#181818;stroke-width:1.0;"/></g><!--link patient to medicalHistory--><g id="link_patient_medicalHistory"><path d="M4370.44,102.104 C4344.91,123.344 4320.3742,143.7591 4294.7442,165.0941 " fill="none" id="patient-to-medicalHistory" style="stroke:#181818;stroke-width:1.0;"/><polygon fill="none" points="4280.91,176.61,4298.5828,169.7055,4290.9055,160.4827,4280.91,176.61" style="stroke:#181818;stroke-width:1.0;"/></g><!--link doctor to calculateSalary--><g id="link_doctor_calculateSalary"><path d="M4811,117 C4811,136.65 4811,142.139 4811,158.931 " fill="none" id="doctor-to-calculateSalary" style="stroke:#181818;stroke-width:1.0;"/><polygon fill="none" points="4811,176.931,4817,158.931,4805,158.931,4811,176.931" style="stroke:#181818;stroke-width:1.0;"/></g><!--link staff to terminateEmployee--><g id="link_staff_terminateEmployee"><path d="M3307.67,90.146 C3273.14,109.256 3213.4885,142.2711 3166.7285,168.1531 " fill="none" id="staff-to-terminateEmployee" style="stroke:#181818;stroke-width:1.0;"/><polygon fill="none" points="3150.98,176.87,3169.6341,173.4026,3163.8229,162.9036,3150.98,176.87" style="stroke:#181818;stroke-width:1.0;"/></g><!--link staff to messaging--><g id="link_staff_messaging"><path d="M3344.14,81.48 C3445.51,89.794 3952.13,131.934 4365,177 C4370.82,177.635 4358.8556,176.2603 4364.8356,176.9413 " fill="none" id="staff-to-messaging" style="stroke:#181818;stroke-width:1.0;"/><polygon fill="none" points="4382.72,178.978,4365.5145,170.9799,4364.1567,182.9028,4382.72,178.978" style="stroke:#181818;stroke-width:1.0;"/></g><!--link staff to appointment--><g id="link_staff_appointment"><path d="M3307.85,97.027 C3280.72,124.596 3235.49,180.228 3262,223 C3279.69,251.55 3293.9663,263.6689 3324.3063,276.0609 " fill="none" id="staff-to-appointment" style="stroke:#181818;stroke-width:1.0;"/><polygon fill="none" points="3340.97,282.867,3326.575,270.5064,3322.0377,281.6155,3340.97,282.867" style="stroke:#181818;stroke-width:1.0;"/></g><!--link staff to inventoryTracking--><g id="link_staff_inventoryTracking"><path d="M3307.78,82.638 C3230,93.903 2918.14,139.124 2662,177 C2656.13,177.868 2667.9353,176.118 2661.8653,177.018 " fill="none" id="staff-to-inventoryTracking" style="stroke:#181818;stroke-width:1.0;"/><polygon fill="none" points="2644.06,179.658,2662.7453,182.9531,2660.9853,171.0829,2644.06,179.658" style="stroke:#181818;stroke-width:1.0;"/></g><!--link staff to inventoryManagement--><g id="link_staff_inventoryManagement"><path d="M3307.97,84.165 C3245.04,98.707 3049.6379,143.8575 2923.8379,172.9265 " fill="none" id="staff-to-inventoryManagement" style="stroke:#181818;stroke-width:1.0;"/><polygon fill="none" points="2906.3,176.979,2925.1887,178.7724,2922.487,167.0805,2906.3,176.979" style="stroke:#181818;stroke-width:1.0;"/></g><!--link staff to appointmentReminder--><g id="link_staff_appointmentReminder"><path d="M3344.01,105.821 C3358.79,127.012 3369.2018,141.938 3383.2418,162.065 " fill="none" id="staff-to-appointmentReminder" style="stroke:#181818;stroke-width:1.0;"/><polygon fill="none" points="3393.54,176.828,3388.1628,158.6322,3378.3208,165.4977,3393.54,176.828" style="stroke:#181818;stroke-width:1.0;"/></g><!--link staff to prescription--><g id="link_staff_prescription"><path d="M3344.09,85.74 C3395.22,101.966 3525.693,143.3709 3614.263,171.4749 " fill="none" id="staff-to-prescription" style="stroke:#181818;stroke-width:1.0;"/><polygon fill="none" points="3631.42,176.919,3616.0777,165.7559,3612.4483,177.1939,3631.42,176.919" style="stroke:#181818;stroke-width:1.0;"/></g><!--link staff to treatmentPlan--><g id="link_staff_treatmentPlan"><path d="M3344.2,81.515 C3388.89,86.307 3504.18,105.376 3556,177 C3602.71,241.557 3592.7124,326.335 3583.6924,371.1405 " fill="none" id="staff-to-treatmentPlan" style="stroke:#181818;stroke-width:1.0;"/><polygon fill="none" points="3580.14,388.7865,3589.5744,372.3247,3577.8104,369.9564,3580.14,388.7865" style="stroke:#181818;stroke-width:1.0;"/></g><!--link staff to treatmentProgress--><g id="link_staff_treatmentProgress"><path d="M3344.2,83.433 C3415.99,96.971 3665.4818,144.0232 3822.3518,173.6072 " fill="none" id="staff-to-treatmentProgress" style="stroke:#181818;stroke-width:1.0;"/><polygon fill="none" points="3840.04,176.943,3823.4637,167.7111,3821.2399,179.5033,3840.04,176.943" style="stroke:#181818;stroke-width:1.0;"/></g><!--link staff to supplyContract--><g id="link_staff_supplyContract"><path d="M3307.74,81.65 C3255.37,87.121 3101.79,108.413 2998,177 C2975.88,191.62 2983.35,210.44 2960,223 C2847.95,283.259 2497.7252,298.8222 2315.3052,303.0572 " fill="none" id="staff-to-supplyContract" style="stroke:#181818;stroke-width:1.0;"/><polygon fill="none" points="2297.31,303.475,2315.4444,309.0556,2315.1659,297.0588,2297.31,303.475" style="stroke:#181818;stroke-width:1.0;"/></g><!--link manager to financialTracking--><g id="link_manager_financialTracking"><path d="M1019.77,83.206 C1128.48,94.621 1504.63,134.862 1814,177 C1819.81,177.791 1807.9314,176.0737 1813.9214,176.9307 " fill="none" id="manager-to-financialTracking" style="stroke:#181818;stroke-width:1.0;"/><polygon fill="none" points="1831.74,179.48,1814.7712,170.9911,1813.0717,182.8702,1831.74,179.48" style="stroke:#181818;stroke-width:1.0;"/></g><!--link manager to financialReports--><g id="link_manager_financialReports"><path d="M1019.54,81.709 C1149.84,89.202 1672.09,121.294 2098,177 C2103.72,177.749 2091.7845,175.9328 2097.6945,176.8088 " fill="none" id="manager-to-financialReports" style="stroke:#181818;stroke-width:1.0;"/><polygon fill="none" points="2115.5,179.448,2098.5743,170.8737,2096.8148,182.744,2115.5,179.448" style="stroke:#181818;stroke-width:1.0;"/></g><!--link manager to inventoryTracking--><g id="link_manager_inventoryTracking"><path d="M1019.65,81.265 C1168.36,87.591 1829.44,117.85 2368,177 C2373.77,177.634 2361.7961,176.1163 2367.7461,176.8523 " fill="none" id="manager-to-inventoryTracking" style="stroke:#181818;stroke-width:1.0;"/><polygon fill="none" points="2385.61,179.062,2368.4827,170.8977,2367.0096,182.8069,2385.61,179.062" style="stroke:#181818;stroke-width:1.0;"/></g><!--link manager to inventoryManagement--><g id="link_manager_inventoryManagement"><path d="M1019.6,80.761 C1186.16,85.115 2000.31,109.104 2662,177 C2667.72,177.587 2655.6836,176.1302 2661.5836,176.8252 " fill="none" id="manager-to-inventoryManagement" style="stroke:#181818;stroke-width:1.0;"/><polygon fill="none" points="2679.46,178.931,2662.2855,170.8664,2660.8817,182.784,2679.46,178.931" style="stroke:#181818;stroke-width:1.0;"/></g><!--link manager to equipmentStatus--><g id="link_manager_equipmentStatus"><path d="M958.126,80.959 C840.747,85.437 427.966,107.121 322,177 C283.631,202.302 263.7402,235.576 258.6662,264.987 " fill="none" id="manager-to-equipmentStatus" style="stroke:#181818;stroke-width:1.0;"/><polygon fill="none" points="255.606,282.725,264.5788,266.0071,252.7535,263.967,255.606,282.725" style="stroke:#181818;stroke-width:1.0;"/></g><!--link manager to equipmentStatus--><g id="link_manager_equipmentStatus"><path d="M958.365,81.529 C845.558,87.111 459.037,109.712 357,177 C318.631,202.302 304.4654,237.6036 288.0184,267.0146 " fill="none" id="manager-to-equipmentStatus-1" style="stroke:#181818;stroke-width:1.0;"/><polygon fill="none" points="279.233,282.725,293.2552,269.9431,282.7816,264.0861,279.233,282.725" style="stroke:#181818;stroke-width:1.0;"/></g><!--link manager to maintenancePlan--><g id="link_manager_maintenancePlan"><path d="M958.489,93.99 C932.321,111.178 897.819,142.354 879,177 C840.356,248.142 827.0285,327.9185 831.0455,371.0685 " fill="none" id="manager-to-maintenancePlan" style="stroke:#181818;stroke-width:1.0;"/><polygon fill="none" points="832.714,388.991,837.0197,370.5123,825.0714,371.6247,832.714,388.991" style="stroke:#181818;stroke-width:1.0;"/></g><!--link manager to maintenancePlan--><g id="link_manager_maintenancePlan"><path d="M960.84,117.116 C944.8,133.752 926.138,154.654 914,177 C875.356,248.142 868.2249,328.4198 857.0099,371.5698 " fill="none" id="manager-to-maintenancePlan-1" style="stroke:#181818;stroke-width:1.0;"/><polygon fill="none" points="852.482,388.991,862.817,373.0791,851.2028,370.0605,852.482,388.991" style="stroke:#181818;stroke-width:1.0;"/></g><!--link manager to advertising--><g id="link_manager_advertising"><path d="M958.217,94.831 C915.411,115.454 853.8023,145.1366 804.1263,169.0686 " fill="none" id="manager-to-advertising" style="stroke:#181818;stroke-width:1.0;"/><polygon fill="none" points="787.91,176.881,806.7304,174.474,801.5221,163.6632,787.91,176.881" style="stroke:#181818;stroke-width:1.0;"/></g><!--link manager to voucher--><g id="link_manager_voucher"><path d="M989,117 C989,136.65 989,142.139 989,158.931 " fill="none" id="manager-to-voucher" style="stroke:#181818;stroke-width:1.0;"/><polygon fill="none" points="989,176.931,995,158.931,983,158.931,989,176.931" style="stroke:#181818;stroke-width:1.0;"/></g><!--link manager to feedback--><g id="link_manager_feedback"><path d="M1019.74,98.856 C1054.36,120.09 1095.1969,145.1398 1131.7869,167.5858 " fill="none" id="manager-to-feedback" style="stroke:#181818;stroke-width:1.0;"/><polygon fill="none" points="1147.13,176.998,1134.9243,162.4715,1128.6495,172.7002,1147.13,176.998" style="stroke:#181818;stroke-width:1.0;"/></g><!--link manager to serviceContract--><g id="link_manager_serviceContract"><path d="M1019.81,88.75 C1084.63,107.161 1219.5047,145.4665 1312.9147,171.9945 " fill="none" id="manager-to-serviceContract" style="stroke:#181818;stroke-width:1.0;"/><polygon fill="none" points="1330.23,176.912,1314.5539,166.2228,1311.2756,177.7663,1330.23,176.912" style="stroke:#181818;stroke-width:1.0;"/></g><!--link manager to potentialCustomer--><g id="link_manager_potentialCustomer"><path d="M958.268,79.729 C842.857,79.427 437.897,85.026 359,177 C315.189,228.073 380.4477,258.2288 458.6027,278.4668 " fill="none" id="manager-to-potentialCustomer" style="stroke:#181818;stroke-width:1.0;"/><polygon fill="none" points="476.028,282.979,460.1068,272.6584,457.0987,284.2752,476.028,282.979" style="stroke:#181818;stroke-width:1.0;"/></g><!--link manager to clinicInfo--><g id="link_manager_clinicInfo"><path d="M958.487,87.176 C884.451,104.588 710.372,145.5273 594.241,172.8383 " fill="none" id="manager-to-clinicInfo" style="stroke:#181818;stroke-width:1.0;"/><polygon fill="none" points="576.719,176.959,595.6145,178.6789,592.8674,166.9976,576.719,176.959" style="stroke:#181818;stroke-width:1.0;"/></g><!--link manager to employeeInfo--><g id="link_manager_employeeInfo"><path d="M958.206,84.228 C860.884,97.608 551.212,140.306 295,177 C286.141,178.269 294.8038,177.0059 285.5938,178.3409 " fill="none" id="manager-to-employeeInfo" style="stroke:#181818;stroke-width:1.0;"/><polygon fill="none" points="267.78,180.923,286.4545,184.2788,284.7331,172.4029,267.78,180.923" style="stroke:#181818;stroke-width:1.0;"/></g><!--link manager to employeeSchedule--><g id="link_manager_employeeSchedule"><path d="M1019.61,86.398 C1111.55,103.669 1369.1208,148.7847 1531.6608,176.2057 " fill="none" id="manager-to-employeeSchedule" style="stroke:#181818;stroke-width:1.0;"/><polygon fill="none" points="1549.41,179.2,1532.6589,170.2893,1530.6627,182.1221,1549.41,179.2" style="stroke:#181818;stroke-width:1.0;"/></g><!--link manager to employeeSchedule--><g id="link_manager_employeeSchedule"><path d="M1019.66,84.376 C1113.19,99.178 1378.1626,144.8791 1539.5026,173.8091 " fill="none" id="manager-to-employeeSchedule-1" style="stroke:#181818;stroke-width:1.0;"/><polygon fill="none" points="1557.22,176.986,1540.5616,167.9033,1538.4436,179.7149,1557.22,176.986" style="stroke:#181818;stroke-width:1.0;"/></g><!--link clinicInfo to maintenancePlan--><g id="link_clinicInfo_maintenancePlan"><path d="M589.216,219.76 C663.847,234.778 755.432,257.495 785,283 C817.142,310.725 827.8924,342.7261 833.7654,371.3599 " fill="none" id="clinicInfo-to-maintenancePlan" style="stroke:#181818;stroke-width:1.0;"/><polygon fill="none" points="837.382,388.9928,839.643,370.1543,827.8877,372.5654,837.382,388.9928" style="stroke:#181818;stroke-width:1.0;"/></g><!--link clinicInfo to equipmentStatus--><g id="link_clinicInfo_equipmentStatus"><path d="M435.707,223.056 C397.864,240.705 361.3631,257.727 323.5371,275.368 " fill="none" id="clinicInfo-to-equipmentStatus" style="stroke:#181818;stroke-width:1.0;"/><polygon fill="none" points="307.224,282.976,326.0731,280.8057,321.0011,269.9303,307.224,282.976" style="stroke:#181818;stroke-width:1.0;"/></g><!--link invoice to financialReports--><g id="link_invoice_financialReports"><path d="M2224,102.104 C2224,123.344 2224,137.275 2224,158.61 " fill="none" id="invoice-to-financialReports" style="stroke:#181818;stroke-width:1.0;"/><polygon fill="none" points="2224,176.61,2230,158.61,2218,158.61,2224,176.61" style="stroke:#181818;stroke-width:1.0;"/></g><!--link appointmentReminder to appointment--><g id="link_appointmentReminder_appointment"><path d="M3412.82,223.056 C3415.87,240.705 3417.0537,247.5998 3420.1137,265.2408 " fill="none" id="appointmentReminder-to-appointment" style="stroke:#181818;stroke-width:1.0;"/><polygon fill="none" points="3423.19,282.976,3426.0254,264.2154,3414.2019,266.2663,3423.19,282.976" style="stroke:#181818;stroke-width:1.0;"/></g><!--link medicalRecords to printMedicalRecords--><g id="link_medicalRecords_printMedicalRecords"><path d="M5307.39,102.104 C5350.19,123.411 5398.4768,147.4552 5441.3268,168.7902 " fill="none" id="medicalRecords-to-printMedicalRecords" style="stroke:#181818;stroke-width:1.0;"/><polygon fill="none" points="5457.44,176.813,5444.001,163.4192,5438.6525,174.1613,5457.44,176.813" style="stroke:#181818;stroke-width:1.0;"/></g><!--link appointment to treatmentPlan--><g id="link_appointment_treatmentPlan"><path d="M3458.39,329.056 C3483.5,346.705 3503.8214,360.9879 3528.9314,378.6287 " fill="none" id="appointment-to-treatmentPlan" style="stroke:#181818;stroke-width:1.0;"/><polygon fill="none" points="3543.66,388.9761,3532.3806,373.7192,3525.4823,383.5382,3543.66,388.9761" style="stroke:#181818;stroke-width:1.0;"/></g><!--link treatmentProgress to treatmentPlan--><g id="link_treatmentProgress_treatmentPlan"><path d="M3916.84,223.077 C3843.48,263.409 3704.364,339.8863 3630.964,380.2332 " fill="none" id="treatmentProgress-to-treatmentPlan" style="stroke:#181818;stroke-width:1.0;"/><polygon fill="none" points="3615.19,388.9039,3633.8542,385.4912,3628.0737,374.9752,3615.19,388.9039" style="stroke:#181818;stroke-width:1.0;"/></g><!--link clinicInfo to treatmentPlan--><g id="link_clinicInfo_treatmentPlan"><path d="M589.104,218.394 C601.192,220.092 613.35,221.673 625,223 C1706.93,346.237 3003.9985,393.7865 3422.4385,406.6414 " fill="none" id="clinicInfo-to-treatmentPlan" style="stroke:#181818;stroke-width:1.0;"/><polygon fill="none" points="3440.43,407.1941,3422.6227,400.6442,3422.2542,412.6386,3440.43,407.1941" style="stroke:#181818;stroke-width:1.0;"/></g><!--link potentialCustomer to potentialCustomer--><g id="link_potentialCustomer_potentialCustomer"><path d="M750.097,288.527 C771.099,291.532 785,297.356 785,306 C785,314.644 788.9175,317.9185 767.9155,320.9235 " fill="none" id="potentialCustomer-to-potentialCustomer" style="stroke:#181818;stroke-width:1.0;"/><polygon fill="none" points="750.097,323.473,768.7654,326.863,767.0657,314.984,750.097,323.473" style="stroke:#181818;stroke-width:1.0;"/></g><!--link patientInfo to medicalHistory--><g id="link_patientInfo_medicalHistory"><path d="M4079.75,102.104 C4118.07,123.411 4159.9984,146.7307 4198.3684,168.0657 " fill="none" id="patientInfo-to-medicalHistory" style="stroke:#181818;stroke-width:1.0;"/><polygon fill="none" points="4214.1,176.813,4201.2841,162.8218,4195.4526,173.3096,4214.1,176.813" style="stroke:#181818;stroke-width:1.0;"/></g><!--link patientInfo to prescription--><g id="link_patientInfo_prescription"><path d="M3977.03,102.104 C3916.24,123.445 3841.684,149.6173 3780.904,170.9523 " fill="none" id="patientInfo-to-prescription" style="stroke:#181818;stroke-width:1.0;"/><polygon fill="none" points="3763.92,176.914,3782.8913,176.6136,3778.9168,165.2909,3763.92,176.914" style="stroke:#181818;stroke-width:1.0;"/></g><!--link patientInfo to treatmentPlan--><g id="link_patientInfo_treatmentPlan"><path d="M4063.94,102.153 C4092.64,131.448 4133.62,183.924 4106,223 C4016.82,349.181 3853.3443,389.2724 3727.5543,402.9674 " fill="none" id="patientInfo-to-treatmentPlan" style="stroke:#181818;stroke-width:1.0;"/><polygon fill="none" points="3709.66,404.9156,3728.2037,408.9322,3726.9049,397.0027,3709.66,404.9156" style="stroke:#181818;stroke-width:1.0;"/></g><!--link patientInfo to treatmentProgress--><g id="link_patientInfo_treatmentProgress"><path d="M4024.58,102.104 C4009.77,123.344 3997.797,140.5111 3982.917,161.8461 " fill="none" id="patientInfo-to-treatmentProgress" style="stroke:#181818;stroke-width:1.0;"/><polygon fill="none" points="3972.62,176.61,3987.8383,165.2785,3977.9957,158.4138,3972.62,176.61" style="stroke:#181818;stroke-width:1.0;"/></g><!--link clinicInfo to clinicInfo--><g id="link_clinicInfo_clinicInfo"><path d="M589.07,181.042 C609.513,183.277 624,189.597 624,200 C624,210.403 627.4064,214.7667 606.9634,217.0017 " fill="none" id="clinicInfo-to-clinicInfo" style="stroke:#181818;stroke-width:1.0;"/><polygon fill="none" points="589.07,218.958,607.6155,222.9662,606.3113,211.0373,589.07,218.958" style="stroke:#181818;stroke-width:1.0;"/></g><!--link clinicInfo to potentialCustomer--><g id="link_clinicInfo_potentialCustomer"><path d="M505.48,223.056 C523.468,240.705 535.7245,252.7288 553.7045,270.3698 " fill="none" id="clinicInfo-to-potentialCustomer" style="stroke:#181818;stroke-width:1.0;"/><polygon fill="none" points="566.553,282.976,557.9066,266.087,549.5025,274.6526,566.553,282.976" style="stroke:#181818;stroke-width:1.0;"/></g><!--link serviceContract to supplyContract--><g id="link_serviceContract_supplyContract"><path d="M1514.14,220.207 C1520.18,221.182 1526.16,222.121 1532,223 C1728.25,252.561 1940.5594,277.3599 2070.9794,291.8019 " fill="none" id="serviceContract-to-supplyContract" style="stroke:#181818;stroke-width:1.0;"/><polygon fill="none" points="2088.87,293.783,2071.6397,285.8383,2070.319,297.7654,2088.87,293.783" style="stroke:#181818;stroke-width:1.0;"/></g><!--link supplyContract to supplyContract--><g id="link_supplyContract_supplyContract"><path d="M2297.26,296.505 C2317.58,297.607 2332,300.772 2332,306 C2332,311.228 2335.5536,313.4183 2315.2336,314.5203 " fill="none" id="supplyContract-to-supplyContract" style="stroke:#181818;stroke-width:1.0;"/><polygon fill="none" points="2297.26,315.495,2315.5585,320.5114,2314.9087,308.5291,2297.26,315.495" style="stroke:#181818;stroke-width:1.0;"/></g><!--link supplyContract to supplyContract--><g id="link_supplyContract_supplyContract"><path d="M2297.04,286.162 C2335.45,285.568 2367,292.181 2367,306 C2367,319.819 2353.4478,326.7103 2315.0378,326.1163 " fill="none" id="supplyContract-to-supplyContract-1" style="stroke:#181818;stroke-width:1.0;"/><polygon fill="none" points="2297.04,325.838,2314.9451,332.1156,2315.1306,320.117,2297.04,325.838" style="stroke:#181818;stroke-width:1.0;"/></g><!--link financialReports to financialReports--><g id="link_financialReports_financialReports"><path d="M2332.57,181.11 C2353.05,183.404 2367.5,189.7 2367.5,200 C2367.5,210.3 2370.9381,214.5923 2350.4581,216.8863 " fill="none" id="financialReports-to-financialReports" style="stroke:#181818;stroke-width:1.0;"/><polygon fill="none" points="2332.57,218.89,2351.126,222.849,2349.7902,210.9236,2332.57,218.89" style="stroke:#181818;stroke-width:1.0;"/></g><!--link equipmentStatus to maintenancePlan--><g id="link_equipmentStatus_maintenancePlan"><path d="M374.787,327.547 C473.833,345.277 598.8136,367.6482 700.2026,385.797 " fill="none" id="equipmentStatus-to-maintenancePlan" style="stroke:#181818;stroke-width:1.0;"/><polygon fill="none" points="717.921,388.9686,701.2598,379.8909,699.1454,391.7031,717.921,388.9686" style="stroke:#181818;stroke-width:1.0;"/></g><!--link equipmentStatus to equipmentStatus--><g id="link_equipmentStatus_equipmentStatus"><path d="M374.705,287.291 C395.191,289.723 409.5,295.959 409.5,306 C409.5,316.041 413.0655,320.155 392.5795,322.587 " fill="none" id="equipmentStatus-to-equipmentStatus" style="stroke:#181818;stroke-width:1.0;"/><polygon fill="none" points="374.705,324.709,393.2868,328.5452,391.8722,316.6289,374.705,324.709" style="stroke:#181818;stroke-width:1.0;"/></g><!--SRC=[hLRBhjCw59ttAqn7CE0NaA2dXuD4qL5xO8Bkm2IxnIAnW-tqK77llz_jL_oCn819aworRE-t-wA7C-D0ZllTqzjFxp_kIJTGfJQR5vwO5NHKBSz8q4uBwNuZoBW6UQPTyXR9YNO_w6LvHWBuFDgVpIPejWz01_szenB8WNA4Hk2Qd6vAmxWblpU4VFqeBep_GwWYWtapq14k31NIej9_6EAEQahsl9EtIJFXLe7xDFIza1UXoIEw_YnaR-cpnG9aL3iwTFD0DP0J7QYyMLaNG8SPtHF8aN6Zsu_J86u0Lga3752ZFO1I5As_a6-Wdm4uEMbwFXFAUpH7C_HQsTLZ45fBZf_l0aq-S3Hrf8jVayCDRBIFz6PYvodxRk3tm44Q6p_mgs2TCv6vz-M8jzCaC9FZOWMDW15zOV1C3j0pZ09vm6WB7vNHOHvQzWkULpQ39uBHBkTHV-g-GpyFe39rG6tG9POEES8L2mbi-FQ_9k3ABy52exnZTB2w44O99WBtWSFbav2wME51im1ZXPwZH_Q0qpnDmus47KC4dI8zntiJLoF95VOEkg_oPR7OpS8Ju3594j10BA4UP9MDGCJgaA0woQPunfGWTdCypqNAsnSIUOGEArwbYVIGhIU9HpQras4ErOA3uCpCYltFcKskZJNLiqzb01sMP2NA3zHC4vCD88y3zUwC4JLWhDd-2b8p1KdLUYZjdYzYnkhnWRow3nToUSKM8FS0_JTCeQi5_v6O5xhloNnQCwDfEc31C5USkHGp92wOadA9HnT3Wq4xmJLkurrI3WrWLBkQBCGMhBIF0kEdJTtlPkpJ4QD1NhwRCKnuFgXNBgb153JByjt0EEkgLkuiR1iPfUwQs7v6UxU6nNj4HlXEcASbUliQALUJZXlTUoJjZBIKCc-Hy5dP9dFGM65E9QzV__jckIeYabmJ4Qo6VwJIGHpHV33we-i51L4CIHS3HzRtYdNLaQsh9A7J4nCujp4XMaEhHMV3gRrnCeSIGJ5wKa-ALcbIiIKIkYfgNoK-WOrvtnR4yPxnhPYq1LbKCaazt3Awdc0PdK-jZ8hpAlSfZgaChuT5HhTQF1CaBLrwcD_RJIwvfVzYT1gxHpFNTYWLjGd-7z1gZJHAlTLS-RKPcg1rFIRhsXrHjK5RLhfMybMIrtEV_85S6LILecZmYg-iMHV4PYzToigm95kE57M_CZToO4LKbi9gWHGbjLQ9JLbTZdzWst__0m00]--></g></svg>