<?xml version="1.0" encoding="us-ascii" standalone="no"?><svg xmlns="http://www.w3.org/2000/svg" xmlns:xlink="http://www.w3.org/1999/xlink" contentStyleType="text/css" height="458px" preserveAspectRatio="none" style="width:5062px;height:458px;background:#FFFFFF;" version="1.1" viewBox="0 0 5062 458" width="5062px" zoomAndPan="magnify"><defs/><g><!--cluster Healthcare Management System--><g id="cluster_Healthcare Management System"><path d="M8.5,6 L272.5,6 A3.75,3.75 0 0 1 275,8.5 L282,28.2969 L5049.5,28.2969 A2.5,2.5 0 0 1 5052,30.7969 L5052,448.5 A2.5,2.5 0 0 1 5049.5,451 L8.5,451 A2.5,2.5 0 0 1 6,448.5 L6,8.5 A2.5,2.5 0 0 1 8.5,6 " fill="none" style="stroke:#000000;stroke-width:1.5;"/><line style="stroke:#000000;stroke-width:1.5;" x1="6" x2="282" y1="28.2969" y2="28.2969"/><text fill="#000000" font-family="sans-serif" font-size="14" font-weight="bold" lengthAdjust="spacing" textLength="263" x="10" y="20.9951">Healthcare Management System</text></g><!--entity terminateEmployee--><g id="elem_terminateEmployee"><rect fill="#F1F1F1" height="46.2969" rx="2.5" ry="2.5" style="stroke:#181818;stroke-width:0.5;" width="191" x="4294.5" y="177"/><rect fill="#F1F1F1" height="10" style="stroke:#181818;stroke-width:0.5;" width="15" x="4465.5" y="182"/><rect fill="#F1F1F1" height="2" style="stroke:#181818;stroke-width:0.5;" width="4" x="4463.5" y="184"/><rect fill="#F1F1F1" height="2" style="stroke:#181818;stroke-width:0.5;" width="4" x="4463.5" y="188"/><text fill="#000000" font-family="sans-serif" font-size="14" lengthAdjust="spacing" textLength="151" x="4309.5" y="209.9951">Terminate Employee</text></g><!--entity messaging--><g id="elem_messaging"><rect fill="#F1F1F1" height="46.2969" rx="2.5" ry="2.5" style="stroke:#181818;stroke-width:0.5;" width="330" x="282" y="177"/><rect fill="#F1F1F1" height="10" style="stroke:#181818;stroke-width:0.5;" width="15" x="592" y="182"/><rect fill="#F1F1F1" height="2" style="stroke:#181818;stroke-width:0.5;" width="4" x="590" y="184"/><rect fill="#F1F1F1" height="2" style="stroke:#181818;stroke-width:0.5;" width="4" x="590" y="188"/><text fill="#000000" font-family="sans-serif" font-size="14" lengthAdjust="spacing" textLength="290" x="297" y="209.9951">Messaging between Doctor and Patients</text></g><!--entity patientInfo--><g id="elem_patientInfo"><rect fill="#F1F1F1" height="46.2969" rx="2.5" ry="2.5" style="stroke:#181818;stroke-width:0.5;" width="226" x="401" y="56"/><rect fill="#F1F1F1" height="10" style="stroke:#181818;stroke-width:0.5;" width="15" x="607" y="61"/><rect fill="#F1F1F1" height="2" style="stroke:#181818;stroke-width:0.5;" width="4" x="605" y="63"/><rect fill="#F1F1F1" height="2" style="stroke:#181818;stroke-width:0.5;" width="4" x="605" y="67"/><text fill="#000000" font-family="sans-serif" font-size="14" lengthAdjust="spacing" textLength="186" x="416" y="88.9951">CRUD Patient Information</text></g><!--entity invoice--><g id="elem_invoice"><rect fill="#F1F1F1" height="46.2969" rx="2.5" ry="2.5" style="stroke:#181818;stroke-width:0.5;" width="163" x="4827.5" y="56"/><rect fill="#F1F1F1" height="10" style="stroke:#181818;stroke-width:0.5;" width="15" x="4970.5" y="61"/><rect fill="#F1F1F1" height="2" style="stroke:#181818;stroke-width:0.5;" width="4" x="4968.5" y="63"/><rect fill="#F1F1F1" height="2" style="stroke:#181818;stroke-width:0.5;" width="4" x="4968.5" y="67"/><text fill="#000000" font-family="sans-serif" font-size="14" lengthAdjust="spacing" textLength="123" x="4842.5" y="88.9951">Generate Invoice</text></g><!--entity appointment--><g id="elem_appointment"><rect fill="#F1F1F1" height="46.2969" rx="2.5" ry="2.5" style="stroke:#181818;stroke-width:0.5;" width="189" x="1231.5" y="283"/><rect fill="#F1F1F1" height="10" style="stroke:#181818;stroke-width:0.5;" width="15" x="1400.5" y="288"/><rect fill="#F1F1F1" height="2" style="stroke:#181818;stroke-width:0.5;" width="4" x="1398.5" y="290"/><rect fill="#F1F1F1" height="2" style="stroke:#181818;stroke-width:0.5;" width="4" x="1398.5" y="294"/><text fill="#000000" font-family="sans-serif" font-size="14" lengthAdjust="spacing" textLength="149" x="1246.5" y="315.9951">CRUD Appointments</text></g><!--entity medicalHistory--><g id="elem_medicalHistory"><rect fill="#F1F1F1" height="46.2969" rx="2.5" ry="2.5" style="stroke:#181818;stroke-width:0.5;" width="187" x="22.5" y="177"/><rect fill="#F1F1F1" height="10" style="stroke:#181818;stroke-width:0.5;" width="15" x="189.5" y="182"/><rect fill="#F1F1F1" height="2" style="stroke:#181818;stroke-width:0.5;" width="4" x="187.5" y="184"/><rect fill="#F1F1F1" height="2" style="stroke:#181818;stroke-width:0.5;" width="4" x="187.5" y="188"/><text fill="#000000" font-family="sans-serif" font-size="14" lengthAdjust="spacing" textLength="147" x="37.5" y="209.9951">View Medical History</text></g><!--entity employeeInfo--><g id="elem_employeeInfo"><rect fill="#F1F1F1" height="46.2969" rx="2.5" ry="2.5" style="stroke:#181818;stroke-width:0.5;" width="245" x="4520.5" y="177"/><rect fill="#F1F1F1" height="10" style="stroke:#181818;stroke-width:0.5;" width="15" x="4745.5" y="182"/><rect fill="#F1F1F1" height="2" style="stroke:#181818;stroke-width:0.5;" width="4" x="4743.5" y="184"/><rect fill="#F1F1F1" height="2" style="stroke:#181818;stroke-width:0.5;" width="4" x="4743.5" y="188"/><text fill="#000000" font-family="sans-serif" font-size="14" lengthAdjust="spacing" textLength="205" x="4535.5" y="209.9951">CRUD Employee Information</text></g><!--entity employeeSchedule--><g id="elem_employeeSchedule"><rect fill="#F1F1F1" height="46.2969" rx="2.5" ry="2.5" style="stroke:#181818;stroke-width:0.5;" width="247" x="2157.5" y="177"/><rect fill="#F1F1F1" height="10" style="stroke:#181818;stroke-width:0.5;" width="15" x="2384.5" y="182"/><rect fill="#F1F1F1" height="2" style="stroke:#181818;stroke-width:0.5;" width="4" x="2382.5" y="184"/><rect fill="#F1F1F1" height="2" style="stroke:#181818;stroke-width:0.5;" width="4" x="2382.5" y="188"/><text fill="#000000" font-family="sans-serif" font-size="14" lengthAdjust="spacing" textLength="207" x="2172.5" y="209.9951">Manage Employee Schedules</text></g><!--entity financialTracking--><g id="elem_financialTracking"><rect fill="#F1F1F1" height="46.2969" rx="2.5" ry="2.5" style="stroke:#181818;stroke-width:0.5;" width="248" x="2440" y="177"/><rect fill="#F1F1F1" height="10" style="stroke:#181818;stroke-width:0.5;" width="15" x="2668" y="182"/><rect fill="#F1F1F1" height="2" style="stroke:#181818;stroke-width:0.5;" width="4" x="2666" y="184"/><rect fill="#F1F1F1" height="2" style="stroke:#181818;stroke-width:0.5;" width="4" x="2666" y="188"/><text fill="#000000" font-family="sans-serif" font-size="14" lengthAdjust="spacing" textLength="208" x="2455" y="209.9951">Track Revenue and Expenses</text></g><!--entity financialReports--><g id="elem_financialReports"><rect fill="#F1F1F1" height="46.2969" rx="2.5" ry="2.5" style="stroke:#181818;stroke-width:0.5;" width="217" x="4800.5" y="177"/><rect fill="#F1F1F1" height="10" style="stroke:#181818;stroke-width:0.5;" width="15" x="4997.5" y="182"/><rect fill="#F1F1F1" height="2" style="stroke:#181818;stroke-width:0.5;" width="4" x="4995.5" y="184"/><rect fill="#F1F1F1" height="2" style="stroke:#181818;stroke-width:0.5;" width="4" x="4995.5" y="188"/><text fill="#000000" font-family="sans-serif" font-size="14" lengthAdjust="spacing" textLength="177" x="4815.5" y="209.9951">Create Financial Reports</text></g><!--entity inventoryTracking--><g id="elem_inventoryTracking"><rect fill="#F1F1F1" height="46.2969" rx="2.5" ry="2.5" style="stroke:#181818;stroke-width:0.5;" width="258" x="1864" y="177"/><rect fill="#F1F1F1" height="10" style="stroke:#181818;stroke-width:0.5;" width="15" x="2102" y="182"/><rect fill="#F1F1F1" height="2" style="stroke:#181818;stroke-width:0.5;" width="4" x="2100" y="184"/><rect fill="#F1F1F1" height="2" style="stroke:#181818;stroke-width:0.5;" width="4" x="2100" y="188"/><text fill="#000000" font-family="sans-serif" font-size="14" lengthAdjust="spacing" textLength="218" x="1879" y="209.9951">Inventory and Supply Tracking</text></g><!--entity inventoryManagement--><g id="elem_inventoryManagement"><rect fill="#F1F1F1" height="46.2969" rx="2.5" ry="2.5" style="stroke:#181818;stroke-width:0.5;" width="263" x="1565.5" y="177"/><rect fill="#F1F1F1" height="10" style="stroke:#181818;stroke-width:0.5;" width="15" x="1808.5" y="182"/><rect fill="#F1F1F1" height="2" style="stroke:#181818;stroke-width:0.5;" width="4" x="1806.5" y="184"/><rect fill="#F1F1F1" height="2" style="stroke:#181818;stroke-width:0.5;" width="4" x="1806.5" y="188"/><text fill="#000000" font-family="sans-serif" font-size="14" lengthAdjust="spacing" textLength="223" x="1580.5" y="209.9951">Manage Inventory Transactions</text></g><!--entity appointmentReminder--><g id="elem_appointmentReminder"><rect fill="#F1F1F1" height="46.2969" rx="2.5" ry="2.5" style="stroke:#181818;stroke-width:0.5;" width="259" x="1196.5" y="177"/><rect fill="#F1F1F1" height="10" style="stroke:#181818;stroke-width:0.5;" width="15" x="1435.5" y="182"/><rect fill="#F1F1F1" height="2" style="stroke:#181818;stroke-width:0.5;" width="4" x="1433.5" y="184"/><rect fill="#F1F1F1" height="2" style="stroke:#181818;stroke-width:0.5;" width="4" x="1433.5" y="188"/><text fill="#000000" font-family="sans-serif" font-size="14" lengthAdjust="spacing" textLength="219" x="1211.5" y="209.9951">Send Appointment Reminders</text></g><!--entity prescription--><g id="elem_prescription"><rect fill="#F1F1F1" height="46.2969" rx="2.5" ry="2.5" style="stroke:#181818;stroke-width:0.5;" width="179" x="647.5" y="177"/><rect fill="#F1F1F1" height="10" style="stroke:#181818;stroke-width:0.5;" width="15" x="806.5" y="182"/><rect fill="#F1F1F1" height="2" style="stroke:#181818;stroke-width:0.5;" width="4" x="804.5" y="184"/><rect fill="#F1F1F1" height="2" style="stroke:#181818;stroke-width:0.5;" width="4" x="804.5" y="188"/><text fill="#000000" font-family="sans-serif" font-size="14" lengthAdjust="spacing" textLength="139" x="662.5" y="209.9951">CRUD Prescriptions</text></g><!--entity medicalRecords--><g id="elem_medicalRecords"><rect fill="#F1F1F1" height="46.2969" rx="2.5" ry="2.5" style="stroke:#181818;stroke-width:0.5;" width="289" x="2970.5" y="177"/><rect fill="#F1F1F1" height="10" style="stroke:#181818;stroke-width:0.5;" width="15" x="3239.5" y="182"/><rect fill="#F1F1F1" height="2" style="stroke:#181818;stroke-width:0.5;" width="4" x="3237.5" y="184"/><rect fill="#F1F1F1" height="2" style="stroke:#181818;stroke-width:0.5;" width="4" x="3237.5" y="188"/><text fill="#000000" font-family="sans-serif" font-size="14" lengthAdjust="spacing" textLength="249" x="2985.5" y="209.9951">Store and Manage Medical Records</text></g><!--entity printMedicalRecords--><g id="elem_printMedicalRecords"><rect fill="#F1F1F1" height="46.2969" rx="2.5" ry="2.5" style="stroke:#181818;stroke-width:0.5;" width="195" x="2831.5" y="283"/><rect fill="#F1F1F1" height="10" style="stroke:#181818;stroke-width:0.5;" width="15" x="3006.5" y="288"/><rect fill="#F1F1F1" height="2" style="stroke:#181818;stroke-width:0.5;" width="4" x="3004.5" y="290"/><rect fill="#F1F1F1" height="2" style="stroke:#181818;stroke-width:0.5;" width="4" x="3004.5" y="294"/><text fill="#000000" font-family="sans-serif" font-size="14" lengthAdjust="spacing" textLength="155" x="2846.5" y="315.9951">Print Medical Records</text></g><!--entity equipmentStatus--><g id="elem_equipmentStatus"><rect fill="#F1F1F1" height="46.2969" rx="2.5" ry="2.5" style="stroke:#181818;stroke-width:0.5;" width="229" x="3511.5" y="283"/><rect fill="#F1F1F1" height="10" style="stroke:#181818;stroke-width:0.5;" width="15" x="3720.5" y="288"/><rect fill="#F1F1F1" height="2" style="stroke:#181818;stroke-width:0.5;" width="4" x="3718.5" y="290"/><rect fill="#F1F1F1" height="2" style="stroke:#181818;stroke-width:0.5;" width="4" x="3718.5" y="294"/><text fill="#000000" font-family="sans-serif" font-size="14" lengthAdjust="spacing" textLength="189" x="3526.5" y="315.9951">Monitor Equipment Status</text></g><!--entity maintenancePlan--><g id="elem_maintenancePlan"><rect fill="#F1F1F1" height="46.2969" rx="2.5" ry="2.5" style="stroke:#181818;stroke-width:0.5;" width="309" x="3787.5" y="389"/><rect fill="#F1F1F1" height="10" style="stroke:#181818;stroke-width:0.5;" width="15" x="4076.5" y="394"/><rect fill="#F1F1F1" height="2" style="stroke:#181818;stroke-width:0.5;" width="4" x="4074.5" y="396"/><rect fill="#F1F1F1" height="2" style="stroke:#181818;stroke-width:0.5;" width="4" x="4074.5" y="400"/><text fill="#000000" font-family="sans-serif" font-size="14" lengthAdjust="spacing" textLength="269" x="3802.5" y="421.9951">Create Equipment Maintenance Plans</text></g><!--entity advertising--><g id="elem_advertising"><rect fill="#F1F1F1" height="46.2969" rx="2.5" ry="2.5" style="stroke:#181818;stroke-width:0.5;" width="199" x="3634.5" y="177"/><rect fill="#F1F1F1" height="10" style="stroke:#181818;stroke-width:0.5;" width="15" x="3813.5" y="182"/><rect fill="#F1F1F1" height="2" style="stroke:#181818;stroke-width:0.5;" width="4" x="3811.5" y="184"/><rect fill="#F1F1F1" height="2" style="stroke:#181818;stroke-width:0.5;" width="4" x="3811.5" y="188"/><text fill="#000000" font-family="sans-serif" font-size="14" lengthAdjust="spacing" textLength="159" x="3649.5" y="209.9951">CRUD Advertisements</text></g><!--entity voucher--><g id="elem_voucher"><rect fill="#F1F1F1" height="46.2969" rx="2.5" ry="2.5" style="stroke:#181818;stroke-width:0.5;" width="150" x="3869" y="177"/><rect fill="#F1F1F1" height="10" style="stroke:#181818;stroke-width:0.5;" width="15" x="3999" y="182"/><rect fill="#F1F1F1" height="2" style="stroke:#181818;stroke-width:0.5;" width="4" x="3997" y="184"/><rect fill="#F1F1F1" height="2" style="stroke:#181818;stroke-width:0.5;" width="4" x="3997" y="188"/><text fill="#000000" font-family="sans-serif" font-size="14" lengthAdjust="spacing" textLength="110" x="3884" y="209.9951">CRUD Vouchers</text></g><!--entity feedback--><g id="elem_feedback"><rect fill="#F1F1F1" height="46.2969" rx="2.5" ry="2.5" style="stroke:#181818;stroke-width:0.5;" width="167" x="4054.5" y="177"/><rect fill="#F1F1F1" height="10" style="stroke:#181818;stroke-width:0.5;" width="15" x="4201.5" y="182"/><rect fill="#F1F1F1" height="2" style="stroke:#181818;stroke-width:0.5;" width="4" x="4199.5" y="184"/><rect fill="#F1F1F1" height="2" style="stroke:#181818;stroke-width:0.5;" width="4" x="4199.5" y="188"/><text fill="#000000" font-family="sans-serif" font-size="14" lengthAdjust="spacing" textLength="127" x="4069.5" y="209.9951">Service Feedback</text></g><!--entity treatmentPlan--><g id="elem_treatmentPlan"><rect fill="#F1F1F1" height="46.2969" rx="2.5" ry="2.5" style="stroke:#181818;stroke-width:0.5;" width="269" x="1025.5" y="389"/><rect fill="#F1F1F1" height="10" style="stroke:#181818;stroke-width:0.5;" width="15" x="1274.5" y="394"/><rect fill="#F1F1F1" height="2" style="stroke:#181818;stroke-width:0.5;" width="4" x="1272.5" y="396"/><rect fill="#F1F1F1" height="2" style="stroke:#181818;stroke-width:0.5;" width="4" x="1272.5" y="400"/><text fill="#000000" font-family="sans-serif" font-size="14" lengthAdjust="spacing" textLength="229" x="1040.5" y="421.9951">Create Patient Treatment Plans</text></g><!--entity treatmentProgress--><g id="elem_treatmentProgress"><rect fill="#F1F1F1" height="46.2969" rx="2.5" ry="2.5" style="stroke:#181818;stroke-width:0.5;" width="262" x="862" y="177"/><rect fill="#F1F1F1" height="10" style="stroke:#181818;stroke-width:0.5;" width="15" x="1104" y="182"/><rect fill="#F1F1F1" height="2" style="stroke:#181818;stroke-width:0.5;" width="4" x="1102" y="184"/><rect fill="#F1F1F1" height="2" style="stroke:#181818;stroke-width:0.5;" width="4" x="1102" y="188"/><text fill="#000000" font-family="sans-serif" font-size="14" lengthAdjust="spacing" textLength="222" x="877" y="209.9951">Track Treatment Plan Progress</text></g><!--entity serviceContract--><g id="elem_serviceContract"><rect fill="#F1F1F1" height="46.2969" rx="2.5" ry="2.5" style="stroke:#181818;stroke-width:0.5;" width="212" x="2723" y="177"/><rect fill="#F1F1F1" height="10" style="stroke:#181818;stroke-width:0.5;" width="15" x="2915" y="182"/><rect fill="#F1F1F1" height="2" style="stroke:#181818;stroke-width:0.5;" width="4" x="2913" y="184"/><rect fill="#F1F1F1" height="2" style="stroke:#181818;stroke-width:0.5;" width="4" x="2913" y="188"/><text fill="#000000" font-family="sans-serif" font-size="14" lengthAdjust="spacing" textLength="172" x="2738" y="209.9951">CRUD Service Contracts</text></g><!--entity supplyContract--><g id="elem_supplyContract"><rect fill="#F1F1F1" height="46.2969" rx="2.5" ry="2.5" style="stroke:#181818;stroke-width:0.5;" width="208" x="2022" y="283"/><rect fill="#F1F1F1" height="10" style="stroke:#181818;stroke-width:0.5;" width="15" x="2210" y="288"/><rect fill="#F1F1F1" height="2" style="stroke:#181818;stroke-width:0.5;" width="4" x="2208" y="290"/><rect fill="#F1F1F1" height="2" style="stroke:#181818;stroke-width:0.5;" width="4" x="2208" y="294"/><text fill="#000000" font-family="sans-serif" font-size="14" lengthAdjust="spacing" textLength="168" x="2037" y="315.9951">CRUD Supply Contracts</text></g><!--entity potentialCustomer--><g id="elem_potentialCustomer"><rect fill="#F1F1F1" height="46.2969" rx="2.5" ry="2.5" style="stroke:#181818;stroke-width:0.5;" width="322" x="3062" y="283"/><rect fill="#F1F1F1" height="10" style="stroke:#181818;stroke-width:0.5;" width="15" x="3364" y="288"/><rect fill="#F1F1F1" height="2" style="stroke:#181818;stroke-width:0.5;" width="4" x="3362" y="290"/><rect fill="#F1F1F1" height="2" style="stroke:#181818;stroke-width:0.5;" width="4" x="3362" y="294"/><text fill="#000000" font-family="sans-serif" font-size="14" lengthAdjust="spacing" textLength="282" x="3077" y="315.9951">CRUD Potential Customers (Businesses)</text></g><!--entity clinicInfo--><g id="elem_clinicInfo"><rect fill="#F1F1F1" height="46.2969" rx="2.5" ry="2.5" style="stroke:#181818;stroke-width:0.5;" width="212" x="3332" y="177"/><rect fill="#F1F1F1" height="10" style="stroke:#181818;stroke-width:0.5;" width="15" x="3524" y="182"/><rect fill="#F1F1F1" height="2" style="stroke:#181818;stroke-width:0.5;" width="4" x="3522" y="184"/><rect fill="#F1F1F1" height="2" style="stroke:#181818;stroke-width:0.5;" width="4" x="3522" y="188"/><text fill="#000000" font-family="sans-serif" font-size="14" lengthAdjust="spacing" textLength="172" x="3347" y="209.9951">CRUD Clinic Information</text></g><!--entity manager--><g id="elem_manager"><ellipse cx="3598" cy="49.5" fill="#F1F1F1" rx="8" ry="8" style="stroke:#181818;stroke-width:0.5;"/><path d="M3598,57.5 L3598,84.5 M3585,65.5 L3611,65.5 M3598,84.5 L3585,99.5 M3598,84.5 L3611,99.5 " fill="none" style="stroke:#181818;stroke-width:0.5;"/><text fill="#000000" font-family="sans-serif" font-size="14" lengthAdjust="spacing" textLength="61" x="3567.5" y="113.9951">Manager</text></g><!--entity doctor--><g id="elem_doctor"><ellipse cx="1326" cy="49.5" fill="#F1F1F1" rx="8" ry="8" style="stroke:#181818;stroke-width:0.5;"/><path d="M1326,57.5 L1326,84.5 M1313,65.5 L1339,65.5 M1326,84.5 L1313,99.5 M1326,84.5 L1339,99.5 " fill="none" style="stroke:#181818;stroke-width:0.5;"/><text fill="#000000" font-family="sans-serif" font-size="14" lengthAdjust="spacing" textLength="50" x="1301" y="113.9951">Doctor</text></g><!--entity patient--><g id="elem_patient"><ellipse cx="227" cy="49.5" fill="#F1F1F1" rx="8" ry="8" style="stroke:#181818;stroke-width:0.5;"/><path d="M227,57.5 L227,84.5 M214,65.5 L240,65.5 M227,84.5 L214,99.5 M227,84.5 L240,99.5 " fill="none" style="stroke:#181818;stroke-width:0.5;"/><text fill="#000000" font-family="sans-serif" font-size="14" lengthAdjust="spacing" textLength="53" x="200.5" y="113.9951">Patient</text></g><!--link patient to messaging--><g id="link_patient_messaging"><path d="M253.537,94.354 C291.479,114.877 345.7287,144.2212 390.3147,168.3382 " fill="none" id="patient-to-messaging" style="stroke:#181818;stroke-width:1.0;"/><polygon fill="none" points="406.147,176.902,393.1693,163.0607,387.4601,173.6156,406.147,176.902" style="stroke:#181818;stroke-width:1.0;"/></g><!--link patient to medicalHistory--><g id="link_patient_medicalHistory"><path d="M200.413,108.503 C180.915,129.406 167.09,144.2285 149.099,163.5155 " fill="none" id="patient-to-medicalHistory" style="stroke:#181818;stroke-width:1.0;"/><polygon fill="none" points="136.821,176.678,153.4865,167.6082,144.7115,159.4229,136.821,176.678" style="stroke:#181818;stroke-width:1.0;"/></g><!--link doctor to messaging--><g id="link_doctor_messaging"><path d="M1300.64,83.433 C1200.64,96.971 846.2853,144.9442 627.7613,174.5282 " fill="none" id="doctor-to-messaging" style="stroke:#181818;stroke-width:1.0;"/><polygon fill="none" points="609.924,176.943,628.5662,180.4739,626.9563,168.5824,609.924,176.943" style="stroke:#181818;stroke-width:1.0;"/></g><!--link doctor to appointment--><g id="link_doctor_appointment"><path d="M1351.1,89.49 C1401.78,110.175 1508.61,162.364 1473,223 C1456.5,251.097 1442.9445,262.9777 1414.3145,275.6747 " fill="none" id="doctor-to-appointment" style="stroke:#181818;stroke-width:1.0;"/><polygon fill="none" points="1397.86,282.972,1416.7469,281.1595,1411.882,270.1899,1397.86,282.972" style="stroke:#181818;stroke-width:1.0;"/></g><!--link doctor to inventoryTracking--><g id="link_doctor_inventoryTracking"><path d="M1351.33,84.52 C1435.21,99.485 1690.0198,144.9455 1851.6798,173.7875 " fill="none" id="doctor-to-inventoryTracking" style="stroke:#181818;stroke-width:1.0;"/><polygon fill="none" points="1869.4,176.949,1852.7336,167.8808,1850.626,179.6942,1869.4,176.949" style="stroke:#181818;stroke-width:1.0;"/></g><!--link doctor to inventoryManagement--><g id="link_doctor_inventoryManagement"><path d="M1351.21,88.086 C1407.39,106.107 1527.3801,144.5934 1611.0901,171.4434 " fill="none" id="doctor-to-inventoryManagement" style="stroke:#181818;stroke-width:1.0;"/><polygon fill="none" points="1628.23,176.941,1612.9226,165.7301,1609.2576,177.1567,1628.23,176.941" style="stroke:#181818;stroke-width:1.0;"/></g><!--link doctor to appointmentReminder--><g id="link_doctor_appointmentReminder"><path d="M1326,117 C1326,136.65 1326,142.139 1326,158.931 " fill="none" id="doctor-to-appointmentReminder" style="stroke:#181818;stroke-width:1.0;"/><polygon fill="none" points="1326,176.931,1332,158.931,1320,158.931,1326,176.931" style="stroke:#181818;stroke-width:1.0;"/></g><!--link doctor to prescription--><g id="link_doctor_prescription"><path d="M1300.9,85.012 C1229.45,99.29 1018.82,141.438 844,177 C838.332,178.153 850.1308,175.7413 844.2468,176.9433 " fill="none" id="doctor-to-prescription" style="stroke:#181818;stroke-width:1.0;"/><polygon fill="none" points="826.611,180.546,845.4477,182.8219,843.0459,171.0647,826.611,180.546" style="stroke:#181818;stroke-width:1.0;"/></g><!--link doctor to treatmentPlan--><g id="link_doctor_treatmentPlan"><path d="M1300.81,88.593 C1266.62,101.721 1206.64,130.291 1179,177 C1138.63,245.228 1145.7563,327.0885 1152.8863,371.0197 " fill="none" id="doctor-to-treatmentPlan" style="stroke:#181818;stroke-width:1.0;"/><polygon fill="none" points="1155.77,388.7872,1158.8089,370.0585,1146.9638,371.9809,1155.77,388.7872" style="stroke:#181818;stroke-width:1.0;"/></g><!--link doctor to treatmentProgress--><g id="link_doctor_treatmentProgress"><path d="M1300.97,88.944 C1249.17,107.457 1145.8102,144.3926 1071.8302,170.8306 " fill="none" id="doctor-to-treatmentProgress" style="stroke:#181818;stroke-width:1.0;"/><polygon fill="none" points="1054.88,176.888,1073.8493,176.4806,1069.811,165.1805,1054.88,176.888" style="stroke:#181818;stroke-width:1.0;"/></g><!--link doctor to supplyContract--><g id="link_doctor_supplyContract"><path d="M1351.12,94.252 C1383.01,112.57 1439.49,145.747 1486,177 C1514.48,196.137 1516.26,209.967 1548,223 C1631.62,257.335 1861.4021,282.024 2003.9321,294.816 " fill="none" id="doctor-to-supplyContract" style="stroke:#181818;stroke-width:1.0;"/><polygon fill="none" points="2021.86,296.425,2004.4684,288.84,2003.3957,300.792,2021.86,296.425" style="stroke:#181818;stroke-width:1.0;"/></g><!--link manager to medicalRecords--><g id="link_manager_medicalRecords"><path d="M3567.42,87.534 C3495.77,105.186 3332.2873,145.4658 3222.1673,172.5978 " fill="none" id="manager-to-medicalRecords" style="stroke:#181818;stroke-width:1.0;"/><polygon fill="none" points="3204.69,176.904,3223.6027,178.4236,3220.7319,166.7721,3204.69,176.904" style="stroke:#181818;stroke-width:1.0;"/></g><!--link manager to terminateEmployee--><g id="link_manager_terminateEmployee"><path d="M3628.73,84.088 C3723.78,96.811 4021.39,137.241 4267,177 C4275.89,178.439 4267.3795,176.9434 4276.6295,178.5314 " fill="none" id="manager-to-terminateEmployee" style="stroke:#181818;stroke-width:1.0;"/><polygon fill="none" points="4294.37,181.577,4277.6447,172.6179,4275.6143,184.4449,4294.37,181.577" style="stroke:#181818;stroke-width:1.0;"/></g><!--link manager to financialTracking--><g id="link_manager_financialTracking"><path d="M3567.13,82.845 C3452.79,93.489 3042.68,132.637 2706,177 C2700.19,177.766 2712.0762,176.0813 2706.0762,176.9213 " fill="none" id="manager-to-financialTracking" style="stroke:#181818;stroke-width:1.0;"/><polygon fill="none" points="2688.25,179.417,2706.908,182.8634,2705.2443,170.9793,2688.25,179.417" style="stroke:#181818;stroke-width:1.0;"/></g><!--link manager to financialReports--><g id="link_manager_financialReports"><path d="M3628.78,81.485 C3764.85,88.266 4325.9,118.51 4783,177 C4788.62,177.719 4776.5485,175.915 4782.3485,176.761 " fill="none" id="manager-to-financialReports" style="stroke:#181818;stroke-width:1.0;"/><polygon fill="none" points="4800.16,179.359,4783.2145,170.8238,4781.4825,182.6981,4800.16,179.359" style="stroke:#181818;stroke-width:1.0;"/></g><!--link manager to inventoryTracking--><g id="link_manager_inventoryTracking"><path d="M3567.39,81.102 C3413.77,86.828 2711.59,115.319 2140,177 C2134.23,177.623 2146.196,176.1134 2140.256,176.8424 " fill="none" id="manager-to-inventoryTracking" style="stroke:#181818;stroke-width:1.0;"/><polygon fill="none" points="2122.39,179.035,2140.9868,182.7977,2139.5251,170.887,2122.39,179.035" style="stroke:#181818;stroke-width:1.0;"/></g><!--link manager to inventoryManagement--><g id="link_manager_inventoryManagement"><path d="M3567.39,80.663 C3396.32,84.58 2541.45,106.983 1847,177 C1840.98,177.607 1852.7079,176.19 1846.4979,176.917 " fill="none" id="manager-to-inventoryManagement" style="stroke:#181818;stroke-width:1.0;"/><polygon fill="none" points="1828.62,179.01,1847.1956,182.8763,1845.8003,170.9577,1828.62,179.01" style="stroke:#181818;stroke-width:1.0;"/></g><!--link manager to equipmentStatus--><g id="link_manager_equipmentStatus"><path d="M3592.87,117.154 C3594.22,164.335 3600.0345,226.8684 3610.5345,265.4614 " fill="none" id="manager-to-equipmentStatus" style="stroke:#181818;stroke-width:1.0;"/><polygon fill="none" points="3615.26,282.83,3616.3241,263.8862,3604.745,267.0365,3615.26,282.83" style="stroke:#181818;stroke-width:1.0;"/></g><!--link manager to equipmentStatus--><g id="link_manager_equipmentStatus"><path d="M3612.96,117.154 C3623.61,164.335 3633.4934,226.2461 3632.2634,264.8391 " fill="none" id="manager-to-equipmentStatus-1" style="stroke:#181818;stroke-width:1.0;"/><polygon fill="none" points="3631.69,282.83,3638.2603,265.0303,3626.2664,264.648,3631.69,282.83" style="stroke:#181818;stroke-width:1.0;"/></g><!--link manager to maintenancePlan--><g id="link_manager_maintenancePlan"><path d="M3628.66,79.61 C3743.68,79.185 4143.01,85.161 4222,177 C4301.72,269.694 4125.1814,345.2881 4020.3714,382.9144 " fill="none" id="manager-to-maintenancePlan" style="stroke:#181818;stroke-width:1.0;"/><polygon fill="none" points="4003.43,388.9963,4022.3987,388.5616,4018.3441,377.2673,4003.43,388.9963" style="stroke:#181818;stroke-width:1.0;"/></g><!--link manager to maintenancePlan--><g id="link_manager_maintenancePlan"><path d="M3628.83,79.68 C3748.55,78.86 4175.08,81.748 4257,177 C4336.72,269.694 4160.3931,345.9138 4042.1031,383.5401 " fill="none" id="manager-to-maintenancePlan-1" style="stroke:#181818;stroke-width:1.0;"/><polygon fill="none" points="4024.95,388.9963,4043.9219,389.2579,4040.2844,377.8224,4024.95,388.9963" style="stroke:#181818;stroke-width:1.0;"/></g><!--link manager to advertising--><g id="link_manager_advertising"><path d="M3628.52,106.706 C3652.64,127.812 3672.3619,145.0729 3695.0519,164.9209 " fill="none" id="manager-to-advertising" style="stroke:#181818;stroke-width:1.0;"/><polygon fill="none" points="3708.6,176.772,3699.0023,160.4048,3691.1015,169.4369,3708.6,176.772" style="stroke:#181818;stroke-width:1.0;"/></g><!--link manager to voucher--><g id="link_manager_voucher"><path d="M3628.71,90.56 C3684.85,109.872 3788.1485,145.3979 3862.8485,171.0889 " fill="none" id="manager-to-voucher" style="stroke:#181818;stroke-width:1.0;"/><polygon fill="none" points="3879.87,176.943,3864.7999,165.4151,3860.8972,176.7628,3879.87,176.943" style="stroke:#181818;stroke-width:1.0;"/></g><!--link manager to feedback--><g id="link_manager_feedback"><path d="M3628.58,86.739 C3709.57,104.587 3914.2017,149.6824 4036.6817,176.6724 " fill="none" id="manager-to-feedback" style="stroke:#181818;stroke-width:1.0;"/><polygon fill="none" points="4054.26,180.546,4037.9729,170.813,4035.3905,182.5318,4054.26,180.546" style="stroke:#181818;stroke-width:1.0;"/></g><!--link manager to serviceContract--><g id="link_manager_serviceContract"><path d="M3567.4,84.309 C3474.74,97.423 3189.07,138.315 2953,177 C2947.17,177.955 2958.9474,175.948 2952.9174,176.969 " fill="none" id="manager-to-serviceContract" style="stroke:#181818;stroke-width:1.0;"/><polygon fill="none" points="2935.17,179.974,2953.9191,182.8848,2951.9157,171.0532,2935.17,179.974" style="stroke:#181818;stroke-width:1.0;"/></g><!--link manager to potentialCustomer--><g id="link_manager_potentialCustomer"><path d="M3567.5,84.213 C3512.35,93.095 3394.43,118 3315,177 C3304.81,184.568 3271.1432,233.4518 3247.8332,268.0218 " fill="none" id="manager-to-potentialCustomer" style="stroke:#181818;stroke-width:1.0;"/><polygon fill="none" points="3237.77,282.946,3252.8079,271.3762,3242.8584,264.6674,3237.77,282.946" style="stroke:#181818;stroke-width:1.0;"/></g><!--link manager to clinicInfo--><g id="link_manager_clinicInfo"><path d="M3567.15,102.944 C3538.45,124.287 3510.4229,145.1314 3482.1129,166.1884 " fill="none" id="manager-to-clinicInfo" style="stroke:#181818;stroke-width:1.0;"/><polygon fill="none" points="3467.67,176.931,3485.6937,171.0027,3478.532,161.3741,3467.67,176.931" style="stroke:#181818;stroke-width:1.0;"/></g><!--link manager to employeeInfo--><g id="link_manager_employeeInfo"><path d="M3628.53,82.724 C3743.44,93.091 4160.7,131.789 4503,177 C4508.61,177.741 4496.5161,176.014 4502.3061,176.83 " fill="none" id="manager-to-employeeInfo" style="stroke:#181818;stroke-width:1.0;"/><polygon fill="none" points="4520.13,179.342,4503.1435,170.8887,4501.4688,182.7713,4520.13,179.342" style="stroke:#181818;stroke-width:1.0;"/></g><!--link manager to employeeSchedule--><g id="link_manager_employeeSchedule"><path d="M3567.45,81.416 C3430.66,88.559 2865.88,122.463 2406,177 C2405.5,177.059 2422.8818,174.9734 2422.3818,175.0334 " fill="none" id="manager-to-employeeSchedule" style="stroke:#181818;stroke-width:1.0;"/><polygon fill="none" points="2404.51,177.178,2423.0967,180.9906,2421.6669,169.0761,2404.51,177.178" style="stroke:#181818;stroke-width:1.0;"/></g><!--link manager to employeeSchedule--><g id="link_manager_employeeSchedule"><path d="M3567.48,82.098 C3433.29,90.525 2887.67,124.03 2441,177 C2429.23,178.395 2434.7635,177.5156 2422.4435,179.2536 " fill="none" id="manager-to-employeeSchedule-1" style="stroke:#181818;stroke-width:1.0;"/><polygon fill="none" points="2404.62,181.768,2423.2816,185.1948,2421.6054,173.3124,2404.62,181.768" style="stroke:#181818;stroke-width:1.0;"/></g><!--link clinicInfo to maintenancePlan--><g id="link_clinicInfo_maintenancePlan"><path d="M3441.23,223.172 C3446.69,252.224 3460.63,302.575 3494,329 C3538.9,364.555 3658.5649,384.1887 3769.5249,396.2191 " fill="none" id="clinicInfo-to-maintenancePlan" style="stroke:#181818;stroke-width:1.0;"/><polygon fill="none" points="3787.42,398.1593,3770.1716,390.254,3768.8781,402.1841,3787.42,398.1593" style="stroke:#181818;stroke-width:1.0;"/></g><!--link clinicInfo to equipmentStatus--><g id="link_clinicInfo_equipmentStatus"><path d="M3477.87,223.056 C3509.77,240.705 3538.5493,256.622 3570.4393,274.263 " fill="none" id="clinicInfo-to-equipmentStatus" style="stroke:#181818;stroke-width:1.0;"/><polygon fill="none" points="3586.19,282.976,3573.3437,269.0128,3567.535,279.5132,3586.19,282.976" style="stroke:#181818;stroke-width:1.0;"/></g><!--link invoice to financialReports--><g id="link_invoice_financialReports"><path d="M4909,102.104 C4909,123.344 4909,137.275 4909,158.61 " fill="none" id="invoice-to-financialReports" style="stroke:#181818;stroke-width:1.0;"/><polygon fill="none" points="4909,176.61,4915,158.61,4903,158.61,4909,176.61" style="stroke:#181818;stroke-width:1.0;"/></g><!--link appointmentReminder to appointment--><g id="link_appointmentReminder_appointment"><path d="M1326,223.056 C1326,240.705 1326,247.335 1326,264.976 " fill="none" id="appointmentReminder-to-appointment" style="stroke:#181818;stroke-width:1.0;"/><polygon fill="none" points="1326,282.976,1332,264.976,1320,264.976,1326,282.976" style="stroke:#181818;stroke-width:1.0;"/></g><!--link medicalRecords to printMedicalRecords--><g id="link_medicalRecords_printMedicalRecords"><path d="M3075.55,223.056 C3043.99,240.705 3015.6508,256.5504 2984.1008,274.1914 " fill="none" id="medicalRecords-to-printMedicalRecords" style="stroke:#181818;stroke-width:1.0;"/><polygon fill="none" points="2968.39,282.976,2987.029,279.4283,2981.1726,268.9544,2968.39,282.976" style="stroke:#181818;stroke-width:1.0;"/></g><!--link appointment to treatmentPlan--><g id="link_appointment_treatmentPlan"><path d="M1290.8,329.056 C1262.62,346.705 1238.564,361.7794 1210.404,379.4202 " fill="none" id="appointment-to-treatmentPlan" style="stroke:#181818;stroke-width:1.0;"/><polygon fill="none" points="1195.15,388.9761,1213.5893,384.5049,1207.2187,374.3356,1195.15,388.9761" style="stroke:#181818;stroke-width:1.0;"/></g><!--link treatmentProgress to treatmentPlan--><g id="link_treatmentProgress_treatmentPlan"><path d="M1010.56,223.077 C1042.63,263.409 1099.1355,334.4695 1131.2255,374.8164 " fill="none" id="treatmentProgress-to-treatmentPlan" style="stroke:#181818;stroke-width:1.0;"/><polygon fill="none" points="1142.43,388.9039,1135.9213,371.0815,1126.5296,378.5512,1142.43,388.9039" style="stroke:#181818;stroke-width:1.0;"/></g><!--link clinicInfo to treatmentPlan--><g id="link_clinicInfo_treatmentPlan"><path d="M3442.46,223.187 C3446.86,252.258 3449.25,302.628 3420,329 C3340.83,400.3732 1787.3299,409.618 1312.6299,410.7941 " fill="none" id="clinicInfo-to-treatmentPlan" style="stroke:#181818;stroke-width:1.0;"/><polygon fill="none" points="1294.63,410.8387,1312.6448,416.7941,1312.6151,404.7941,1294.63,410.8387" style="stroke:#181818;stroke-width:1.0;"/></g><!--link potentialCustomer to potentialCustomer--><g id="link_potentialCustomer_potentialCustomer"><path d="M3384.1,288.527 C3405.1,291.532 3419,297.356 3419,306 C3419,314.644 3422.9185,317.9183 3401.9185,320.9233 " fill="none" id="potentialCustomer-to-potentialCustomer" style="stroke:#181818;stroke-width:1.0;"/><polygon fill="none" points="3384.1,323.473,3402.7684,326.8628,3401.0686,314.9838,3384.1,323.473" style="stroke:#181818;stroke-width:1.0;"/></g><!--link patientInfo to medicalHistory--><g id="link_patientInfo_medicalHistory"><path d="M440.072,102.104 C368.697,123.445 278.4696,150.4226 207.1146,171.7576 " fill="none" id="patientInfo-to-medicalHistory" style="stroke:#181818;stroke-width:1.0;"/><polygon fill="none" points="189.869,176.914,208.8334,177.5061,205.3958,166.0091,189.869,176.914" style="stroke:#181818;stroke-width:1.0;"/></g><!--link patientInfo to prescription--><g id="link_patientInfo_prescription"><path d="M555.422,102.104 C595.35,123.411 639.5606,147.0038 679.5416,168.3388 " fill="none" id="patientInfo-to-prescription" style="stroke:#181818;stroke-width:1.0;"/><polygon fill="none" points="695.422,176.813,682.3663,163.0453,676.7168,173.6322,695.422,176.813" style="stroke:#181818;stroke-width:1.0;"/></g><!--link patientInfo to treatmentPlan--><g id="link_patientInfo_treatmentPlan"><path d="M401.309,102.085 C314.172,124.26 215.857,163.707 264,223 C358.364,339.219 781.0519,384.8693 1007.2689,401.5782 " fill="none" id="patientInfo-to-treatmentPlan" style="stroke:#181818;stroke-width:1.0;"/><polygon fill="none" points="1025.22,402.9041,1007.7109,395.5945,1006.8269,407.5619,1025.22,402.9041" style="stroke:#181818;stroke-width:1.0;"/></g><!--link patientInfo to treatmentProgress--><g id="link_patientInfo_treatmentProgress"><path d="M602.694,102.035 C688.693,123.4 800.96,151.29 886.928,172.648 " fill="none" id="patientInfo-to-treatmentProgress" style="stroke:#181818;stroke-width:1.0;"/><polygon fill="none" points="904.397,176.988,888.3747,166.825,885.4814,178.471,904.397,176.988" style="stroke:#181818;stroke-width:1.0;"/></g><!--link clinicInfo to clinicInfo--><g id="link_clinicInfo_clinicInfo"><path d="M3544.07,181.042 C3564.51,183.277 3579,189.597 3579,200 C3579,210.403 3582.4033,214.7665 3561.9633,217.0015 " fill="none" id="clinicInfo-to-clinicInfo" style="stroke:#181818;stroke-width:1.0;"/><polygon fill="none" points="3544.07,218.958,3562.6155,222.9659,3561.3112,211.037,3544.07,218.958" style="stroke:#181818;stroke-width:1.0;"/></g><!--link clinicInfo to potentialCustomer--><g id="link_clinicInfo_potentialCustomer"><path d="M3392.4,223.056 C3355.92,240.705 3321.2039,257.497 3284.7339,275.138 " fill="none" id="clinicInfo-to-potentialCustomer" style="stroke:#181818;stroke-width:1.0;"/><polygon fill="none" points="3268.53,282.976,3287.3465,280.5393,3282.1212,269.7367,3268.53,282.976" style="stroke:#181818;stroke-width:1.0;"/></g><!--link serviceContract to supplyContract--><g id="link_serviceContract_supplyContract"><path d="M2722.7,220.262 C2717.06,221.207 2711.46,222.126 2706,223 C2539.93,249.581 2364.224,273.6742 2248.004,289.0762 " fill="none" id="serviceContract-to-supplyContract" style="stroke:#181818;stroke-width:1.0;"/><polygon fill="none" points="2230.16,291.441,2248.7922,295.0242,2247.2157,283.1282,2230.16,291.441" style="stroke:#181818;stroke-width:1.0;"/></g><!--link financialReports to financialReports--><g id="link_financialReports_financialReports"><path d="M5017.57,181.11 C5038.05,183.404 5052.5,189.7 5052.5,200 C5052.5,210.3 5055.9381,214.5923 5035.4581,216.8863 " fill="none" id="financialReports-to-financialReports" style="stroke:#181818;stroke-width:1.0;"/><polygon fill="none" points="5017.57,218.89,5036.126,222.849,5034.7902,210.9236,5017.57,218.89" style="stroke:#181818;stroke-width:1.0;"/></g><!--link equipmentStatus to maintenancePlan--><g id="link_equipmentStatus_maintenancePlan"><path d="M3693.02,329.056 C3746.64,346.705 3804.3822,365.7081 3857.9822,383.3489 " fill="none" id="equipmentStatus-to-maintenancePlan" style="stroke:#181818;stroke-width:1.0;"/><polygon fill="none" points="3875.08,388.9761,3859.8579,377.6496,3856.1065,389.0481,3875.08,388.9761" style="stroke:#181818;stroke-width:1.0;"/></g><!--link equipmentStatus to equipmentStatus--><g id="link_equipmentStatus_equipmentStatus"><path d="M3740.71,287.291 C3761.19,289.723 3775.5,295.959 3775.5,306 C3775.5,316.041 3779.0644,320.1544 3758.5844,322.5864 " fill="none" id="equipmentStatus-to-equipmentStatus" style="stroke:#181818;stroke-width:1.0;"/><polygon fill="none" points="3740.71,324.709,3759.2919,328.5446,3757.8769,316.6283,3740.71,324.709" style="stroke:#181818;stroke-width:1.0;"/></g><!--SRC=[hLR9Rjim4BthAnYVsaD-eK3gE4s0kZ3iD9UY1qQQE4GbIYKffqRRV-zmCrVT2WIE_DuRSdRvgeCNne7iD-l7co-VFcz8srCfc-RA4RE4bihB_q3GLet2VWQGSGNYXRRHKo0dslwWnyl_G02V1_FHD5wpkWVQgzUM2Y1RoX4QW2joE4i5muhyRWZvzWXYO9mg89jXwiSpm7T29L4UzgZMRa5AUcJyI9v1lG5mSZlQ07X7TbGnF5qQyy4hjTbw__NMq-I1lunYm2yZDyh9uXhMsa_0GMXl7lXfPArrXjddoratqpHYQeRBTJG0MlJ4u8rieMCjxSaza-ZYsRbbC0TTplCn5iw18xntDeb1VsXVePjxa8dQeoQz0cj1zd32oe39q-RN15mw4wmSvIsZlT7vV0dG6RZp79fFer2PXGEr0UOA8yU8p0M7UPhwC_4d-WnQHNoFYoPO8yabDYE6BrEpq3tQy01uJLG4T12RfGDHLCCJeGq4o5QmATmnHOWv7E-pcNB- -KBkeHr59-D2EaYRxGHUMTLEcjaM1jkHCzsxcvypc-nSAAfcLqeFMYogIf1lgHvFNGqWkvwwS8Q0QZ3qR7S2ePY4g6iT58_9qpXZzxX4dkmNct9nmX4WTm3TCvRGzeBx4hddn-nHVpLk1jUKnxnZjZbJALPeF699SXE7NXpr3gr7hl0O5vAqg0U3slPa9ZPWeTsDc3-b-tuzuvmEc0toxkECQSBxGRwtHVKYhxcOhtl6MLkCScjWCyWDQktYNTaM4ojREVCSIBlS3DUPnq2vDA-Y3MQETS_a-lhFXsG9PaIoXf2svvTcCPukkPYfJNULJyPuuUneP6D5DgQMCapULbKgj4zyQD41hWP9ciBC9cpj3PK8QhkrBWYhDE5hQQqBahmcadAHf24MsoAXqmsHK64tf365bP3WvM0cT6sS4a4qFdc4wJkooaLlnF-OdShfmSsb4t95wOBxjR7O8vLPgGreshr-Y6gleiYEL2Ug6AEwB0yjvuiYBzS- -bLMNLaLHROW2hxmPbaGbaKUKjA6ELaB9ElxXRM3VtcX5ykVDSnIdrLbPRCrV_y1]--></g></svg>