<?xml version="1.0" encoding="us-ascii" standalone="no"?><svg xmlns="http://www.w3.org/2000/svg" xmlns:xlink="http://www.w3.org/1999/xlink" contentStyleType="text/css" height="458px" preserveAspectRatio="none" style="width:4965px;height:458px;background:#FFFFFF;" version="1.1" viewBox="0 0 4965 458" width="4965px" zoomAndPan="magnify"><defs/><g><!--cluster Healthcare Management System--><g id="cluster_Healthcare Management System"><path d="M8.5,6 L272.5,6 A3.75,3.75 0 0 1 275,8.5 L282,28.2969 L4955.5,28.2969 A2.5,2.5 0 0 1 4958,30.7969 L4958,448.5 A2.5,2.5 0 0 1 4955.5,451 L8.5,451 A2.5,2.5 0 0 1 6,448.5 L6,8.5 A2.5,2.5 0 0 1 8.5,6 " fill="none" style="stroke:#000000;stroke-width:1.5;"/><line style="stroke:#000000;stroke-width:1.5;" x1="6" x2="282" y1="28.2969" y2="28.2969"/><text fill="#000000" font-family="sans-serif" font-size="14" font-weight="bold" lengthAdjust="spacing" textLength="263" x="10" y="20.9951">Healthcare Management System</text></g><!--entity terminateEmployee--><g id="elem_terminateEmployee"><rect fill="#F1F1F1" height="46.2969" rx="2.5" ry="2.5" style="stroke:#181818;stroke-width:0.5;" width="191" x="2970.5" y="177"/><rect fill="#F1F1F1" height="10" style="stroke:#181818;stroke-width:0.5;" width="15" x="3141.5" y="182"/><rect fill="#F1F1F1" height="2" style="stroke:#181818;stroke-width:0.5;" width="4" x="3139.5" y="184"/><rect fill="#F1F1F1" height="2" style="stroke:#181818;stroke-width:0.5;" width="4" x="3139.5" y="188"/><text fill="#000000" font-family="sans-serif" font-size="14" lengthAdjust="spacing" textLength="151" x="2985.5" y="209.9951">Terminate Employee</text></g><!--entity messaging--><g id="elem_messaging"><rect fill="#F1F1F1" height="46.2969" rx="2.5" ry="2.5" style="stroke:#181818;stroke-width:0.5;" width="330" x="282" y="177"/><rect fill="#F1F1F1" height="10" style="stroke:#181818;stroke-width:0.5;" width="15" x="592" y="182"/><rect fill="#F1F1F1" height="2" style="stroke:#181818;stroke-width:0.5;" width="4" x="590" y="184"/><rect fill="#F1F1F1" height="2" style="stroke:#181818;stroke-width:0.5;" width="4" x="590" y="188"/><text fill="#000000" font-family="sans-serif" font-size="14" lengthAdjust="spacing" textLength="290" x="297" y="209.9951">Messaging between Doctor and Patients</text></g><!--entity patientInfo--><g id="elem_patientInfo"><rect fill="#F1F1F1" height="46.2969" rx="2.5" ry="2.5" style="stroke:#181818;stroke-width:0.5;" width="226" x="401" y="56"/><rect fill="#F1F1F1" height="10" style="stroke:#181818;stroke-width:0.5;" width="15" x="607" y="61"/><rect fill="#F1F1F1" height="2" style="stroke:#181818;stroke-width:0.5;" width="4" x="605" y="63"/><rect fill="#F1F1F1" height="2" style="stroke:#181818;stroke-width:0.5;" width="4" x="605" y="67"/><text fill="#000000" font-family="sans-serif" font-size="14" lengthAdjust="spacing" textLength="186" x="416" y="88.9951">CRUD Patient Information</text></g><!--entity invoice--><g id="elem_invoice"><rect fill="#F1F1F1" height="46.2969" rx="2.5" ry="2.5" style="stroke:#181818;stroke-width:0.5;" width="163" x="4454.5" y="56"/><rect fill="#F1F1F1" height="10" style="stroke:#181818;stroke-width:0.5;" width="15" x="4597.5" y="61"/><rect fill="#F1F1F1" height="2" style="stroke:#181818;stroke-width:0.5;" width="4" x="4595.5" y="63"/><rect fill="#F1F1F1" height="2" style="stroke:#181818;stroke-width:0.5;" width="4" x="4595.5" y="67"/><text fill="#000000" font-family="sans-serif" font-size="14" lengthAdjust="spacing" textLength="123" x="4469.5" y="88.9951">Generate Invoice</text></g><!--entity appointment--><g id="elem_appointment"><rect fill="#F1F1F1" height="46.2969" rx="2.5" ry="2.5" style="stroke:#181818;stroke-width:0.5;" width="189" x="1181.5" y="283"/><rect fill="#F1F1F1" height="10" style="stroke:#181818;stroke-width:0.5;" width="15" x="1350.5" y="288"/><rect fill="#F1F1F1" height="2" style="stroke:#181818;stroke-width:0.5;" width="4" x="1348.5" y="290"/><rect fill="#F1F1F1" height="2" style="stroke:#181818;stroke-width:0.5;" width="4" x="1348.5" y="294"/><text fill="#000000" font-family="sans-serif" font-size="14" lengthAdjust="spacing" textLength="149" x="1196.5" y="315.9951">CRUD Appointments</text></g><!--entity medicalHistory--><g id="elem_medicalHistory"><rect fill="#F1F1F1" height="46.2969" rx="2.5" ry="2.5" style="stroke:#181818;stroke-width:0.5;" width="187" x="22.5" y="177"/><rect fill="#F1F1F1" height="10" style="stroke:#181818;stroke-width:0.5;" width="15" x="189.5" y="182"/><rect fill="#F1F1F1" height="2" style="stroke:#181818;stroke-width:0.5;" width="4" x="187.5" y="184"/><rect fill="#F1F1F1" height="2" style="stroke:#181818;stroke-width:0.5;" width="4" x="187.5" y="188"/><text fill="#000000" font-family="sans-serif" font-size="14" lengthAdjust="spacing" textLength="147" x="37.5" y="209.9951">View Medical History</text></g><!--entity employeeInfo--><g id="elem_employeeInfo"><rect fill="#F1F1F1" height="46.2969" rx="2.5" ry="2.5" style="stroke:#181818;stroke-width:0.5;" width="245" x="4158.5" y="177"/><rect fill="#F1F1F1" height="10" style="stroke:#181818;stroke-width:0.5;" width="15" x="4383.5" y="182"/><rect fill="#F1F1F1" height="2" style="stroke:#181818;stroke-width:0.5;" width="4" x="4381.5" y="184"/><rect fill="#F1F1F1" height="2" style="stroke:#181818;stroke-width:0.5;" width="4" x="4381.5" y="188"/><text fill="#000000" font-family="sans-serif" font-size="14" lengthAdjust="spacing" textLength="205" x="4173.5" y="209.9951">CRUD Employee Information</text></g><!--entity employeeSchedule--><g id="elem_employeeSchedule"><rect fill="#F1F1F1" height="46.2969" rx="2.5" ry="2.5" style="stroke:#181818;stroke-width:0.5;" width="247" x="2404.5" y="177"/><rect fill="#F1F1F1" height="10" style="stroke:#181818;stroke-width:0.5;" width="15" x="2631.5" y="182"/><rect fill="#F1F1F1" height="2" style="stroke:#181818;stroke-width:0.5;" width="4" x="2629.5" y="184"/><rect fill="#F1F1F1" height="2" style="stroke:#181818;stroke-width:0.5;" width="4" x="2629.5" y="188"/><text fill="#000000" font-family="sans-serif" font-size="14" lengthAdjust="spacing" textLength="207" x="2419.5" y="209.9951">Manage Employee Schedules</text></g><!--entity financialTracking--><g id="elem_financialTracking"><rect fill="#F1F1F1" height="46.2969" rx="2.5" ry="2.5" style="stroke:#181818;stroke-width:0.5;" width="248" x="2687" y="177"/><rect fill="#F1F1F1" height="10" style="stroke:#181818;stroke-width:0.5;" width="15" x="2915" y="182"/><rect fill="#F1F1F1" height="2" style="stroke:#181818;stroke-width:0.5;" width="4" x="2913" y="184"/><rect fill="#F1F1F1" height="2" style="stroke:#181818;stroke-width:0.5;" width="4" x="2913" y="188"/><text fill="#000000" font-family="sans-serif" font-size="14" lengthAdjust="spacing" textLength="208" x="2702" y="209.9951">Track Revenue and Expenses</text></g><!--entity financialReports--><g id="elem_financialReports"><rect fill="#F1F1F1" height="46.2969" rx="2.5" ry="2.5" style="stroke:#181818;stroke-width:0.5;" width="217" x="4476.5" y="177"/><rect fill="#F1F1F1" height="10" style="stroke:#181818;stroke-width:0.5;" width="15" x="4673.5" y="182"/><rect fill="#F1F1F1" height="2" style="stroke:#181818;stroke-width:0.5;" width="4" x="4671.5" y="184"/><rect fill="#F1F1F1" height="2" style="stroke:#181818;stroke-width:0.5;" width="4" x="4671.5" y="188"/><text fill="#000000" font-family="sans-serif" font-size="14" lengthAdjust="spacing" textLength="177" x="4491.5" y="209.9951">Create Financial Reports</text></g><!--entity inventoryTracking--><g id="elem_inventoryTracking"><rect fill="#F1F1F1" height="46.2969" rx="2.5" ry="2.5" style="stroke:#181818;stroke-width:0.5;" width="258" x="1864" y="177"/><rect fill="#F1F1F1" height="10" style="stroke:#181818;stroke-width:0.5;" width="15" x="2102" y="182"/><rect fill="#F1F1F1" height="2" style="stroke:#181818;stroke-width:0.5;" width="4" x="2100" y="184"/><rect fill="#F1F1F1" height="2" style="stroke:#181818;stroke-width:0.5;" width="4" x="2100" y="188"/><text fill="#000000" font-family="sans-serif" font-size="14" lengthAdjust="spacing" textLength="218" x="1879" y="209.9951">Inventory and Supply Tracking</text></g><!--entity inventoryManagement--><g id="elem_inventoryManagement"><rect fill="#F1F1F1" height="46.2969" rx="2.5" ry="2.5" style="stroke:#181818;stroke-width:0.5;" width="263" x="1565.5" y="177"/><rect fill="#F1F1F1" height="10" style="stroke:#181818;stroke-width:0.5;" width="15" x="1808.5" y="182"/><rect fill="#F1F1F1" height="2" style="stroke:#181818;stroke-width:0.5;" width="4" x="1806.5" y="184"/><rect fill="#F1F1F1" height="2" style="stroke:#181818;stroke-width:0.5;" width="4" x="1806.5" y="188"/><text fill="#000000" font-family="sans-serif" font-size="14" lengthAdjust="spacing" textLength="223" x="1580.5" y="209.9951">Manage Inventory Transactions</text></g><!--entity appointmentReminder--><g id="elem_appointmentReminder"><rect fill="#F1F1F1" height="46.2969" rx="2.5" ry="2.5" style="stroke:#181818;stroke-width:0.5;" width="259" x="1196.5" y="177"/><rect fill="#F1F1F1" height="10" style="stroke:#181818;stroke-width:0.5;" width="15" x="1435.5" y="182"/><rect fill="#F1F1F1" height="2" style="stroke:#181818;stroke-width:0.5;" width="4" x="1433.5" y="184"/><rect fill="#F1F1F1" height="2" style="stroke:#181818;stroke-width:0.5;" width="4" x="1433.5" y="188"/><text fill="#000000" font-family="sans-serif" font-size="14" lengthAdjust="spacing" textLength="219" x="1211.5" y="209.9951">Send Appointment Reminders</text></g><!--entity prescription--><g id="elem_prescription"><rect fill="#F1F1F1" height="46.2969" rx="2.5" ry="2.5" style="stroke:#181818;stroke-width:0.5;" width="179" x="647.5" y="177"/><rect fill="#F1F1F1" height="10" style="stroke:#181818;stroke-width:0.5;" width="15" x="806.5" y="182"/><rect fill="#F1F1F1" height="2" style="stroke:#181818;stroke-width:0.5;" width="4" x="804.5" y="184"/><rect fill="#F1F1F1" height="2" style="stroke:#181818;stroke-width:0.5;" width="4" x="804.5" y="188"/><text fill="#000000" font-family="sans-serif" font-size="14" lengthAdjust="spacing" textLength="139" x="662.5" y="209.9951">CRUD Prescriptions</text></g><!--entity medicalRecords--><g id="elem_medicalRecords"><rect fill="#F1F1F1" height="46.2969" rx="2.5" ry="2.5" style="stroke:#181818;stroke-width:0.5;" width="289" x="4652.5" y="56"/><rect fill="#F1F1F1" height="10" style="stroke:#181818;stroke-width:0.5;" width="15" x="4921.5" y="61"/><rect fill="#F1F1F1" height="2" style="stroke:#181818;stroke-width:0.5;" width="4" x="4919.5" y="63"/><rect fill="#F1F1F1" height="2" style="stroke:#181818;stroke-width:0.5;" width="4" x="4919.5" y="67"/><text fill="#000000" font-family="sans-serif" font-size="14" lengthAdjust="spacing" textLength="249" x="4667.5" y="88.9951">Store and Manage Medical Records</text></g><!--entity printMedicalRecords--><g id="elem_printMedicalRecords"><rect fill="#F1F1F1" height="46.2969" rx="2.5" ry="2.5" style="stroke:#181818;stroke-width:0.5;" width="195" x="4746.5" y="177"/><rect fill="#F1F1F1" height="10" style="stroke:#181818;stroke-width:0.5;" width="15" x="4921.5" y="182"/><rect fill="#F1F1F1" height="2" style="stroke:#181818;stroke-width:0.5;" width="4" x="4919.5" y="184"/><rect fill="#F1F1F1" height="2" style="stroke:#181818;stroke-width:0.5;" width="4" x="4919.5" y="188"/><text fill="#000000" font-family="sans-serif" font-size="14" lengthAdjust="spacing" textLength="155" x="4761.5" y="209.9951">Print Medical Records</text></g><!--entity equipmentStatus--><g id="elem_equipmentStatus"><rect fill="#F1F1F1" height="46.2969" rx="2.5" ry="2.5" style="stroke:#181818;stroke-width:0.5;" width="229" x="4021.5" y="283"/><rect fill="#F1F1F1" height="10" style="stroke:#181818;stroke-width:0.5;" width="15" x="4230.5" y="288"/><rect fill="#F1F1F1" height="2" style="stroke:#181818;stroke-width:0.5;" width="4" x="4228.5" y="290"/><rect fill="#F1F1F1" height="2" style="stroke:#181818;stroke-width:0.5;" width="4" x="4228.5" y="294"/><text fill="#000000" font-family="sans-serif" font-size="14" lengthAdjust="spacing" textLength="189" x="4036.5" y="315.9951">Monitor Equipment Status</text></g><!--entity maintenancePlan--><g id="elem_maintenancePlan"><rect fill="#F1F1F1" height="46.2969" rx="2.5" ry="2.5" style="stroke:#181818;stroke-width:0.5;" width="309" x="4133.5" y="389"/><rect fill="#F1F1F1" height="10" style="stroke:#181818;stroke-width:0.5;" width="15" x="4422.5" y="394"/><rect fill="#F1F1F1" height="2" style="stroke:#181818;stroke-width:0.5;" width="4" x="4420.5" y="396"/><rect fill="#F1F1F1" height="2" style="stroke:#181818;stroke-width:0.5;" width="4" x="4420.5" y="400"/><text fill="#000000" font-family="sans-serif" font-size="14" lengthAdjust="spacing" textLength="269" x="4148.5" y="421.9951">Create Equipment Maintenance Plans</text></g><!--entity advertising--><g id="elem_advertising"><rect fill="#F1F1F1" height="46.2969" rx="2.5" ry="2.5" style="stroke:#181818;stroke-width:0.5;" width="199" x="3196.5" y="177"/><rect fill="#F1F1F1" height="10" style="stroke:#181818;stroke-width:0.5;" width="15" x="3375.5" y="182"/><rect fill="#F1F1F1" height="2" style="stroke:#181818;stroke-width:0.5;" width="4" x="3373.5" y="184"/><rect fill="#F1F1F1" height="2" style="stroke:#181818;stroke-width:0.5;" width="4" x="3373.5" y="188"/><text fill="#000000" font-family="sans-serif" font-size="14" lengthAdjust="spacing" textLength="159" x="3211.5" y="209.9951">CRUD Advertisements</text></g><!--entity voucher--><g id="elem_voucher"><rect fill="#F1F1F1" height="46.2969" rx="2.5" ry="2.5" style="stroke:#181818;stroke-width:0.5;" width="150" x="3431" y="177"/><rect fill="#F1F1F1" height="10" style="stroke:#181818;stroke-width:0.5;" width="15" x="3561" y="182"/><rect fill="#F1F1F1" height="2" style="stroke:#181818;stroke-width:0.5;" width="4" x="3559" y="184"/><rect fill="#F1F1F1" height="2" style="stroke:#181818;stroke-width:0.5;" width="4" x="3559" y="188"/><text fill="#000000" font-family="sans-serif" font-size="14" lengthAdjust="spacing" textLength="110" x="3446" y="209.9951">CRUD Vouchers</text></g><!--entity feedback--><g id="elem_feedback"><rect fill="#F1F1F1" height="46.2969" rx="2.5" ry="2.5" style="stroke:#181818;stroke-width:0.5;" width="167" x="3616.5" y="177"/><rect fill="#F1F1F1" height="10" style="stroke:#181818;stroke-width:0.5;" width="15" x="3763.5" y="182"/><rect fill="#F1F1F1" height="2" style="stroke:#181818;stroke-width:0.5;" width="4" x="3761.5" y="184"/><rect fill="#F1F1F1" height="2" style="stroke:#181818;stroke-width:0.5;" width="4" x="3761.5" y="188"/><text fill="#000000" font-family="sans-serif" font-size="14" lengthAdjust="spacing" textLength="127" x="3631.5" y="209.9951">Service Feedback</text></g><!--entity treatmentPlan--><g id="elem_treatmentPlan"><rect fill="#F1F1F1" height="46.2969" rx="2.5" ry="2.5" style="stroke:#181818;stroke-width:0.5;" width="269" x="1141.5" y="389"/><rect fill="#F1F1F1" height="10" style="stroke:#181818;stroke-width:0.5;" width="15" x="1390.5" y="394"/><rect fill="#F1F1F1" height="2" style="stroke:#181818;stroke-width:0.5;" width="4" x="1388.5" y="396"/><rect fill="#F1F1F1" height="2" style="stroke:#181818;stroke-width:0.5;" width="4" x="1388.5" y="400"/><text fill="#000000" font-family="sans-serif" font-size="14" lengthAdjust="spacing" textLength="229" x="1156.5" y="421.9951">Create Patient Treatment Plans</text></g><!--entity treatmentProgress--><g id="elem_treatmentProgress"><rect fill="#F1F1F1" height="46.2969" rx="2.5" ry="2.5" style="stroke:#181818;stroke-width:0.5;" width="262" x="862" y="177"/><rect fill="#F1F1F1" height="10" style="stroke:#181818;stroke-width:0.5;" width="15" x="1104" y="182"/><rect fill="#F1F1F1" height="2" style="stroke:#181818;stroke-width:0.5;" width="4" x="1102" y="184"/><rect fill="#F1F1F1" height="2" style="stroke:#181818;stroke-width:0.5;" width="4" x="1102" y="188"/><text fill="#000000" font-family="sans-serif" font-size="14" lengthAdjust="spacing" textLength="222" x="877" y="209.9951">Track Treatment Plan Progress</text></g><!--entity serviceContract--><g id="elem_serviceContract"><rect fill="#F1F1F1" height="46.2969" rx="2.5" ry="2.5" style="stroke:#181818;stroke-width:0.5;" width="212" x="2157" y="177"/><rect fill="#F1F1F1" height="10" style="stroke:#181818;stroke-width:0.5;" width="15" x="2349" y="182"/><rect fill="#F1F1F1" height="2" style="stroke:#181818;stroke-width:0.5;" width="4" x="2347" y="184"/><rect fill="#F1F1F1" height="2" style="stroke:#181818;stroke-width:0.5;" width="4" x="2347" y="188"/><text fill="#000000" font-family="sans-serif" font-size="14" lengthAdjust="spacing" textLength="172" x="2172" y="209.9951">CRUD Service Contracts</text></g><!--entity supplyContract--><g id="elem_supplyContract"><rect fill="#F1F1F1" height="46.2969" rx="2.5" ry="2.5" style="stroke:#181818;stroke-width:0.5;" width="208" x="1844" y="283"/><rect fill="#F1F1F1" height="10" style="stroke:#181818;stroke-width:0.5;" width="15" x="2032" y="288"/><rect fill="#F1F1F1" height="2" style="stroke:#181818;stroke-width:0.5;" width="4" x="2030" y="290"/><rect fill="#F1F1F1" height="2" style="stroke:#181818;stroke-width:0.5;" width="4" x="2030" y="294"/><text fill="#000000" font-family="sans-serif" font-size="14" lengthAdjust="spacing" textLength="168" x="1859" y="315.9951">CRUD Supply Contracts</text></g><!--entity potentialCustomer--><g id="elem_potentialCustomer"><rect fill="#F1F1F1" height="46.2969" rx="2.5" ry="2.5" style="stroke:#181818;stroke-width:0.5;" width="322" x="3572" y="283"/><rect fill="#F1F1F1" height="10" style="stroke:#181818;stroke-width:0.5;" width="15" x="3874" y="288"/><rect fill="#F1F1F1" height="2" style="stroke:#181818;stroke-width:0.5;" width="4" x="3872" y="290"/><rect fill="#F1F1F1" height="2" style="stroke:#181818;stroke-width:0.5;" width="4" x="3872" y="294"/><text fill="#000000" font-family="sans-serif" font-size="14" lengthAdjust="spacing" textLength="282" x="3587" y="315.9951">CRUD Potential Customers (Businesses)</text></g><!--entity clinicInfo--><g id="elem_clinicInfo"><rect fill="#F1F1F1" height="46.2969" rx="2.5" ry="2.5" style="stroke:#181818;stroke-width:0.5;" width="212" x="3856" y="177"/><rect fill="#F1F1F1" height="10" style="stroke:#181818;stroke-width:0.5;" width="15" x="4048" y="182"/><rect fill="#F1F1F1" height="2" style="stroke:#181818;stroke-width:0.5;" width="4" x="4046" y="184"/><rect fill="#F1F1F1" height="2" style="stroke:#181818;stroke-width:0.5;" width="4" x="4046" y="188"/><text fill="#000000" font-family="sans-serif" font-size="14" lengthAdjust="spacing" textLength="172" x="3871" y="209.9951">CRUD Clinic Information</text></g><!--entity manager--><g id="elem_manager"><ellipse cx="3603" cy="49.5" fill="#F1F1F1" rx="8" ry="8" style="stroke:#181818;stroke-width:0.5;"/><path d="M3603,57.5 L3603,84.5 M3590,65.5 L3616,65.5 M3603,84.5 L3590,99.5 M3603,84.5 L3616,99.5 " fill="none" style="stroke:#181818;stroke-width:0.5;"/><text fill="#000000" font-family="sans-serif" font-size="14" lengthAdjust="spacing" textLength="61" x="3572.5" y="113.9951">Manager</text></g><!--entity doctor--><g id="elem_doctor"><ellipse cx="1326" cy="49.5" fill="#F1F1F1" rx="8" ry="8" style="stroke:#181818;stroke-width:0.5;"/><path d="M1326,57.5 L1326,84.5 M1313,65.5 L1339,65.5 M1326,84.5 L1313,99.5 M1326,84.5 L1339,99.5 " fill="none" style="stroke:#181818;stroke-width:0.5;"/><text fill="#000000" font-family="sans-serif" font-size="14" lengthAdjust="spacing" textLength="50" x="1301" y="113.9951">Doctor</text></g><!--entity patient--><g id="elem_patient"><ellipse cx="227" cy="49.5" fill="#F1F1F1" rx="8" ry="8" style="stroke:#181818;stroke-width:0.5;"/><path d="M227,57.5 L227,84.5 M214,65.5 L240,65.5 M227,84.5 L214,99.5 M227,84.5 L240,99.5 " fill="none" style="stroke:#181818;stroke-width:0.5;"/><text fill="#000000" font-family="sans-serif" font-size="14" lengthAdjust="spacing" textLength="53" x="200.5" y="113.9951">Patient</text></g><!--link patient to messaging--><g id="link_patient_messaging"><path d="M253.537,94.354 C291.479,114.877 345.7287,144.2212 390.3147,168.3382 " fill="none" id="patient-to-messaging" style="stroke:#181818;stroke-width:1.0;"/><polygon fill="none" points="406.147,176.902,393.1693,163.0607,387.4601,173.6156,406.147,176.902" style="stroke:#181818;stroke-width:1.0;"/></g><!--link patient to medicalHistory--><g id="link_patient_medicalHistory"><path d="M200.413,108.503 C180.915,129.406 167.09,144.2285 149.099,163.5155 " fill="none" id="patient-to-medicalHistory" style="stroke:#181818;stroke-width:1.0;"/><polygon fill="none" points="136.821,176.678,153.4865,167.6082,144.7115,159.4229,136.821,176.678" style="stroke:#181818;stroke-width:1.0;"/></g><!--link doctor to messaging--><g id="link_doctor_messaging"><path d="M1300.64,83.433 C1200.64,96.971 846.2853,144.9442 627.7613,174.5282 " fill="none" id="doctor-to-messaging" style="stroke:#181818;stroke-width:1.0;"/><polygon fill="none" points="609.924,176.943,628.5662,180.4739,626.9563,168.5824,609.924,176.943" style="stroke:#181818;stroke-width:1.0;"/></g><!--link doctor to appointment--><g id="link_doctor_appointment"><path d="M1300.85,88.073 C1266.13,100.742 1204.87,128.94 1179,177 C1169.31,195.003 1170.39,204.455 1179,223 C1190.79,248.403 1199.7673,258.8061 1220.9273,272.8951 " fill="none" id="doctor-to-appointment" style="stroke:#181818;stroke-width:1.0;"/><polygon fill="none" points="1235.91,282.871,1224.2526,267.9008,1217.602,277.8893,1235.91,282.871" style="stroke:#181818;stroke-width:1.0;"/></g><!--link doctor to inventoryTracking--><g id="link_doctor_inventoryTracking"><path d="M1351.33,84.52 C1435.21,99.485 1690.0198,144.9455 1851.6798,173.7875 " fill="none" id="doctor-to-inventoryTracking" style="stroke:#181818;stroke-width:1.0;"/><polygon fill="none" points="1869.4,176.949,1852.7336,167.8808,1850.626,179.6942,1869.4,176.949" style="stroke:#181818;stroke-width:1.0;"/></g><!--link doctor to inventoryManagement--><g id="link_doctor_inventoryManagement"><path d="M1351.21,88.086 C1407.39,106.107 1527.3801,144.5934 1611.0901,171.4434 " fill="none" id="doctor-to-inventoryManagement" style="stroke:#181818;stroke-width:1.0;"/><polygon fill="none" points="1628.23,176.941,1612.9226,165.7301,1609.2576,177.1567,1628.23,176.941" style="stroke:#181818;stroke-width:1.0;"/></g><!--link doctor to appointmentReminder--><g id="link_doctor_appointmentReminder"><path d="M1326,117 C1326,136.65 1326,142.139 1326,158.931 " fill="none" id="doctor-to-appointmentReminder" style="stroke:#181818;stroke-width:1.0;"/><polygon fill="none" points="1326,176.931,1332,158.931,1320,158.931,1326,176.931" style="stroke:#181818;stroke-width:1.0;"/></g><!--link doctor to prescription--><g id="link_doctor_prescription"><path d="M1300.9,85.012 C1229.45,99.29 1018.82,141.438 844,177 C838.332,178.153 850.1308,175.7413 844.2468,176.9433 " fill="none" id="doctor-to-prescription" style="stroke:#181818;stroke-width:1.0;"/><polygon fill="none" points="826.611,180.546,845.4477,182.8219,843.0459,171.0647,826.611,180.546" style="stroke:#181818;stroke-width:1.0;"/></g><!--link doctor to treatmentPlan--><g id="link_doctor_treatmentPlan"><path d="M1351.15,88.073 C1385.87,100.742 1447.13,128.94 1473,177 C1482.69,195.003 1479.78,203.712 1473,223 C1445.88,300.162 1380.8308,349.5395 1331.5308,379.5108 " fill="none" id="doctor-to-treatmentPlan" style="stroke:#181818;stroke-width:1.0;"/><polygon fill="none" points="1316.15,388.8613,1334.6476,384.6377,1328.4139,374.3839,1316.15,388.8613" style="stroke:#181818;stroke-width:1.0;"/></g><!--link doctor to treatmentProgress--><g id="link_doctor_treatmentProgress"><path d="M1300.97,88.944 C1249.17,107.457 1145.8102,144.3926 1071.8302,170.8306 " fill="none" id="doctor-to-treatmentProgress" style="stroke:#181818;stroke-width:1.0;"/><polygon fill="none" points="1054.88,176.888,1073.8493,176.4806,1069.811,165.1805,1054.88,176.888" style="stroke:#181818;stroke-width:1.0;"/></g><!--link doctor to supplyContract--><g id="link_doctor_supplyContract"><path d="M1351.03,91.238 C1386.18,107.591 1451.42,140.055 1501,177 C1524.44,194.464 1522.19,209.285 1548,223 C1640.65,272.23 1741.9384,290.2663 1826.0384,298.1393 " fill="none" id="doctor-to-supplyContract" style="stroke:#181818;stroke-width:1.0;"/><polygon fill="none" points="1843.96,299.817,1826.5976,292.1654,1825.4791,304.1132,1843.96,299.817" style="stroke:#181818;stroke-width:1.0;"/></g><!--link manager to terminateEmployee--><g id="link_manager_terminateEmployee"><path d="M3572.2,86.825 C3494.03,104.148 3302.9737,146.4867 3179.3137,173.8897 " fill="none" id="manager-to-terminateEmployee" style="stroke:#181818;stroke-width:1.0;"/><polygon fill="none" points="3161.74,177.784,3180.6118,179.7476,3178.0156,168.0318,3161.74,177.784" style="stroke:#181818;stroke-width:1.0;"/></g><!--link manager to financialTracking--><g id="link_manager_financialTracking"><path d="M3572.2,84.534 C3478.92,98.279 3191.29,140.761 2953,177 C2947.2,177.881 2959.0727,176.0621 2953.0827,176.9791 " fill="none" id="manager-to-financialTracking" style="stroke:#181818;stroke-width:1.0;"/><polygon fill="none" points="2935.29,179.703,2953.9907,182.91,2952.1748,171.0482,2935.29,179.703" style="stroke:#181818;stroke-width:1.0;"/></g><!--link manager to financialReports--><g id="link_manager_financialReports"><path d="M3633.79,83.011 C3744.3,93.928 4131.21,133.102 4449,177 C4457.88,178.227 4449.2916,176.8808 4458.5216,178.2738 " fill="none" id="manager-to-financialReports" style="stroke:#181818;stroke-width:1.0;"/><polygon fill="none" points="4476.32,180.96,4459.4169,172.341,4457.6262,184.2067,4476.32,180.96" style="stroke:#181818;stroke-width:1.0;"/></g><!--link manager to inventoryTracking--><g id="link_manager_inventoryTracking"><path d="M3572.29,81.096 C3418.14,86.795 2713.55,115.173 2140,177 C2134.23,177.622 2146.1963,176.1153 2140.2563,176.8433 " fill="none" id="manager-to-inventoryTracking" style="stroke:#181818;stroke-width:1.0;"/><polygon fill="none" points="2122.39,179.033,2140.9862,182.7988,2139.5264,170.8879,2122.39,179.033" style="stroke:#181818;stroke-width:1.0;"/></g><!--link manager to inventoryManagement--><g id="link_manager_inventoryManagement"><path d="M3572.3,80.658 C3400.74,84.55 2543.43,106.838 1847,177 C1840.98,177.607 1852.7079,176.189 1846.4979,176.916 " fill="none" id="manager-to-inventoryManagement" style="stroke:#181818;stroke-width:1.0;"/><polygon fill="none" points="1828.62,179.009,1847.1956,182.8753,1845.8003,170.9567,1828.62,179.009" style="stroke:#181818;stroke-width:1.0;"/></g><!--link manager to equipmentStatus--><g id="link_manager_equipmentStatus"><path d="M3633.6,82.218 C3729.79,89.081 4019.96,113.47 4087,177 C4116.1,204.573 4117.1472,236.5539 4122.3672,265.2379 " fill="none" id="manager-to-equipmentStatus" style="stroke:#181818;stroke-width:1.0;"/><polygon fill="none" points="4125.59,282.947,4128.2703,264.1636,4116.4642,266.3121,4125.59,282.947" style="stroke:#181818;stroke-width:1.0;"/></g><!--link manager to equipmentStatus--><g id="link_manager_equipmentStatus"><path d="M3633.69,81.311 C3735,86.724 4051.58,110.27 4122,177 C4151.1,204.573 4159.0319,236.6394 4153.0719,265.3234 " fill="none" id="manager-to-equipmentStatus-1" style="stroke:#181818;stroke-width:1.0;"/><polygon fill="none" points="4149.41,282.947,4158.9464,266.544,4147.1973,264.1028,4149.41,282.947" style="stroke:#181818;stroke-width:1.0;"/></g><!--link manager to maintenancePlan--><g id="link_manager_maintenancePlan"><path d="M3633.75,81.539 C3774.85,88.294 4351.28,117.664 4404,177 C4464.36,244.945 4369.4939,332.5526 4321.5139,376.5699 " fill="none" id="manager-to-maintenancePlan" style="stroke:#181818;stroke-width:1.0;"/><polygon fill="none" points="4308.25,388.7383,4325.57,380.9912,4317.4577,372.1486,4308.25,388.7383" style="stroke:#181818;stroke-width:1.0;"/></g><!--link manager to maintenancePlan--><g id="link_manager_maintenancePlan"><path d="M3633.56,81.04 C3778.31,86.728 4384.86,116.061 4439,177 C4499.36,244.945 4406.0105,334.4479 4342.6805,378.4652 " fill="none" id="manager-to-maintenancePlan-1" style="stroke:#181818;stroke-width:1.0;"/><polygon fill="none" points="4327.9,388.7383,4346.1049,383.392,4339.2561,373.5383,4327.9,388.7383" style="stroke:#181818;stroke-width:1.0;"/></g><!--link manager to advertising--><g id="link_manager_advertising"><path d="M3572.44,91.845 C3521.33,111.657 3434.5231,145.3051 3369.6831,170.4401 " fill="none" id="manager-to-advertising" style="stroke:#181818;stroke-width:1.0;"/><polygon fill="none" points="3352.9,176.946,3371.8518,176.0345,3367.5145,164.8457,3352.9,176.946" style="stroke:#181818;stroke-width:1.0;"/></g><!--link manager to voucher--><g id="link_manager_voucher"><path d="M3572.84,117 C3556.82,136.65 3549.0539,146.1879 3535.3639,162.9799 " fill="none" id="manager-to-voucher" style="stroke:#181818;stroke-width:1.0;"/><polygon fill="none" points="3523.99,176.931,3540.0143,166.7712,3530.7135,159.1886,3523.99,176.931" style="stroke:#181818;stroke-width:1.0;"/></g><!--link manager to feedback--><g id="link_manager_feedback"><path d="M3633.16,117 C3649.18,136.65 3656.9461,146.1879 3670.6361,162.9799 " fill="none" id="manager-to-feedback" style="stroke:#181818;stroke-width:1.0;"/><polygon fill="none" points="3682.01,176.931,3675.2865,159.1886,3665.9857,166.7712,3682.01,176.931" style="stroke:#181818;stroke-width:1.0;"/></g><!--link manager to serviceContract--><g id="link_manager_serviceContract"><path d="M3572.35,81.359 C3434.34,87.707 2857.01,116.701 2387,177 C2381.14,177.751 2392.9554,175.9491 2386.9054,176.8461 " fill="none" id="manager-to-serviceContract" style="stroke:#181818;stroke-width:1.0;"/><polygon fill="none" points="2369.1,179.486,2387.7853,182.7812,2386.0254,170.911,2369.1,179.486" style="stroke:#181818;stroke-width:1.0;"/></g><!--link manager to potentialCustomer--><g id="link_manager_potentialCustomer"><path d="M3633.83,84.811 C3679.61,93.798 3764.13,117.887 3801,177 C3823.37,212.87 3800.1987,244.4506 3772.6187,270.4036 " fill="none" id="manager-to-potentialCustomer" style="stroke:#181818;stroke-width:1.0;"/><polygon fill="none" points="3759.51,282.739,3776.7305,274.7732,3768.5069,266.034,3759.51,282.739" style="stroke:#181818;stroke-width:1.0;"/></g><!--link manager to clinicInfo--><g id="link_manager_clinicInfo"><path d="M3633.61,90.146 C3691.34,109.284 3800.4443,145.4472 3878.4943,171.3202 " fill="none" id="manager-to-clinicInfo" style="stroke:#181818;stroke-width:1.0;"/><polygon fill="none" points="3895.58,176.984,3880.3822,165.625,3876.6064,177.0154,3895.58,176.984" style="stroke:#181818;stroke-width:1.0;"/></g><!--link manager to employeeInfo--><g id="link_manager_employeeInfo"><path d="M3633.89,85.422 C3725.21,101.45 3979.791,146.1321 4140.581,174.3551 " fill="none" id="manager-to-employeeInfo" style="stroke:#181818;stroke-width:1.0;"/><polygon fill="none" points="4158.31,177.467,4141.6183,168.4454,4139.5437,180.2647,4158.31,177.467" style="stroke:#181818;stroke-width:1.0;"/></g><!--link manager to employeeSchedule--><g id="link_manager_employeeSchedule"><path d="M3572.28,82.129 C3452.83,91.471 3012.76,130.46 2653,177 C2652.51,177.064 2669.8598,174.8075 2669.3598,174.8725 " fill="none" id="manager-to-employeeSchedule" style="stroke:#181818;stroke-width:1.0;"/><polygon fill="none" points="2651.51,177.193,2670.1333,180.8225,2668.5863,168.9226,2651.51,177.193" style="stroke:#181818;stroke-width:1.0;"/></g><!--link manager to employeeSchedule--><g id="link_manager_employeeSchedule"><path d="M3572.12,83.288 C3455.34,94.37 3034.43,132.184 2688,177 C2676.25,178.52 2681.7844,177.6558 2669.4644,179.4388 " fill="none" id="manager-to-employeeSchedule-1" style="stroke:#181818;stroke-width:1.0;"/><polygon fill="none" points="2651.65,182.017,2670.3238,185.377,2668.605,173.5007,2651.65,182.017" style="stroke:#181818;stroke-width:1.0;"/></g><!--link clinicInfo to maintenancePlan--><g id="link_clinicInfo_maintenancePlan"><path d="M3963.15,223.289 C3965.83,251.767 3974.71,300.746 4004,329 C4038.9,362.67 4069.2954,378.2194 4115.7554,390.0358 " fill="none" id="clinicInfo-to-maintenancePlan" style="stroke:#181818;stroke-width:1.0;"/><polygon fill="none" points="4133.2,394.4726,4117.2343,384.2209,4114.2764,395.8507,4133.2,394.4726" style="stroke:#181818;stroke-width:1.0;"/></g><!--link clinicInfo to equipmentStatus--><g id="link_clinicInfo_equipmentStatus"><path d="M3998.9,223.056 C4028.43,240.705 4054.1901,256.0991 4083.7001,273.7401 " fill="none" id="clinicInfo-to-equipmentStatus" style="stroke:#181818;stroke-width:1.0;"/><polygon fill="none" points="4099.15,282.976,4086.7788,268.5902,4080.6215,278.8901,4099.15,282.976" style="stroke:#181818;stroke-width:1.0;"/></g><!--link invoice to financialReports--><g id="link_invoice_financialReports"><path d="M4545.1,102.104 C4553.85,123.344 4560.1498,138.6294 4568.9298,159.9644 " fill="none" id="invoice-to-financialReports" style="stroke:#181818;stroke-width:1.0;"/><polygon fill="none" points="4575.78,176.61,4574.4784,157.681,4563.3813,162.2478,4575.78,176.61" style="stroke:#181818;stroke-width:1.0;"/></g><!--link appointmentReminder to appointment--><g id="link_appointmentReminder_appointment"><path d="M1315.4,223.056 C1306.91,240.705 1302.8684,249.112 1294.3884,266.753 " fill="none" id="appointmentReminder-to-appointment" style="stroke:#181818;stroke-width:1.0;"/><polygon fill="none" points="1286.59,282.976,1299.796,269.3525,1288.9807,264.1536,1286.59,282.976" style="stroke:#181818;stroke-width:1.0;"/></g><!--link medicalRecords to printMedicalRecords--><g id="link_medicalRecords_printMedicalRecords"><path d="M4805.73,102.104 C4814.12,123.344 4820.1154,138.5344 4828.5454,159.8694 " fill="none" id="medicalRecords-to-printMedicalRecords" style="stroke:#181818;stroke-width:1.0;"/><polygon fill="none" points="4835.16,176.61,4834.1256,157.6646,4822.9652,162.0743,4835.16,176.61" style="stroke:#181818;stroke-width:1.0;"/></g><!--link appointment to treatmentPlan--><g id="link_appointment_treatmentPlan"><path d="M1276,329.056 C1276,346.705 1276,353.3353 1276,370.9761 " fill="none" id="appointment-to-treatmentPlan" style="stroke:#181818;stroke-width:1.0;"/><polygon fill="none" points="1276,388.9761,1282,370.9761,1270,370.9761,1276,388.9761" style="stroke:#181818;stroke-width:1.0;"/></g><!--link treatmentProgress to treatmentPlan--><g id="link_treatmentProgress_treatmentPlan"><path d="M1022.28,223.065 C1056.28,248.649 1114.08,292.042 1164,329 C1191.5,349.361 1208.4178,361.7561 1230.9678,378.2051 " fill="none" id="treatmentProgress-to-treatmentPlan" style="stroke:#181818;stroke-width:1.0;"/><polygon fill="none" points="1245.51,388.8128,1234.5037,373.3577,1227.4319,383.0525,1245.51,388.8128" style="stroke:#181818;stroke-width:1.0;"/></g><!--link clinicInfo to treatmentPlan--><g id="link_clinicInfo_treatmentPlan"><path d="M3963.77,223.276 C3964.74,252.689 3961.39,303.702 3930,329 C3831.16,408.6629 1954.82,411.9636 1428.59,411.3297 " fill="none" id="clinicInfo-to-treatmentPlan" style="stroke:#181818;stroke-width:1.0;"/><polygon fill="none" points="1410.59,411.308,1428.5828,417.3297,1428.5972,405.3297,1410.59,411.308" style="stroke:#181818;stroke-width:1.0;"/></g><!--link potentialCustomer to potentialCustomer--><g id="link_potentialCustomer_potentialCustomer"><path d="M3894.1,288.527 C3915.1,291.532 3929,297.356 3929,306 C3929,314.644 3932.9185,317.9183 3911.9185,320.9233 " fill="none" id="potentialCustomer-to-potentialCustomer" style="stroke:#181818;stroke-width:1.0;"/><polygon fill="none" points="3894.1,323.473,3912.7684,326.8628,3911.0686,314.9838,3894.1,323.473" style="stroke:#181818;stroke-width:1.0;"/></g><!--link patientInfo to medicalHistory--><g id="link_patientInfo_medicalHistory"><path d="M440.072,102.104 C368.697,123.445 278.4696,150.4226 207.1146,171.7576 " fill="none" id="patientInfo-to-medicalHistory" style="stroke:#181818;stroke-width:1.0;"/><polygon fill="none" points="189.869,176.914,208.8334,177.5061,205.3958,166.0091,189.869,176.914" style="stroke:#181818;stroke-width:1.0;"/></g><!--link patientInfo to prescription--><g id="link_patientInfo_prescription"><path d="M555.422,102.104 C595.35,123.411 639.5606,147.0038 679.5416,168.3388 " fill="none" id="patientInfo-to-prescription" style="stroke:#181818;stroke-width:1.0;"/><polygon fill="none" points="695.422,176.813,682.3663,163.0453,676.7168,173.6322,695.422,176.813" style="stroke:#181818;stroke-width:1.0;"/></g><!--link patientInfo to treatmentPlan--><g id="link_patientInfo_treatmentPlan"><path d="M402.262,102.031 C314.592,124.324 214.934,163.979 264,223 C374.098,355.435 874.129,394.1913 1123.379,405.6673 " fill="none" id="patientInfo-to-treatmentPlan" style="stroke:#181818;stroke-width:1.0;"/><polygon fill="none" points="1141.36,406.4952,1123.655,399.6737,1123.1031,411.661,1141.36,406.4952" style="stroke:#181818;stroke-width:1.0;"/></g><!--link patientInfo to treatmentProgress--><g id="link_patientInfo_treatmentProgress"><path d="M602.694,102.035 C688.693,123.4 800.96,151.29 886.928,172.648 " fill="none" id="patientInfo-to-treatmentProgress" style="stroke:#181818;stroke-width:1.0;"/><polygon fill="none" points="904.397,176.988,888.3747,166.825,885.4814,178.471,904.397,176.988" style="stroke:#181818;stroke-width:1.0;"/></g><!--link clinicInfo to clinicInfo--><g id="link_clinicInfo_clinicInfo"><path d="M4068.07,181.042 C4088.51,183.277 4103,189.597 4103,200 C4103,210.403 4106.4033,214.7665 4085.9633,217.0015 " fill="none" id="clinicInfo-to-clinicInfo" style="stroke:#181818;stroke-width:1.0;"/><polygon fill="none" points="4068.07,218.958,4086.6155,222.9659,4085.3112,211.037,4068.07,218.958" style="stroke:#181818;stroke-width:1.0;"/></g><!--link clinicInfo to potentialCustomer--><g id="link_clinicInfo_potentialCustomer"><path d="M3913.43,223.056 C3874.57,240.705 3836.7287,257.8913 3797.8887,275.5323 " fill="none" id="clinicInfo-to-potentialCustomer" style="stroke:#181818;stroke-width:1.0;"/><polygon fill="none" points="3781.5,282.976,3800.37,280.9952,3795.4075,270.0694,3781.5,282.976" style="stroke:#181818;stroke-width:1.0;"/></g><!--link serviceContract to supplyContract--><g id="link_serviceContract_supplyContract"><path d="M2196.2,223.056 C2142.74,240.705 2085.2324,259.6916 2031.8024,277.3326 " fill="none" id="serviceContract-to-supplyContract" style="stroke:#181818;stroke-width:1.0;"/><polygon fill="none" points="2014.71,282.976,2033.6836,283.0301,2029.9213,271.6351,2014.71,282.976" style="stroke:#181818;stroke-width:1.0;"/></g><!--link supplyContract to supplyContract--><g id="link_supplyContract_supplyContract"><path d="M2052.26,296.505 C2072.58,297.607 2087,300.772 2087,306 C2087,311.228 2090.5536,313.4183 2070.2336,314.5203 " fill="none" id="supplyContract-to-supplyContract" style="stroke:#181818;stroke-width:1.0;"/><polygon fill="none" points="2052.26,315.495,2070.5585,320.5114,2069.9087,308.5291,2052.26,315.495" style="stroke:#181818;stroke-width:1.0;"/></g><!--link supplyContract to supplyContract--><g id="link_supplyContract_supplyContract"><path d="M2052.04,286.162 C2090.45,285.568 2122,292.181 2122,306 C2122,319.819 2108.4478,326.7103 2070.0378,326.1163 " fill="none" id="supplyContract-to-supplyContract-1" style="stroke:#181818;stroke-width:1.0;"/><polygon fill="none" points="2052.04,325.838,2069.9451,332.1156,2070.1306,320.117,2052.04,325.838" style="stroke:#181818;stroke-width:1.0;"/></g><!--link financialReports to financialReports--><g id="link_financialReports_financialReports"><path d="M4693.57,181.11 C4714.05,183.404 4728.5,189.7 4728.5,200 C4728.5,210.3 4731.9381,214.5923 4711.4581,216.8863 " fill="none" id="financialReports-to-financialReports" style="stroke:#181818;stroke-width:1.0;"/><polygon fill="none" points="4693.57,218.89,4712.126,222.849,4710.7902,210.9236,4693.57,218.89" style="stroke:#181818;stroke-width:1.0;"/></g><!--link equipmentStatus to maintenancePlan--><g id="link_equipmentStatus_maintenancePlan"><path d="M4168.24,329.056 C4194.03,346.705 4215.175,361.1703 4240.955,378.8111 " fill="none" id="equipmentStatus-to-maintenancePlan" style="stroke:#181818;stroke-width:1.0;"/><polygon fill="none" points="4255.81,388.9761,4244.3433,373.8594,4237.5666,383.7627,4255.81,388.9761" style="stroke:#181818;stroke-width:1.0;"/></g><!--link equipmentStatus to equipmentStatus--><g id="link_equipmentStatus_equipmentStatus"><path d="M4250.71,287.291 C4271.19,289.723 4285.5,295.959 4285.5,306 C4285.5,316.041 4289.0644,320.1544 4268.5844,322.5864 " fill="none" id="equipmentStatus-to-equipmentStatus" style="stroke:#181818;stroke-width:1.0;"/><polygon fill="none" points="4250.71,324.709,4269.2919,328.5446,4267.8769,316.6283,4250.71,324.709" style="stroke:#181818;stroke-width:1.0;"/></g><!--SRC=[hLR9Rjim4BtxAnYVsaD-eK3gE0jG5uQTvbBqm4XZXwX4gIJbr6ZxxnrkvYgWXrvi-RqtvEpoLGi7ne7irgkdcy_tdzQawQYKYyML8oO93PMNxq3GHWt2VWQGSGNYG9leAP0ZRRxJu-Kx4C2dtdmi5bwpV03QgTU62Y0RoX7gWIkoFqi5_PByMX3ozGb4ppXLGDRzs0rdW6-4Ig8yx56jtO2KzCZuaRo0UWFWv7Qm0V2MRAbYUBeqvhrNQhFLxikjfyaZFmoYnny3DyhHuXhMsdlW8BGtZ_mqiCOwm-ppvQoRSHmmDVtbEXe0BNfcy4OsqBA6TkI1INJnxDmoc8Ckv_aO2-V04TuxcyIWtpUlq4uTo4JjKPDUWRKWEpXXPS3aQVrp12wT2LQEyeRHpkXylWJe3Dnv3it7GQZCme7Q07E5aMD4veBzD8xTcVWJVGQj8hx7HHEiaUGIcn73bwbPw1vjk0Uy9Ye2EeZDqe8egk69q0O2P2FO6EuO8yGSZlVPJ3d_V25tq0oYbN4X7QJDjWAlh6f7pMmAWyt0cUxTzO-9ZNOk55MJAwK7BHPL9SWtL8-dhWQGRKTTE7r0DHXwjZs1K4n2rBKEYiVaUPYmUrmYJ_Q7JRauuGYGEu3s1KjeUy7zYDppO_QaVnetWslAOzunsvof52iq7B4akOb3BuvwXrO3LtYC2qbQr8D1RNio4nkmq6u7p9_IVR-QS4vxp0Pvzt72DE7z8D_RedgHrrpCLntZh2b6kJ6m6UG5QktYNTeM4qjREVCSIBlS3DUQnq2vD2-Z3MQETS_a-lhtXsG9PaIoXf2svvTcCPukkPYfJNULJyPuvkneP6D5DgQMCapULbKgj4zyQD41hWQMhRs34a5jUzO5OLacV2rnTK6IkKHIheg4BlT1GgSx8A72zASnXQ5Fy7Bq4hesC8aW6f0ymlGjMEMYTzv_p4xbzE3ct0cvedJ1_P-OxP7ADDH6C7q9-J6flMmYErATcM9Gwh8yj9mlYZnV- -X_LtKfLHJP2YZumfjvGLW7UKX96-PaBP2ixsSMImhCYF9Mc6sGhANcEh4gAzln7tpxynS0]--></g></svg>